{
	"asset":{
		"version":"2.0",
		"generator":""
	},
	"scenes":[{
		"nodes":[0,
		1,
		2,
		3,
		4]
	}],
	"nodes":[{
		"name":"pantalla 1",
		"mesh":0,
		"rotation":[0.0,
		0.0,
		0.0,
		-1.0],
		"translation":[0.08926110714673996,
		1.3574546575546265,
		0.4507185220718384],
		"scale":[1.0,
		1.0,
		1.0]
	},
	{
		"name":"pantalla 2",
		"mesh":1,
		"rotation":[0.0,
		0.0,
		0.0,
		-1.0],
		"translation":[0.08926110714673996,
		1.3574546575546265,
		0.5385828614234924],
		"scale":[1.0,
		1.0,
		1.0]
	},
	{
		"name":"pantalla 3",
		"mesh":2,
		"rotation":[0.0,
		0.0,
		0.0,
		-1.0],
		"translation":[0.08926110714673996,
		1.3574546575546265,
		0.44976258277893069],
		"scale":[1.0,
		1.0,
		1.0]
	},
	{
		"name":"pantalla 4",
		"mesh":3,
		"rotation":[0.0,
		0.0,
		0.0,
		-1.0],
		"translation":[0.08926110714673996,
		1.3574546575546265,
		0.44976258277893069],
		"scale":[1.0,
		1.0,
		1.0]
	},
	{
		"name":"teclado",
		"mesh":4,
		"rotation":[0.0,
		0.0,
		0.0,
		-1.0],
		"translation":[0.0,
		0.5529350638389587,
		0.2523190975189209],
		"scale":[1.0,
		1.0,
		1.0]
	}],
	"meshes":[{
		"name":"pantalla 1",
		"primitives":[{
			"attributes":{
				"POSITION":1,
				"TEXCOORD_0":2
			},
			"indices":0,
			"material":0
		}]
	},
	{
		"name":"pantalla 2",
		"primitives":[{
			"attributes":{
				"POSITION":6,
				"TEXCOORD_0":7
			},
			"indices":5,
			"material":0
		}]
	},
	{
		"name":"pantalla 3",
		"primitives":[{
			"attributes":{
				"POSITION":11,
				"TEXCOORD_0":12
			},
			"indices":10,
			"material":0
		}]
	},
	{
		"name":"pantalla 4",
		"primitives":[{
			"attributes":{
				"POSITION":16,
				"TEXCOORD_0":17
			},
			"indices":15,
			"material":0
		}]
	},
	{
		"name":"teclado",
		"primitives":[{
			"attributes":{
				"POSITION":21,
				"TEXCOORD_0":22
			},
			"indices":20,
			"material":0
		}]
	}],
	"accessors":[{
		"bufferView":0,
		"type":"SCALAR",
		"componentType":5123,
		"count":6,
		"byteOffset":0,
		"min":[0],
		"max":[5]
	},
	{
		"bufferView":1,
		"type":"VEC3",
		"componentType":5126,
		"count":6,
		"byteOffset":0,
		"min":[-0.6555664539337158,
		-0.5220056772232056,
		-0.0006232527084648609],
		"max":[0.6555664539337158,
		0.5220056772232056,
		0.0006232527084648609]
	},
	{
		"bufferView":1,
		"type":"VEC2",
		"componentType":5126,
		"count":6,
		"byteOffset":12,
		"min":[0.2915450930595398,
		0.005290379747748375],
		"max":[0.5097787380218506,
		0.21807846426963807]
	},
	{
		"bufferView":2,
		"type":"SCALAR",
		"componentType":5126,
		"count":31,
		"byteOffset":0,
		"min":[0.0],
		"max":[1.0]
	},
	{
		"bufferView":2,
		"type":"VEC3",
		"componentType":5126,
		"count":31,
		"byteOffset":124,
		"min":[0.08926110714673996,
		1.3574546575546265,
		0.4507185220718384],
		"max":[0.08926110714673996,
		1.3574546575546265,
		0.5384790897369385]
	},
	{
		"bufferView":3,
		"type":"SCALAR",
		"componentType":5123,
		"count":6,
		"byteOffset":0,
		"min":[0],
		"max":[5]
	},
	{
		"bufferView":4,
		"type":"VEC3",
		"componentType":5126,
		"count":6,
		"byteOffset":0,
		"min":[-0.6555664539337158,
		-0.5220056772232056,
		-0.0006232527084648609],
		"max":[0.6555664539337158,
		0.5220056772232056,
		0.0006232527084648609]
	},
	{
		"bufferView":4,
		"type":"VEC2",
		"componentType":5126,
		"count":6,
		"byteOffset":12,
		"min":[0.2906635105609894,
		0.22977176308631898],
		"max":[0.5088971257209778,
		0.4425598978996277]
	},
	{
		"bufferView":5,
		"type":"SCALAR",
		"componentType":5126,
		"count":31,
		"byteOffset":0,
		"min":[0.0],
		"max":[1.0]
	},
	{
		"bufferView":5,
		"type":"VEC3",
		"componentType":5126,
		"count":31,
		"byteOffset":124,
		"min":[0.08926110714673996,
		1.3574546575546265,
		0.44976258277893069],
		"max":[0.08926110714673996,
		1.3574546575546265,
		0.5385828614234924]
	},
	{
		"bufferView":6,
		"type":"SCALAR",
		"componentType":5123,
		"count":6,
		"byteOffset":0,
		"min":[0],
		"max":[5]
	},
	{
		"bufferView":7,
		"type":"VEC3",
		"componentType":5126,
		"count":6,
		"byteOffset":0,
		"min":[-0.6555664539337158,
		-0.5220056772232056,
		-0.0006232527084648609],
		"max":[0.6555664539337158,
		0.5220056772232056,
		0.0006232527084648609]
	},
	{
		"bufferView":7,
		"type":"VEC2",
		"componentType":5126,
		"count":6,
		"byteOffset":12,
		"min":[0.503142774105072,
		0.003643022384494543],
		"max":[0.7213764190673828,
		0.21643111109733582]
	},
	{
		"bufferView":8,
		"type":"SCALAR",
		"componentType":5126,
		"count":31,
		"byteOffset":0,
		"min":[0.0],
		"max":[1.0]
	},
	{
		"bufferView":8,
		"type":"VEC3",
		"componentType":5126,
		"count":31,
		"byteOffset":124,
		"min":[0.08926110714673996,
		1.3574546575546265,
		0.44976258277893069],
		"max":[0.08926110714673996,
		1.3574546575546265,
		0.5385227799415588]
	},
	{
		"bufferView":9,
		"type":"SCALAR",
		"componentType":5123,
		"count":6,
		"byteOffset":0,
		"min":[0],
		"max":[5]
	},
	{
		"bufferView":10,
		"type":"VEC3",
		"componentType":5126,
		"count":6,
		"byteOffset":0,
		"min":[-0.6555664539337158,
		-0.5220056772232056,
		-0.0006232527084648609],
		"max":[0.6555664539337158,
		0.5220056772232056,
		0.0006232527084648609]
	},
	{
		"bufferView":10,
		"type":"VEC2",
		"componentType":5126,
		"count":6,
		"byteOffset":12,
		"min":[0.5031688809394836,
		0.22296568751335145],
		"max":[0.7214025259017944,
		0.4357537627220154]
	},
	{
		"bufferView":11,
		"type":"SCALAR",
		"componentType":5126,
		"count":31,
		"byteOffset":0,
		"min":[0.0],
		"max":[1.0]
	},
	{
		"bufferView":11,
		"type":"VEC3",
		"componentType":5126,
		"count":31,
		"byteOffset":124,
		"min":[0.08926110714673996,
		1.3574546575546265,
		0.44976258277893069],
		"max":[0.08926110714673996,
		1.3574546575546265,
		0.5372937321662903]
	},
	{
		"bufferView":12,
		"type":"SCALAR",
		"componentType":5123,
		"count":186,
		"byteOffset":0,
		"min":[0],
		"max":[185]
	},
	{
		"bufferView":13,
		"type":"VEC3",
		"componentType":5126,
		"count":186,
		"byteOffset":0,
		"min":[-1.0996497869491578,
		-1.3179994821548463,
		-1.5388264656066895],
		"max":[1.0996497869491578,
		1.5676450729370118,
		1.5388264656066895]
	},
	{
		"bufferView":13,
		"type":"VEC2",
		"componentType":5126,
		"count":186,
		"byteOffset":12,
		"min":[0.0,
		0.01326712779700756],
		"max":[0.9940445423126221,
		0.9919754266738892]
	}],
	"bufferViews":[{
		"buffer":0,
		"byteOffset":0,
		"byteLength":12,
		"target":34963
	},
	{
		"buffer":0,
		"byteOffset":12,
		"byteLength":120,
		"target":34962,
		"byteStride":20
	},
	{
		"buffer":1,
		"byteOffset":0,
		"byteLength":496
	},
	{
		"buffer":2,
		"byteOffset":0,
		"byteLength":12,
		"target":34963
	},
	{
		"buffer":2,
		"byteOffset":12,
		"byteLength":120,
		"target":34962,
		"byteStride":20
	},
	{
		"buffer":3,
		"byteOffset":0,
		"byteLength":496
	},
	{
		"buffer":4,
		"byteOffset":0,
		"byteLength":12,
		"target":34963
	},
	{
		"buffer":4,
		"byteOffset":12,
		"byteLength":120,
		"target":34962,
		"byteStride":20
	},
	{
		"buffer":5,
		"byteOffset":0,
		"byteLength":496
	},
	{
		"buffer":6,
		"byteOffset":0,
		"byteLength":12,
		"target":34963
	},
	{
		"buffer":6,
		"byteOffset":12,
		"byteLength":120,
		"target":34962,
		"byteStride":20
	},
	{
		"buffer":7,
		"byteOffset":0,
		"byteLength":496
	},
	{
		"buffer":8,
		"byteOffset":0,
		"byteLength":372,
		"target":34963
	},
	{
		"buffer":8,
		"byteOffset":372,
		"byteLength":3720,
		"target":34962,
		"byteStride":20
	}],
	"buffers":[{
		"uri":"data:application/octet-stream;base64,",
		"byteLength":132
	},
	{
		"uri":"data:application/octet-stream;base64,",
		"byteLength":496
	},
	{
		"uri":"data:application/octet-stream;base64,",
		"byteLength":132
	},
	{
		"uri":"data:application/octet-stream;base64,",
		"byteLength":496
	},
	{
		"uri":"data:application/octet-stream;base64,",
		"byteLength":132
	},
	{
		"uri":"data:application/octet-stream;base64,",
		"byteLength":496
	},
	{
		"uri":"data:application/octet-stream;base64,",
		"byteLength":132
	},
	{
		"uri":"data:application/octet-stream;base64,",
		"byteLength":496
	},
	{
		"uri":"data:application/octet-stream;base64,",
		"byteLength":4092
	}],
	"images":[{
		"uri":"data:image/png;base64,"
	}],
	"samplers":[{
		"magFilter":9729,
		"minFilter":9729,
		"wrapS":10497,
		"wrapT":10497
	}],
	"textures":[{
		"sampler":0,
		"source":0
	}],
	"materials":[{
		"alphaMode":"OPAQUE",
		"pbrMetallicRoughness":{
			"baseColorTexture":{
				"index":0
			},
			"baseColorFactor":[1.0,
			1.0,
			1.0,
			1.0],
			"metallicFactor":1.0,
			"roughnessFactor":1.0
		},
		"emissiveFactor":[0.0,
		0.0,
		0.0],
		"doubleSided":false,
		"name":"Mat"
	}],
	"animations":[{
		"samplers":[{
			"input":3,
			"interpolation":"LINEAR",
			"output":4
		},
		{
			"input":8,
			"interpolation":"LINEAR",
			"output":9
		},
		{
			"input":13,
			"interpolation":"LINEAR",
			"output":14
		},
		{
			"input":18,
			"interpolation":"LINEAR",
			"output":19
		}],
		"channels":[{
			"sampler":0,
			"target":{
				"node":0,
				"path":"translation"
			}
		},
		{
			"sampler":1,
			"target":{
				"node":1,
				"path":"translation"
			}
		},
		{
			"sampler":2,
			"target":{
				"node":2,
				"path":"translation"
			}
		},
		{
			"sampler":3,
			"target":{
				"node":3,
				"path":"translation"
			}
		}]
	}]
}