<svg width="100%" height="100%" version="1.1" xmlns="http://www.w3.org/2000/svg" desc="Created with imagetracer.js version 1.2.6" viewBox="0 0 78.75 140" style="display: block; object-fit: contain;"><path fill="rgb(194,194,252)" stroke="rgb(194,194,252)" stroke-width="1" opacity="0.996078431372549" d="M 0 0 L 29.5 0 L 31 1.5 L 30 5.5 L 32 14.5 L 31 20.5 L 34 32.5 L 38 38 L 46 43.5 L 47 47.5 L 45 46.5 L 45 44.5 L 40.5 40 L 37.5 39 L 34 40 L 33.5 38 L 31.5 38 L 20.5 37 L 14.5 38 L 5 44.5 L 3.5 49 L 2 49.5 L 8 52 L 9 56 L 11 56.5 L 9.5 57 L 7.5 57 L 2.5 55 Q 1.3 57.2 0 54.5 L 0 0 Z "></path><path fill="rgb(194,194,252)" stroke="rgb(194,194,252)" stroke-width="1" opacity="0.996078431372549" d="M 76.5 39 L 76 40.5 L 78 45.5 Q 74.8 46.9 76 52 L 69.5 52 L 69 50.5 L 72 49 L 76.5 39 Z "></path><path fill="rgb(194,194,252)" stroke="rgb(194,194,252)" stroke-width="1" opacity="0.996078431372549" d="M 52.5 50 L 56 51.5 L 54.5 52 L 52.5 50 Z "></path><path fill="rgb(194,194,252)" stroke="rgb(194,194,252)" stroke-width="1" opacity="0.996078431372549" d="M 66.5 50 Q 69.1 49.3 68 52 L 65 51.5 L 66.5 50 Z "></path><path fill="rgb(194,194,252)" stroke="rgb(194,194,252)" stroke-width="1" opacity="0.996078431372549" d="M 58.5 51 L 61 51.5 L 58.5 52 L 58.5 51 Z "></path><path fill="rgb(194,194,252)" stroke="rgb(194,194,252)" stroke-width="1" opacity="0.996078431372549" d="M 31.5 72 L 32 73.5 L 31 73.5 L 31.5 72 Z "></path><path fill="rgb(194,194,252)" stroke="rgb(194,194,252)" stroke-width="1" opacity="0.996078431372549" d="M 26.5 73 L 28 73.5 L 26.5 74 L 26.5 73 Z "></path><path fill="rgb(194,194,252)" stroke="rgb(194,194,252)" stroke-width="1" opacity="0.996078431372549" d="M 34.5 75 L 36 75.5 L 34.5 76 L 34.5 75 Z "></path><path fill="rgb(187,178,237)" stroke="rgb(187,178,237)" stroke-width="1" opacity="0.996078431372549" d="M 20.5 37 Q 28 35 30 38.5 L 17.5 39 L 13 43.5 L 9 51.5 L 11 55.5 L 9 56 L 8 52 L 2 49.5 L 5 47.5 Q 4.3 42.8 7.5 42 L 14.5 38 L 20.5 37 Z "></path><path fill="rgb(187,178,237)" stroke="rgb(187,178,237)" stroke-width="1" opacity="0.996078431372549" d="M 33.5 38 L 34 39.5 L 33 39.5 L 33.5 38 Z "></path><path fill="rgb(187,178,237)" stroke="rgb(187,178,237)" stroke-width="1" opacity="0.996078431372549" d="M 37.5 39 L 45 44.5 L 46 47.5 L 44.5 47 L 42 45.5 L 42 43.5 L 40.5 42 L 37 41 L 37.5 39 Z "></path><path fill="rgb(187,178,237)" stroke="rgb(187,178,237)" stroke-width="1" opacity="0.996078431372549" d="M 77.5 41 L 78 43 L 76 42.5 L 77.5 41 Z "></path><path fill="rgb(187,178,237)" stroke="rgb(187,178,237)" stroke-width="1" opacity="0.996078431372549" d="M 76.5 47 L 77 49.5 L 76 49.5 L 76.5 47 Z "></path><path fill="rgb(187,178,237)" stroke="rgb(187,178,237)" stroke-width="1" opacity="0.996078431372549" d="M 21.5 65 L 22 66.5 L 21 66.5 L 21.5 65 Z "></path><path fill="rgb(187,178,237)" stroke="rgb(187,178,237)" stroke-width="1" opacity="0.996078431372549" d="M 33.5 71 L 32.5 73 L 33.5 71 Z "></path><path fill="rgb(187,178,237)" stroke="rgb(187,178,237)" stroke-width="1" opacity="0.996078431372549" d="M 24.5 74 L 25.5 76 L 24.5 74 Z "></path><path fill="rgb(187,178,237)" stroke="rgb(187,178,237)" stroke-width="1" opacity="0.996078431372549" d="M 36.5 74 L 38 77.5 L 36 76.5 L 36.5 74 Z "></path><path fill="rgb(187,178,237)" stroke="rgb(187,178,237)" stroke-width="1" opacity="0.996078431372549" d="M 38.5 74 L 39 75.5 L 38 75.5 L 38.5 74 Z "></path><path fill="rgb(187,178,237)" stroke="rgb(187,178,237)" stroke-width="1" opacity="0.996078431372549" d="M 22.5 75 L 23 76.5 L 22 76.5 L 22.5 75 Z "></path><path fill="rgb(187,178,237)" stroke="rgb(187,178,237)" stroke-width="1" opacity="0.996078431372549" d="M 28.5 75 L 32 76.5 L 30.5 76 Q 27.5 76.5 28.5 75 Z "></path><path fill="rgb(187,178,237)" stroke="rgb(187,178,237)" stroke-width="1" opacity="0.996078431372549" d="M 41.5 75 L 43 75.5 L 41.5 76 L 41.5 75 Z "></path><path fill="rgb(187,178,237)" stroke="rgb(187,178,237)" stroke-width="1" opacity="0.996078431372549" d="M 25.5 80 L 27 80.5 L 26.5 82 L 29 83.5 L 26.5 87 L 24 86 L 23.5 84 Q 22.3 86.3 21 83.5 L 25.5 80 Z "></path><path fill="rgb(187,178,237)" stroke="rgb(187,178,237)" stroke-width="1" opacity="0.996078431372549" d="M 29.5 80 L 30.5 82 L 29.5 80 Z "></path><path fill="rgb(187,178,237)" stroke="rgb(187,178,237)" stroke-width="1" opacity="0.996078431372549" d="M 2.5 128 L 1.5 130 L 2.5 128 Z "></path><path fill="rgb(187,178,237)" stroke="rgb(187,178,237)" stroke-width="1" opacity="0.996078431372549" d="M 18.5 128 L 19 130.5 L 18 130.5 L 18.5 128 Z "></path><path fill="rgb(225,223,252)" stroke="rgb(225,223,252)" stroke-width="1" opacity="0.996078431372549" d="M 44 0 Q 48.8 -1.9 48 1.5 L 50 3.5 L 51 16.5 L 57 24.5 L 57 27.5 L 57 29.5 L 58 39.5 L 56 39.5 L 57 41.5 L 53.5 43 L 52.5 42 L 48.5 44 L 46 41.5 L 44.5 39 L 40 38 L 38 31.5 L 38 9.5 L 44 0 Z "></path><path fill="rgb(225,223,252)" stroke="rgb(225,223,252)" stroke-width="1" opacity="0.996078431372549" d="M 33.5 72 L 35.5 73 L 37.5 72 L 41 74 L 39.5 77 L 38.5 74 L 36.5 78 L 35 76.5 L 37 76.5 L 36.5 74 L 33.5 76 L 31 74.5 L 33.5 72 Z "></path><path fill="rgb(225,223,252)" stroke="rgb(225,223,252)" stroke-width="1" opacity="0.996078431372549" d="M 26.5 75 L 28 75.5 L 26.5 76 L 26.5 75 Z "></path><path fill="rgb(210,215,253)" stroke="rgb(210,215,253)" stroke-width="1" opacity="0.996078431372549" d="M 30.5 0 L 43.5 0 L 44 1.5 L 38 9.5 L 38 31.5 L 40 38 L 46 40.5 L 48.5 44 L 52.5 42 L 53.5 43 L 57 41.5 L 56 39.5 L 58 39.5 L 56 28.5 L 57 24.5 L 51 16.5 L 50 3.5 L 48 0 L 78 0 L 78 39.5 L 75 40.5 L 75 44.5 L 72 49 L 69 50.5 L 68.5 52 L 68 50 L 61.5 52 L 58.5 51 L 56.5 52 L 52.5 50 L 50.5 50 L 47 48.5 Q 46.9 42.1 42.5 40 L 38 38 Q 31 30.8 31 15.5 L 32 11.5 L 30 5.5 L 31 1.5 L 30.5 0 Z "></path><path fill="rgb(210,215,253)" stroke="rgb(210,215,253)" stroke-width="1" opacity="0.996078431372549" d="M 2.5 55 L 5 55.5 L 2.5 56 L 2.5 55 Z "></path><path fill="rgb(162,139,207)" stroke="rgb(162,139,207)" stroke-width="1" opacity="0.996078431372549" d="M 14.5 42 L 16 52.5 L 14 56 L 11.5 57 L 9 51.5 L 14.5 42 Z "></path><path fill="rgb(162,139,207)" stroke="rgb(162,139,207)" stroke-width="1" opacity="0.996078431372549" d="M 41.5 42 L 43 44.5 L 42.5 47 Q 39.8 45.8 41.5 42 Z "></path><path fill="rgb(162,139,207)" stroke="rgb(162,139,207)" stroke-width="1" opacity="0.996078431372549" d="M 77.5 48 L 78 53 Q 75 54.3 76 50.5 L 77.5 48 Z "></path><path fill="rgb(162,139,207)" stroke="rgb(162,139,207)" stroke-width="1" opacity="0.996078431372549" d="M 34 54 L 36 54.5 L 35 56.5 L 35.5 58 Q 32.1 58.8 34 54 Z "></path><path fill="rgb(162,139,207)" stroke="rgb(162,139,207)" stroke-width="1" opacity="0.996078431372549" d="M 0.5 56 L 5 56.5 L 0.5 57 L 0.5 56 Z "></path><path fill="rgb(162,139,207)" stroke="rgb(162,139,207)" stroke-width="1" opacity="0.996078431372549" d="M 7.5 57 L 9 57.5 L 7.5 58 L 7.5 57 Z "></path><path fill="rgb(162,139,207)" stroke="rgb(162,139,207)" stroke-width="1" opacity="0.996078431372549" d="M 26.5 61 L 28 61.5 L 26.5 62 L 26.5 61 Z "></path><path fill="rgb(162,139,207)" stroke="rgb(162,139,207)" stroke-width="1" opacity="0.996078431372549" d="M 35.5 61 L 36 62.5 L 35 62.5 L 35.5 61 Z "></path><path fill="rgb(162,139,207)" stroke="rgb(162,139,207)" stroke-width="1" opacity="0.996078431372549" d="M 24.5 62 L 24.5 65 L 23 65.5 L 24 67.5 L 18.5 71 L 15.5 73 L 13 72.5 L 15.5 68 Q 19.8 68.8 20.5 66 L 22 66.5 L 24.5 62 Z "></path><path fill="rgb(162,139,207)" stroke="rgb(162,139,207)" stroke-width="1" opacity="0.996078431372549" d="M 26.5 63 L 27.5 65 L 26.5 63 Z "></path><path fill="rgb(162,139,207)" stroke="rgb(162,139,207)" stroke-width="1" opacity="0.996078431372549" d="M 49.5 69 L 51 69.5 L 49.5 70 L 49.5 69 Z "></path><path fill="rgb(162,139,207)" stroke="rgb(162,139,207)" stroke-width="1" opacity="0.996078431372549" d="M 28.5 72 Q 31.5 73.5 28.5 75 L 26 74.5 L 28 74 L 28.5 72 Z "></path><path fill="rgb(162,139,207)" stroke="rgb(162,139,207)" stroke-width="1" opacity="0.996078431372549" d="M 24.5 75 L 23.5 77 L 24.5 75 Z "></path><path fill="rgb(162,139,207)" stroke="rgb(162,139,207)" stroke-width="1" opacity="0.996078431372549" d="M 31.5 75 L 32.5 77 L 31.5 75 Z "></path><path fill="rgb(162,139,207)" stroke="rgb(162,139,207)" stroke-width="1" opacity="0.996078431372549" d="M 24.5 78 L 27.5 79 Q 28.8 76.8 30 79.5 L 30 81.5 Q 31 86 28.5 87 L 27 85.5 Q 30.8 83.7 27.5 82 L 26 81.5 L 26.5 80 L 21.5 83 L 22 81.5 L 24.5 78 Z "></path><path fill="rgb(162,139,207)" stroke="rgb(162,139,207)" stroke-width="1" opacity="0.996078431372549" d="M 20.5 84 L 21 85.5 L 20 85.5 L 20.5 84 Z "></path><path fill="rgb(162,139,207)" stroke="rgb(162,139,207)" stroke-width="1" opacity="0.996078431372549" d="M 23.5 84 L 24 85.5 L 23 85.5 L 23.5 84 Z "></path><path fill="rgb(162,139,207)" stroke="rgb(162,139,207)" stroke-width="1" opacity="0.996078431372549" d="M 32.5 85 L 34 89 Q 30.2 90.2 32.5 85 Z "></path><path fill="rgb(162,139,207)" stroke="rgb(162,139,207)" stroke-width="1" opacity="0.996078431372549" d="M 16.5 113 L 16 114.5 Q 16.7 117.1 14 116 Q 12.9 113.3 15.5 114 L 16.5 113 Z "></path><path fill="rgb(162,139,207)" stroke="rgb(162,139,207)" stroke-width="1" opacity="0.996078431372549" d="M 56.5 116 L 56 117.5 L 54.5 120 L 55 118.5 L 56.5 116 Z "></path><path fill="rgb(162,139,207)" stroke="rgb(162,139,207)" stroke-width="1" opacity="0.996078431372549" d="M 57.5 123 L 56.5 125 L 57.5 123 Z "></path><path fill="rgb(162,139,207)" stroke="rgb(162,139,207)" stroke-width="1" opacity="0.996078431372549" d="M 3.5 124 L 4 128.5 L 0.5 131 L 0.5 130 L 2 129.5 L 1 128.5 L 3.5 124 Z "></path><path fill="rgb(162,139,207)" stroke="rgb(162,139,207)" stroke-width="1" opacity="0.996078431372549" d="M 14.5 129 Q 18.9 127.5 18 130.5 Q 20.3 131.8 17.5 133 L 15.5 132 L 13 133.5 L 14.5 129 Z "></path><path fill="rgb(189,10,98)" stroke="rgb(189,10,98)" stroke-width="1" opacity="0.996078431372549" d="M 30.5 69 L 32 69.5 L 30.5 70 L 30.5 69 Z "></path><path fill="rgb(189,10,98)" stroke="rgb(189,10,98)" stroke-width="1" opacity="0.996078431372549" d="M 40.5 71 L 42 71.5 L 40.5 72 L 40.5 71 Z "></path><path fill="rgb(189,10,98)" stroke="rgb(189,10,98)" stroke-width="1" opacity="0.996078431372549" d="M 5.5 108 L 15 113.5 L 13 114.5 Q 16.2 118 22 118 Q 22.1 122.9 18.5 125 L 15.5 126 L 6 117.5 L 4 109.5 L 5.5 108 Z M 13 116 Q 11 120 15 121 L 16 119 L 13 116 Z M 16 121 L 15 123 L 16 123 L 16 121 Z "></path><path fill="rgb(136,79,125)" stroke="rgb(136,79,125)" stroke-width="1" opacity="0.996078431372549" d="M 64.5 51 L 65 52.5 L 62 53.5 L 61.5 56 L 59 54.5 L 57 60 L 54 58.5 L 51 53.5 L 53.5 52 L 54.5 54 L 55 52 L 57.5 53 L 59.5 53 L 62.5 52 L 64 52.5 L 64.5 51 Z M 57 53 L 54 56 L 55 57 L 58 56 L 57 53 Z "></path><path fill="rgb(136,79,125)" stroke="rgb(136,79,125)" stroke-width="1" opacity="0.996078431372549" d="M 38 54 L 43.5 54 L 48 57 Q 46.9 54.3 49.5 55 Q 52.3 56.3 50 57.5 L 52 64 L 55 64.5 L 52 66.5 Q 53.3 70.3 49.5 69 L 49.5 71 L 48.5 70 L 45 73.5 L 43.5 76 L 43 74 L 38 71.5 L 39.5 71 L 42 72 L 41 66 L 43 65.5 L 39 64 L 40 67.5 L 39.5 70 L 37.5 70 L 34 71 Q 33 65.3 36.5 63 L 38 63.5 L 39 61.5 L 36 57.5 L 37.5 58 L 39 57.5 L 38 54 Z M 39 58 L 41 61 L 43 60 L 39 58 Z M 38 65 L 37 67 L 38 67 L 38 65 Z M 46 66 L 42 70 L 44 71 L 46 68 L 47 70 L 48 68 L 46 66 Z M 46 70 L 45 72 L 46 72 L 46 70 Z "></path><path fill="rgb(136,79,125)" stroke="rgb(136,79,125)" stroke-width="1" opacity="0.996078431372549" d="M 73.5 55 L 75 55.5 L 72.5 57 L 73.5 55 Z "></path><path fill="rgb(136,79,125)" stroke="rgb(136,79,125)" stroke-width="1" opacity="0.996078431372549" d="M 69.5 56 L 71 56.5 L 69.5 57 L 69.5 56 Z "></path><path fill="rgb(136,79,125)" stroke="rgb(136,79,125)" stroke-width="1" opacity="0.996078431372549" d="M 59.5 57 L 60.5 59 L 59.5 57 Z "></path><path fill="rgb(136,79,125)" stroke="rgb(136,79,125)" stroke-width="1" opacity="0.996078431372549" d="M 1.5 58 L 3 58.5 L 1.5 59 L 1.5 58 Z "></path><path fill="rgb(136,79,125)" stroke="rgb(136,79,125)" stroke-width="1" opacity="0.996078431372549" d="M 68.5 60 L 69 61.5 L 68 61.5 L 68.5 60 Z "></path><path fill="rgb(136,79,125)" stroke="rgb(136,79,125)" stroke-width="1" opacity="0.996078431372549" d="M 33.5 63 L 34 65 L 32 64.5 L 33.5 63 Z "></path><path fill="rgb(136,79,125)" stroke="rgb(136,79,125)" stroke-width="1" opacity="0.996078431372549" d="M 62.5 63 L 63.5 65 Q 60.7 65.7 62.5 63 Z "></path><path fill="rgb(136,79,125)" stroke="rgb(136,79,125)" stroke-width="1" opacity="0.996078431372549" d="M 28.5 65 L 31 68.5 L 30.5 70 L 32 70.5 L 28.5 72 L 26.5 71 L 21.5 72 L 15.5 77 L 16 75.5 L 18.5 72 L 21.5 70 L 23.5 71 L 25 67 L 28.5 69 L 29 66.5 L 28.5 65 Z M 27 68 L 26 70 L 27 70 L 27 68 Z "></path><path fill="rgb(136,79,125)" stroke="rgb(136,79,125)" stroke-width="1" opacity="0.996078431372549" d="M 64.5 66 L 66 67.5 L 73 78.5 L 72 80.5 L 73 84.5 L 71.5 84 Q 62.1 82.9 57.5 77 L 52.5 77 L 52.5 78 L 57 80.5 L 54.5 85 L 50.5 84 L 47 85.5 L 58 90 L 59 92.5 L 55.5 96 L 53.5 96 L 49.5 98 L 47.5 97 L 45.5 99 L 40.5 100 L 38.5 99 L 36.5 100 L 35 97 L 31.5 98 L 32.5 96 L 35.5 97 L 43 91.5 Q 44.5 85.5 41.5 84 Q 35 85.5 33.5 82 Q 32.3 84.3 31 81.5 L 33 80.5 L 29 78.5 L 30.5 77 L 32.5 77 L 35 77.5 L 33 78.5 L 35.5 79 L 39.5 78 Q 40.8 80.3 42 77.5 L 41.5 76 Q 43.5 80 45.5 76 L 48.5 74 L 50.5 74 Q 55.8 75.3 57 72.5 L 56 69.5 L 57.5 68 L 61.5 72 L 65 68.5 L 64.5 66 Z M 47 77 L 47 78 L 50 78 L 47 77 Z M 35 80 L 35 81 L 36 81 L 35 80 Z M 44 80 L 44 84 L 46 83 L 46 85 L 49 83 L 44 80 Z M 43 81 L 42 83 L 43 83 L 43 81 Z "></path><path fill="rgb(136,79,125)" stroke="rgb(136,79,125)" stroke-width="1" opacity="0.996078431372549" d="M 32.5 67 L 33 68.5 L 32 68.5 L 32.5 67 Z "></path><path fill="rgb(136,79,125)" stroke="rgb(136,79,125)" stroke-width="1" opacity="0.996078431372549" d="M 74.5 85 L 75 86.5 L 74 86.5 L 74.5 85 Z "></path><path fill="rgb(136,79,125)" stroke="rgb(136,79,125)" stroke-width="1" opacity="0.996078431372549" d="M 16.5 87 L 17 88.5 L 16 88.5 L 16.5 87 Z "></path><path fill="rgb(136,79,125)" stroke="rgb(136,79,125)" stroke-width="1" opacity="0.996078431372549" d="M 13.5 88 L 12.5 90 L 13.5 88 Z "></path><path fill="rgb(136,79,125)" stroke="rgb(136,79,125)" stroke-width="1" opacity="0.996078431372549" d="M 64.5 88 L 67 89.5 L 65.5 89 L 64.5 88 Z "></path><path fill="rgb(136,79,125)" stroke="rgb(136,79,125)" stroke-width="1" opacity="0.996078431372549" d="M 66.5 91 L 67.5 93 L 65.5 94 L 66 92.5 L 66.5 91 Z "></path><path fill="rgb(136,79,125)" stroke="rgb(136,79,125)" stroke-width="1" opacity="0.996078431372549" d="M 69.5 93 L 70 95.5 L 69 95.5 L 69.5 93 Z "></path><path fill="rgb(136,79,125)" stroke="rgb(136,79,125)" stroke-width="1" opacity="0.996078431372549" d="M 14.5 94 L 29 95 L 27.5 99 Q 23.2 94.8 14.5 95 L 14.5 94 Z "></path><path fill="rgb(136,79,125)" stroke="rgb(136,79,125)" stroke-width="1" opacity="0.996078431372549" d="M 5.5 99 L 7 99.5 L 5.5 100 L 5.5 99 Z "></path><path fill="rgb(136,79,125)" stroke="rgb(136,79,125)" stroke-width="1" opacity="0.996078431372549" d="M 0 102 L 11.5 104 L 18 108.5 L 19.5 110 L 22 114 L 30.5 117 L 33 115.5 L 32.5 114 L 33.5 115 L 36.5 112 L 38 110.5 L 38.5 108 L 40 108.5 L 39 104.5 L 40.5 104 L 46.5 105 L 48 102 L 55 106.5 L 53 112.5 L 55.5 111 L 57.5 110 L 59 113.5 Q 57.3 111.9 55.5 115 Q 52.9 114.2 54 117.5 L 53 120 L 50 121.5 L 51.5 122 L 53 121.5 L 49.5 124 L 49 121.5 Q 50.5 117.1 47.5 118 L 43.5 121 L 40 118.5 L 41 110.5 L 35.5 115 Q 32.5 120 25.5 121 L 18 115.5 Q 19.5 111.1 16.5 112 L 13.5 113 L 8 108.5 L 7.5 107 Q 6 109.5 4.5 106 L 3 105.5 L 3.5 104 L 1.5 103 L 0 103.5 L 0 102 Z M 50 109 L 48 110 L 46 113 L 50 112 L 50 109 Z M 13 110 L 13 112 L 16 112 L 13 110 Z M 53 113 L 51 115 L 53 115 L 53 113 Z "></path><path fill="rgb(136,79,125)" stroke="rgb(136,79,125)" stroke-width="1" opacity="0.996078431372549" d="M 76.5 108 Q 79.3 109.4 78 114 L 75 112.5 L 77 111.5 L 76.5 108 Z "></path><path fill="rgb(136,79,125)" stroke="rgb(136,79,125)" stroke-width="1" opacity="0.996078431372549" d="M 74.5 115 Q 79.3 113.3 78 117.5 L 76.5 117 L 73.5 118 L 70 116.5 L 74.5 115 Z "></path><path fill="rgb(136,79,125)" stroke="rgb(136,79,125)" stroke-width="1" opacity="0.996078431372549" d="M 67.5 117 L 69 117.5 L 65.5 120 L 65 118 L 67.5 117 Z "></path><path fill="rgb(136,79,125)" stroke="rgb(136,79,125)" stroke-width="1" opacity="0.996078431372549" d="M 70.5 118 L 71.5 121 L 72.5 119 L 73 121 L 75 120.5 L 74.5 119 Q 76.3 122.1 78 120.5 L 78 122.5 L 77 125.5 L 78 130.5 L 76.5 130 Q 73.5 129.3 75 133 L 77.5 132 L 78 139.5 L 75.5 140 L 74 138.5 L 73 136 L 75 135.5 L 73 135 Q 74.1 132.3 71.5 133 L 71.5 135 L 70 130.5 L 70.5 129 L 67.5 128 L 68 129.5 L 69 131.5 L 66 131.5 L 67 129 L 65 129 L 65 134 Q 62.3 132.9 63 135.5 L 65 135.5 L 63.5 140 L 59.5 140 L 56 138.5 L 53 133.5 L 55 131.5 L 53.5 129 L 55 128.5 Q 52.2 126.8 56.5 125 L 58 129.5 L 56.5 129 Q 53.9 128.3 55 131 L 58.5 132 L 60 129.5 L 59.5 126 Q 64.3 126.8 65 123.5 L 63.5 123 L 62 123.5 Q 61.2 120.9 64.5 122 L 66 121.5 L 66.5 123 L 67 120 L 70.5 118 Z M 70 120 L 68 122 L 69 124 L 70 122 L 70 120 Z M 73 121 L 72 123 L 73 123 L 73 121 Z M 68 124 L 67 126 L 68 126 L 68 124 Z M 55 132 L 55 135 L 58 135 Q 59 130 55 132 Z M 57 137 L 57 139 L 60 139 L 57 137 Z "></path><path fill="rgb(136,79,125)" stroke="rgb(136,79,125)" stroke-width="1" opacity="0.996078431372549" d="M 7.5 119 L 19 127.5 L 16.5 129 L 13 128.5 L 13 131 Q 10 130 11 133 L 15.5 134 L 17 133.5 L 14 135 L 13.5 138 L 9.5 135 L 9 137.5 L 10 140 Q 2.8 141.2 0 138 L 1 132 L 4 132.5 L 2 133 L 3.5 136 L 6 135.5 L 5 132 L 8 131.5 L 6 131 L 7 128.5 L 7 126.5 L 7.5 119 Z "></path><path fill="rgb(136,79,125)" stroke="rgb(136,79,125)" stroke-width="1" opacity="0.996078431372549" d="M 59.5 120 Q 62.1 119.2 61 122.5 L 59.5 125 Q 57.8 121.9 56 123.5 L 60 121.5 L 59.5 120 Z "></path><path fill="rgb(136,79,125)" stroke="rgb(136,79,125)" stroke-width="1" opacity="0.996078431372549" d="M 62.5 120 L 64 120.5 L 62.5 121 L 62.5 120 Z "></path><path fill="rgb(136,79,125)" stroke="rgb(136,79,125)" stroke-width="1" opacity="0.996078431372549" d="M 52.5 135 L 51.5 137 L 52.5 135 Z "></path><path fill="rgb(149,105,162)" stroke="rgb(149,105,162)" stroke-width="1" opacity="0.996078431372549" d="M 19.5 40 L 24 41.5 L 20 44 L 21 41.5 L 19 41 L 18.5 43 L 18 41.5 L 19.5 40 Z "></path><path fill="rgb(149,105,162)" stroke="rgb(149,105,162)" stroke-width="1" opacity="0.996078431372549" d="M 77.5 46 L 78 47.5 L 77 47.5 L 77.5 46 Z "></path><path fill="rgb(149,105,162)" stroke="rgb(149,105,162)" stroke-width="1" opacity="0.996078431372549" d="M 15.5 50 L 16 51.5 L 15 51.5 L 15.5 50 Z "></path><path fill="rgb(149,105,162)" stroke="rgb(149,105,162)" stroke-width="1" opacity="0.996078431372549" d="M 49 52 L 53 52.5 L 51 53.5 L 53 57.5 L 52 57.5 L 50.5 56 L 49 52 Z "></path><path fill="rgb(149,105,162)" stroke="rgb(149,105,162)" stroke-width="1" opacity="0.996078431372549" d="M 63.5 52 L 65.5 52 L 70.5 53 L 72.5 53 Q 80.3 50.3 78 57.5 L 75.5 61 L 75 59.5 L 76 58.5 L 74.5 56 L 76 56.5 L 77 54.5 L 75.5 54 L 70.5 56 L 69 55.5 Q 70.7 60.3 66.5 59 L 66.5 58 L 68 57.5 L 65 57 L 64.5 54 L 62 55.5 Q 65.1 53.8 63.5 52 Z "></path><path fill="rgb(149,105,162)" stroke="rgb(149,105,162)" stroke-width="1" opacity="0.996078431372549" d="M 15.5 53 L 16 57 L 12 56.5 L 14 56 L 15.5 53 Z "></path><path fill="rgb(149,105,162)" stroke="rgb(149,105,162)" stroke-width="1" opacity="0.996078431372549" d="M 34.5 53 L 38 54 L 39 57.5 L 37.5 58 L 35 57 L 36 54.5 L 34.5 53 Z "></path><path fill="rgb(149,105,162)" stroke="rgb(149,105,162)" stroke-width="1" opacity="0.996078431372549" d="M 55.5 54 Q 59.3 53 58 56 L 55.5 55 L 54 55.5 L 55.5 54 Z "></path><path fill="rgb(149,105,162)" stroke="rgb(149,105,162)" stroke-width="1" opacity="0.996078431372549" d="M 59.5 55 L 61 55.5 L 59.5 56 L 59.5 55 Z "></path><path fill="rgb(149,105,162)" stroke="rgb(149,105,162)" stroke-width="1" opacity="0.996078431372549" d="M 0 57 L 7 57.5 L 0.5 59 L 0 57 Z "></path><path fill="rgb(149,105,162)" stroke="rgb(149,105,162)" stroke-width="1" opacity="0.996078431372549" d="M 17.5 57 L 15.5 60 L 15 58 L 17.5 57 Z "></path><path fill="rgb(149,105,162)" stroke="rgb(149,105,162)" stroke-width="1" opacity="0.996078431372549" d="M 50.5 57 L 51 59 Q 57.9 59.3 62 63.5 Q 61.2 66.1 64.5 65 L 65 67.5 L 61.5 72 L 57.5 68 L 56 69.5 L 57 72.5 Q 55.8 75.3 50.5 74 L 48.5 76 L 48.5 74 Q 45.2 75.1 46 72.5 L 45.5 71 L 46.5 72 L 49 70.5 L 49.5 72 L 53.5 65 L 55 64.5 L 52 64 L 50.5 57 Z "></path><path fill="rgb(149,105,162)" stroke="rgb(149,105,162)" stroke-width="1" opacity="0.996078431372549" d="M 60.5 57 L 62 57.5 L 60.5 58 L 60.5 57 Z "></path><path fill="rgb(149,105,162)" stroke="rgb(149,105,162)" stroke-width="1" opacity="0.996078431372549" d="M 72.5 57 L 73.5 59 L 72.5 57 Z "></path><path fill="rgb(149,105,162)" stroke="rgb(149,105,162)" stroke-width="1" opacity="0.996078431372549" d="M 33.5 58 L 36 59 Q 34.8 62 38.5 61 L 38.5 62 L 37 62.5 L 37.5 64 Q 36.3 61.8 35 64.5 L 31.5 72 L 32 70.5 L 31 68.5 L 33 68.5 L 32.5 66 L 30.5 67 L 26 63.5 L 29 68.5 L 25 66.5 L 23.5 71 Q 20.3 69.3 24 67.5 L 23 65.5 L 25 65.5 L 24 63.5 L 25.5 61 L 28 62 Q 26.9 59.3 29.5 60 L 33.5 58 Z M 36 61 L 35 63 L 36 63 L 36 61 Z M 34 63 L 32 65 L 34 65 L 34 63 Z "></path><path fill="rgb(149,105,162)" stroke="rgb(149,105,162)" stroke-width="1" opacity="0.996078431372549" d="M 14.5 61 L 17 67 L 19.5 66 L 18.5 68 Q 13.7 69.7 15 65.5 L 14.5 61 Z "></path><path fill="rgb(149,105,162)" stroke="rgb(149,105,162)" stroke-width="1" opacity="0.996078431372549" d="M 10.5 63 L 11.5 65 L 10.5 63 Z "></path><path fill="rgb(149,105,162)" stroke="rgb(149,105,162)" stroke-width="1" opacity="0.996078431372549" d="M 20.5 69 L 21 70.5 L 16 74.5 L 14.5 76 L 13 73.5 L 17.5 71 L 20.5 69 Z "></path><path fill="rgb(149,105,162)" stroke="rgb(149,105,162)" stroke-width="1" opacity="0.996078431372549" d="M 38.5 69 L 41.5 70 L 43.5 69 L 43.5 70 L 38 71 L 38.5 69 Z "></path><path fill="rgb(149,105,162)" stroke="rgb(149,105,162)" stroke-width="1" opacity="0.996078431372549" d="M 34.5 71 L 37 71.5 L 34.5 72 L 34.5 71 Z "></path><path fill="rgb(149,105,162)" stroke="rgb(149,105,162)" stroke-width="1" opacity="0.996078431372549" d="M 26.5 72 L 26 73.5 L 25.5 75 L 25 73.5 L 26.5 72 Z "></path><path fill="rgb(149,105,162)" stroke="rgb(149,105,162)" stroke-width="1" opacity="0.996078431372549" d="M 39.5 73 L 42 74.5 L 40.5 74 L 39.5 73 Z "></path><path fill="rgb(149,105,162)" stroke="rgb(149,105,162)" stroke-width="1" opacity="0.996078431372549" d="M 44.5 75 L 44 76.5 L 43.5 78 L 43 76.5 L 44.5 75 Z "></path><path fill="rgb(149,105,162)" stroke="rgb(149,105,162)" stroke-width="1" opacity="0.996078431372549" d="M 28.5 76 L 29 78 L 25 77.5 L 28.5 76 Z "></path><path fill="rgb(149,105,162)" stroke="rgb(149,105,162)" stroke-width="1" opacity="0.996078431372549" d="M 38.5 77 Q 41.8 75.9 41 78.5 L 39.5 78 L 38.5 77 Z "></path><path fill="rgb(149,105,162)" stroke="rgb(149,105,162)" stroke-width="1" opacity="0.996078431372549" d="M 33.5 78 L 36 78.5 L 33.5 79 L 33.5 78 Z "></path><path fill="rgb(149,105,162)" stroke="rgb(149,105,162)" stroke-width="1" opacity="0.996078431372549" d="M 43.5 80 L 49 82.5 L 46.5 84 L 44 83 L 43.5 81 L 42 81.5 L 43.5 80 Z "></path><path fill="rgb(149,105,162)" stroke="rgb(149,105,162)" stroke-width="1" opacity="0.996078431372549" d="M 19.5 81 L 18 83.5 L 16 88 L 13 87.5 L 15 87 L 19.5 81 Z "></path><path fill="rgb(149,105,162)" stroke="rgb(149,105,162)" stroke-width="1" opacity="0.996078431372549" d="M 30 82 L 32.5 83 Q 34 80.5 35.5 84 Q 41.5 82.5 43 85.5 Q 44.5 94.5 38.5 96 L 35.5 97 L 32.5 96 Q 31.3 98.3 30 95.5 L 29 90.5 Q 31.3 89.3 28.5 88 Q 27.2 90.2 26 87.5 L 30 85.5 L 30 82 Z M 33 85 Q 30 90 34 89 L 33 85 Z "></path><path fill="rgb(149,105,162)" stroke="rgb(149,105,162)" stroke-width="1" opacity="0.996078431372549" d="M 21.5 85 L 23 85.5 L 21.5 86 L 21.5 85 Z "></path><path fill="rgb(149,105,162)" stroke="rgb(149,105,162)" stroke-width="1" opacity="0.996078431372549" d="M 23.5 90 L 28 91.5 L 28 95 L 21.5 95 L 14.5 94 L 11.5 96 L 11.5 95 L 23.5 90 Z "></path><path fill="rgb(149,105,162)" stroke="rgb(149,105,162)" stroke-width="1" opacity="0.996078431372549" d="M 66.5 90 L 74 95.5 L 76 98.5 L 76.5 100 L 69 97.5 L 70 93.5 L 68 93.5 L 66.5 90 Z "></path><path fill="rgb(149,105,162)" stroke="rgb(149,105,162)" stroke-width="1" opacity="0.996078431372549" d="M 66.5 95 L 68 98 Q 64.5 99.1 66.5 95 Z "></path><path fill="rgb(149,105,162)" stroke="rgb(149,105,162)" stroke-width="1" opacity="0.996078431372549" d="M 45.5 101 L 48 102 L 46.5 105 Q 41.1 105.9 39 103.5 L 45.5 101 Z "></path><path fill="rgb(149,105,162)" stroke="rgb(149,105,162)" stroke-width="1" opacity="0.996078431372549" d="M 1.5 103 L 4 104.5 L 2.5 105 L 1.5 103 Z "></path><path fill="rgb(149,105,162)" stroke="rgb(149,105,162)" stroke-width="1" opacity="0.996078431372549" d="M 51.5 104 L 52.5 106 L 51.5 104 Z "></path><path fill="rgb(149,105,162)" stroke="rgb(149,105,162)" stroke-width="1" opacity="0.996078431372549" d="M 6.5 106 L 7.5 108 L 6.5 106 Z "></path><path fill="rgb(149,105,162)" stroke="rgb(149,105,162)" stroke-width="1" opacity="0.996078431372549" d="M 11.5 108 L 18 112.5 L 16 113.5 L 18 114.5 L 16 115.5 L 15 113.5 L 15.5 112 Q 12.2 113.1 13 110.5 L 11.5 108 Z "></path><path fill="rgb(149,105,162)" stroke="rgb(149,105,162)" stroke-width="1" opacity="0.996078431372549" d="M 49.5 109 L 50 111.5 L 45.5 113 L 47.5 110 L 49.5 109 Z "></path><path fill="rgb(149,105,162)" stroke="rgb(149,105,162)" stroke-width="1" opacity="0.996078431372549" d="M 57.5 113 L 58 116 L 56 116.5 L 56.5 118 L 55 117.5 L 56 119.5 L 53.5 122 L 51 121.5 L 53 118.5 L 54 115 L 57.5 113 Z "></path><path fill="rgb(149,105,162)" stroke="rgb(149,105,162)" stroke-width="1" opacity="0.996078431372549" d="M 76.5 114 L 78 114.5 L 76.5 115 L 76.5 114 Z "></path><path fill="rgb(149,105,162)" stroke="rgb(149,105,162)" stroke-width="1" opacity="0.996078431372549" d="M 68.5 115 L 69.5 117 Q 68 114.5 66.5 118 L 64.5 119 L 64 117 L 68.5 115 Z "></path><path fill="rgb(149,105,162)" stroke="rgb(149,105,162)" stroke-width="1" opacity="0.996078431372549" d="M 72.5 115 L 74 115.5 L 72.5 116 L 72.5 115 Z "></path><path fill="rgb(149,105,162)" stroke="rgb(149,105,162)" stroke-width="1" opacity="0.996078431372549" d="M 76.5 118 L 78 121.5 L 76 120.5 L 76.5 118 Z "></path><path fill="rgb(149,105,162)" stroke="rgb(149,105,162)" stroke-width="1" opacity="0.996078431372549" d="M 3 120 Q 6 118.8 5 122.5 L 2 124.5 L 3 120 Z "></path><path fill="rgb(149,105,162)" stroke="rgb(149,105,162)" stroke-width="1" opacity="0.996078431372549" d="M 73.5 120 L 75 120.5 L 72.5 122 L 73.5 120 Z "></path><path fill="rgb(149,105,162)" stroke="rgb(149,105,162)" stroke-width="1" opacity="0.996078431372549" d="M 68.5 121 L 70 121.5 L 68.5 122 L 68.5 121 Z "></path><path fill="rgb(149,105,162)" stroke="rgb(149,105,162)" stroke-width="1" opacity="0.996078431372549" d="M 49.5 122 L 50.5 124 L 48 123.5 L 49.5 122 Z "></path><path fill="rgb(149,105,162)" stroke="rgb(149,105,162)" stroke-width="1" opacity="0.996078431372549" d="M 63.5 123 L 64 124.5 L 63 124.5 L 63.5 123 Z "></path><path fill="rgb(149,105,162)" stroke="rgb(149,105,162)" stroke-width="1" opacity="0.996078431372549" d="M 68.5 123 L 69.5 125 L 68.5 123 Z "></path><path fill="rgb(149,105,162)" stroke="rgb(149,105,162)" stroke-width="1" opacity="0.996078431372549" d="M 61.5 124 L 62 126 L 60 125.5 L 61.5 124 Z "></path><path fill="rgb(149,105,162)" stroke="rgb(149,105,162)" stroke-width="1" opacity="0.996078431372549" d="M 76.5 124 L 77.5 126 L 76.5 124 Z "></path><path fill="rgb(149,105,162)" stroke="rgb(149,105,162)" stroke-width="1" opacity="0.996078431372549" d="M 2.5 126 L 1.5 128 L 2.5 126 Z "></path><path fill="rgb(149,105,162)" stroke="rgb(149,105,162)" stroke-width="1" opacity="0.996078431372549" d="M 4.5 126 L 5 127.5 L 4 127.5 L 4.5 126 Z "></path><path fill="rgb(149,105,162)" stroke="rgb(149,105,162)" stroke-width="1" opacity="0.996078431372549" d="M 16.5 127 L 15.5 129 L 16.5 127 Z "></path><path fill="rgb(149,105,162)" stroke="rgb(149,105,162)" stroke-width="1" opacity="0.996078431372549" d="M 59.5 127 L 60 129.5 L 57.5 135 L 57 132.5 L 58 129.5 L 59.5 127 Z "></path><path fill="rgb(149,105,162)" stroke="rgb(149,105,162)" stroke-width="1" opacity="0.996078431372549" d="M 5.5 130 L 8 131.5 L 5 132 L 6 135.5 L 3.5 136 L 2 133 L 5 131.5 L 5.5 130 Z "></path><path fill="rgb(149,105,162)" stroke="rgb(149,105,162)" stroke-width="1" opacity="0.996078431372549" d="M 52.5 131 L 54.5 137 L 56 136.5 L 53 138 L 52.5 131 Z "></path><path fill="rgb(149,105,162)" stroke="rgb(149,105,162)" stroke-width="1" opacity="0.996078431372549" d="M 64.5 134 L 63.5 136 L 64.5 134 Z "></path><path fill="rgb(149,105,162)" stroke="rgb(149,105,162)" stroke-width="1" opacity="0.996078431372549" d="M 67.5 134 L 68 135.5 L 67 135.5 L 67.5 134 Z "></path><path fill="rgb(149,105,162)" stroke="rgb(149,105,162)" stroke-width="1" opacity="0.996078431372549" d="M 72.5 134 L 73.5 136 L 72.5 134 Z "></path><path fill="rgb(149,105,162)" stroke="rgb(149,105,162)" stroke-width="1" opacity="0.996078431372549" d="M 6.5 137 L 7.5 139 L 6.5 137 Z "></path><path fill="rgb(149,105,162)" stroke="rgb(149,105,162)" stroke-width="1" opacity="0.996078431372549" d="M 58.5 137 L 59 139 L 57 138.5 L 58.5 137 Z "></path><path fill="rgb(149,105,162)" stroke="rgb(149,105,162)" stroke-width="1" opacity="0.996078431372549" d="M 72.5 137 L 74 140 L 69 138.5 Q 70.8 140.1 72.5 137 Z "></path><path fill="rgb(149,105,162)" stroke="rgb(149,105,162)" stroke-width="1" opacity="0.996078431372549" d="M 0.5 138 L 3 139.5 L 1.5 140 L 0.5 138 Z "></path><path fill="rgb(149,105,162)" stroke="rgb(149,105,162)" stroke-width="1" opacity="0.996078431372549" d="M 61.5 138 L 60.5 140 L 61.5 138 Z "></path><path fill="rgb(65,56,120)" stroke="rgb(65,56,120)" stroke-width="1" opacity="0.996078431372549" d="M 30.5 38 L 41 42 Q 38.4 48.7 44.5 47 L 47 48 Q 45.7 51.3 50.5 50 L 51.5 52 Q 47.8 50.8 49 54.5 L 48 57 L 43.5 54 L 34 53 L 34 58 L 36.5 58 L 36.5 59 L 32.5 58 L 23 62.5 L 21.5 64 L 23 61.5 L 23 60 L 20 60 Q 21 57 18 58 L 21 65.5 L 17 67 L 15 60.5 L 16.5 58 L 14 59.5 L 12.5 61 L 12.5 62 Q 15.1 61.2 14 64.5 L 15 68.5 L 13 76 Q 16 75 15 78 Q 10.1 77.9 8 81.5 L 6.5 84 L 4.5 84 L 0 85 L 0 59.5 L 2.5 59 Q 8.4 56.1 17 57 Q 14.3 51.9 15 42.5 L 17.5 39 L 29.5 39 L 30.5 38 Z M 20 40 L 21 42 L 20 44 L 24 42 L 20 40 Z M 19 41 L 18 43 L 19 43 L 19 41 Z M 31 49 L 32 51 L 33 51 L 31 49 Z M 41 50 L 40 52 L 43 52 L 41 50 Z M 20 55 L 19 57 L 20 57 L 20 55 Z M 11 63 L 12 65 L 11 63 Z "></path><path fill="rgb(65,56,120)" stroke="rgb(65,56,120)" stroke-width="1" opacity="0.996078431372549" d="M 62.5 53 L 63.5 55 L 65 54.5 Q 63.9 57.8 66.5 57 L 66.5 59 L 69 59 Q 67.9 56.3 70.5 57 L 72 56.5 Q 70.9 59.8 73.5 59 L 73.5 57 L 76.5 59 L 78 58.5 L 77 61.5 L 78 66.5 L 78 68.5 Q 79.3 75.8 75.5 78 L 75 75.5 L 75 73.5 Q 73.1 68.1 76.5 69 L 77 66.5 L 73.5 63 L 72 67 Q 69.3 65.9 70 68.5 L 71.5 68 L 73.5 67 L 73 68.5 L 74 72.5 L 72.5 72 L 71 72.5 L 73 75.5 L 71 76.5 L 71 74.5 L 70 71 Q 67.3 72.1 68 69.5 L 65 65.5 L 65.5 64 L 57 61 L 58 56 L 63 55.5 L 62.5 53 Z M 60 57 Q 60 61 62 58 L 60 57 Z M 75 59 L 76 61 L 75 59 Z M 69 60 L 68 62 L 69 62 L 69 60 Z "></path><path fill="rgb(65,56,120)" stroke="rgb(65,56,120)" stroke-width="1" opacity="0.996078431372549" d="M 75 54 L 77 54.5 L 75 55.5 L 75 54 Z "></path><path fill="rgb(65,56,120)" stroke="rgb(65,56,120)" stroke-width="1" opacity="0.996078431372549" d="M 55.5 55 L 54 57.5 L 54.5 59 L 56 58.5 Q 54.5 61.5 53 58.5 L 55.5 55 Z "></path><path fill="rgb(65,56,120)" stroke="rgb(65,56,120)" stroke-width="1" opacity="0.996078431372549" d="M 51.5 56 L 52 58.5 L 51 58.5 L 51.5 56 Z "></path><path fill="rgb(65,56,120)" stroke="rgb(65,56,120)" stroke-width="1" opacity="0.996078431372549" d="M 39 64 Q 42.3 62.7 41 67.5 L 40 67.5 L 39 64 Z "></path><path fill="rgb(65,56,120)" stroke="rgb(65,56,120)" stroke-width="1" opacity="0.996078431372549" d="M 37.5 65 L 38 66.5 L 37 66.5 L 37.5 65 Z "></path><path fill="rgb(65,56,120)" stroke="rgb(65,56,120)" stroke-width="1" opacity="0.996078431372549" d="M 26.5 71 L 23.5 75 L 22 74.5 L 20.5 77 L 18.5 77 L 17 76.5 L 21.5 72 L 26.5 71 Z "></path><path fill="rgb(65,56,120)" stroke="rgb(65,56,120)" stroke-width="1" opacity="0.996078431372549" d="M 24.5 76 L 25 77.5 L 24 77.5 L 24.5 76 Z "></path><path fill="rgb(65,56,120)" stroke="rgb(65,56,120)" stroke-width="1" opacity="0.996078431372549" d="M 72.5 79 L 73.5 81 Q 70.7 81.7 72.5 79 Z "></path><path fill="rgb(65,56,120)" stroke="rgb(65,56,120)" stroke-width="1" opacity="0.996078431372549" d="M 30.5 80 L 32 80.5 L 30.5 81 L 30.5 80 Z "></path><path fill="rgb(65,56,120)" stroke="rgb(65,56,120)" stroke-width="1" opacity="0.996078431372549" d="M 17.5 82 L 16.5 84 L 17.5 82 Z "></path><path fill="rgb(65,56,120)" stroke="rgb(65,56,120)" stroke-width="1" opacity="0.996078431372549" d="M 44.5 83 L 45.5 85 L 44.5 83 Z "></path><path fill="rgb(65,56,120)" stroke="rgb(65,56,120)" stroke-width="1" opacity="0.996078431372549" d="M 56.5 83 L 54.5 86 L 53 85.5 L 56.5 83 Z "></path><path fill="rgb(65,56,120)" stroke="rgb(65,56,120)" stroke-width="1" opacity="0.996078431372549" d="M 73.5 84 L 74 87.5 L 73 87.5 L 73.5 84 Z "></path><path fill="rgb(65,56,120)" stroke="rgb(65,56,120)" stroke-width="1" opacity="0.996078431372549" d="M 21.5 87 L 24 88.5 L 22.5 89 L 21.5 87 Z "></path><path fill="rgb(65,56,120)" stroke="rgb(65,56,120)" stroke-width="1" opacity="0.996078431372549" d="M 63.5 88 L 66 89 Q 67.3 93.1 64 92 L 63.5 88 Z "></path><path fill="rgb(65,56,120)" stroke="rgb(65,56,120)" stroke-width="1" opacity="0.996078431372549" d="M 13 89 L 15 89.5 L 12 91.5 L 13 89 Z "></path><path fill="rgb(65,56,120)" stroke="rgb(65,56,120)" stroke-width="1" opacity="0.996078431372549" d="M 58.5 91 L 61 91.5 L 58 93.5 L 58.5 91 Z "></path><path fill="rgb(65,56,120)" stroke="rgb(65,56,120)" stroke-width="1" opacity="0.996078431372549" d="M 66.5 93 L 69 94.5 L 70 96.5 L 68 97 Q 69 94 66 95 L 65.5 98 L 65 94.5 L 66.5 93 Z "></path><path fill="rgb(65,56,120)" stroke="rgb(65,56,120)" stroke-width="1" opacity="0.996078431372549" d="M 13.5 95 L 25.5 97 L 27 96.5 Q 24.8 97.7 27.5 99 L 30 98 L 31.5 101 L 37.5 105 Q 38.8 102.8 40 105.5 Q 41.1 108.8 38.5 108 L 38.5 106 L 35 105 L 34.5 103 L 28 105 L 30 110.5 L 27 112.5 L 30.5 116 L 31.5 115 L 35 112.5 L 37 109.5 L 38 109.5 Q 39.1 112.8 36.5 112 Q 34.5 116.5 28.5 117 L 22 114 L 19.5 110 L 18 108.5 L 11.5 104 L 7.5 104 L 2 101.5 L 7 100 Q 5.9 97.3 8.5 98 L 13.5 95 Z M 25 104 Q 24 107 27 106 Q 28 103 25 104 Z "></path><path fill="rgb(65,56,120)" stroke="rgb(65,56,120)" stroke-width="1" opacity="0.996078431372549" d="M 54.5 95 L 53.5 97 L 50.5 98 L 51.5 96 L 54.5 95 Z "></path><path fill="rgb(65,56,120)" stroke="rgb(65,56,120)" stroke-width="1" opacity="0.996078431372549" d="M 33.5 97 L 35.5 100 L 32 98.5 L 33.5 97 Z "></path><path fill="rgb(65,56,120)" stroke="rgb(65,56,120)" stroke-width="1" opacity="0.996078431372549" d="M 47.5 97 L 49 97.5 L 47.5 98 L 47.5 97 Z "></path><path fill="rgb(65,56,120)" stroke="rgb(65,56,120)" stroke-width="1" opacity="0.996078431372549" d="M 68.5 98 L 69 99.5 L 66 101 Q 64.9 98.3 67.5 99 L 68.5 98 Z "></path><path fill="rgb(65,56,120)" stroke="rgb(65,56,120)" stroke-width="1" opacity="0.996078431372549" d="M 38 99 L 40 99.5 L 38 100.5 L 38 99 Z "></path><path fill="rgb(65,56,120)" stroke="rgb(65,56,120)" stroke-width="1" opacity="0.996078431372549" d="M 73.5 100 L 76 100.5 L 73.5 101 L 73.5 100 Z "></path><path fill="rgb(65,56,120)" stroke="rgb(65,56,120)" stroke-width="1" opacity="0.996078431372549" d="M 1.5 105 L 4 106.5 L 2.5 106 L 1.5 105 Z "></path><path fill="rgb(65,56,120)" stroke="rgb(65,56,120)" stroke-width="1" opacity="0.996078431372549" d="M 76.5 107 L 78 108.5 Q 74.9 110.3 76.5 112 Q 73.5 112.7 75 109 L 77 108.5 L 76.5 107 Z "></path><path fill="rgb(65,56,120)" stroke="rgb(65,56,120)" stroke-width="1" opacity="0.996078431372549" d="M 55.5 108 L 54.5 110 L 55.5 108 Z "></path><path fill="rgb(65,56,120)" stroke="rgb(65,56,120)" stroke-width="1" opacity="0.996078431372549" d="M 40.5 111 L 41 112.5 L 40 112.5 L 40.5 111 Z "></path><path fill="rgb(65,56,120)" stroke="rgb(65,56,120)" stroke-width="1" opacity="0.996078431372549" d="M 2.5 112 L 3 114.5 L 2 114.5 L 2.5 112 Z "></path><path fill="rgb(65,56,120)" stroke="rgb(65,56,120)" stroke-width="1" opacity="0.996078431372549" d="M 1.5 116 L 2 118.5 L 1 118.5 L 1.5 116 Z "></path><path fill="rgb(65,56,120)" stroke="rgb(65,56,120)" stroke-width="1" opacity="0.996078431372549" d="M 58.5 117 L 60 117.5 L 58.5 118 L 58.5 117 Z "></path><path fill="rgb(65,56,120)" stroke="rgb(65,56,120)" stroke-width="1" opacity="0.996078431372549" d="M 67 118 L 69 118.5 L 67 119.5 L 67 118 Z "></path><path fill="rgb(65,56,120)" stroke="rgb(65,56,120)" stroke-width="1" opacity="0.996078431372549" d="M 75.5 118 L 76 119.5 L 75 119.5 L 75.5 118 Z "></path><path fill="rgb(65,56,120)" stroke="rgb(65,56,120)" stroke-width="1" opacity="0.996078431372549" d="M 3.5 119 L 2.5 121 L 3.5 119 Z "></path><path fill="rgb(65,56,120)" stroke="rgb(65,56,120)" stroke-width="1" opacity="0.996078431372549" d="M 40.5 119 L 43 120.5 L 40 121 L 40.5 119 Z "></path><path fill="rgb(65,56,120)" stroke="rgb(65,56,120)" stroke-width="1" opacity="0.996078431372549" d="M 0.5 120 L 1 122.5 L 0 122.5 L 0.5 120 Z "></path><path fill="rgb(65,56,120)" stroke="rgb(65,56,120)" stroke-width="1" opacity="0.996078431372549" d="M 6.5 120 L 7 126.5 L 6 126.5 L 6.5 120 Z "></path><path fill="rgb(65,56,120)" stroke="rgb(65,56,120)" stroke-width="1" opacity="0.996078431372549" d="M 48.5 121 L 49 122.5 L 48 122.5 L 48.5 121 Z "></path><path fill="rgb(65,56,120)" stroke="rgb(65,56,120)" stroke-width="1" opacity="0.996078431372549" d="M 62.5 121 L 62 122.5 L 63 125.5 L 62 125.5 L 61.5 124 L 60 124.5 L 62.5 121 Z "></path><path fill="rgb(65,56,120)" stroke="rgb(65,56,120)" stroke-width="1" opacity="0.996078431372549" d="M 52.5 122 L 53 123.5 L 49.5 125 L 49.5 124 L 52.5 122 Z "></path><path fill="rgb(65,56,120)" stroke="rgb(65,56,120)" stroke-width="1" opacity="0.996078431372549" d="M 4.5 123 L 5 124.5 L 4 124.5 L 4.5 123 Z "></path><path fill="rgb(65,56,120)" stroke="rgb(65,56,120)" stroke-width="1" opacity="0.996078431372549" d="M 55.5 123 L 56 125.5 L 55.5 128 L 54 127.5 L 52.5 131 L 50 127.5 L 53 126.5 L 53.5 125 L 55 125.5 L 55.5 123 Z "></path><path fill="rgb(65,56,120)" stroke="rgb(65,56,120)" stroke-width="1" opacity="0.996078431372549" d="M 18.5 126 L 21.5 128 L 23 127.5 L 22 129.5 L 22 131.5 L 20 137 L 23 137.5 Q 21 142 12.5 140 L 10 139.5 L 9 135.5 L 11.5 137 L 13.5 138 L 14 135 L 16 134.5 L 15.5 133 L 17.5 133 L 19 131.5 L 20 129.5 L 18.5 126 Z "></path><path fill="rgb(65,56,120)" stroke="rgb(65,56,120)" stroke-width="1" opacity="0.996078431372549" d="M 5.5 128 L 7 128.5 L 4.5 132 L 3 129 L 5.5 128 Z "></path><path fill="rgb(65,56,120)" stroke="rgb(65,56,120)" stroke-width="1" opacity="0.996078431372549" d="M 67.5 128 L 71 129.5 L 70 133.5 L 71.5 133 L 73 133.5 L 71 134.5 L 73 135 L 70.5 139 L 69 138.5 Q 69.9 141.9 64.5 140 L 65 138.5 L 65 129.5 L 66.5 129 L 67.5 128 Z M 67 129 L 67 131 L 69 130 L 67 129 Z M 68 133 L 67 137 L 68 137 L 68 133 Z "></path><path fill="rgb(65,56,120)" stroke="rgb(65,56,120)" stroke-width="1" opacity="0.996078431372549" d="M 75 130 L 78 131.5 L 75 133 L 75 130 Z "></path><path fill="rgb(65,56,120)" stroke="rgb(65,56,120)" stroke-width="1" opacity="0.996078431372549" d="M 11 131 Q 14 130 13 133 Q 10 134 11 131 Z "></path><path fill="rgb(65,56,120)" stroke="rgb(65,56,120)" stroke-width="1" opacity="0.996078431372549" d="M 55.5 132 L 57 133.5 L 55.5 132 Z "></path><path fill="rgb(65,56,120)" stroke="rgb(65,56,120)" stroke-width="1" opacity="0.996078431372549" d="M 51.5 137 Q 54.5 138.5 51.5 140 L 51.5 137 Z "></path><path fill="rgb(65,56,120)" stroke="rgb(65,56,120)" stroke-width="1" opacity="0.996078431372549" d="M 55.5 137 L 56 138.5 L 55 138.5 L 55.5 137 Z "></path><path fill="rgb(63,29,64)" stroke="rgb(63,29,64)" stroke-width="1" opacity="0.996078431372549" d="M 30.5 49 L 32.5 50 L 34 49.5 Q 32.8 52.3 31.5 50 L 30.5 49 Z "></path><path fill="rgb(63,29,64)" stroke="rgb(63,29,64)" stroke-width="1" opacity="0.996078431372549" d="M 40.5 50 L 43 51.5 L 39.5 52 L 40.5 50 Z "></path><path fill="rgb(63,29,64)" stroke="rgb(63,29,64)" stroke-width="1" opacity="0.996078431372549" d="M 16.5 55 L 17 56.5 L 16 56.5 L 16.5 55 Z "></path><path fill="rgb(63,29,64)" stroke="rgb(63,29,64)" stroke-width="1" opacity="0.996078431372549" d="M 19.5 55 L 20 56.5 L 19 56.5 L 19.5 55 Z "></path><path fill="rgb(63,29,64)" stroke="rgb(63,29,64)" stroke-width="1" opacity="0.996078431372549" d="M 18 58 Q 21 57 20 60 L 23 60 L 23 61.5 L 25 61.5 L 21 63.5 L 21.5 65 Q 18.9 65.8 20 62.5 L 18 58 Z "></path><path fill="rgb(63,29,64)" stroke="rgb(63,29,64)" stroke-width="1" opacity="0.996078431372549" d="M 40.5 58 L 43 59.5 L 39.5 60 L 40.5 58 Z "></path><path fill="rgb(63,29,64)" stroke="rgb(63,29,64)" stroke-width="1" opacity="0.996078431372549" d="M 73.5 63 L 78 67.5 L 76.5 69 Q 73.1 68.1 75 73.5 L 75 75.5 L 75.5 78 L 77.5 75 L 78 99.5 L 76 98.5 L 72.5 94 L 65.5 88 L 63 88 L 64 92 L 66 92.5 L 65 97.5 L 66 101 L 69 99.5 L 68.5 98 L 67 98.5 Q 68.3 95.7 69.5 98 L 74 99.5 L 73.5 101 L 78 101 L 78 107 Q 75.3 105.9 76 108.5 L 75 112.5 L 76 115 L 71.5 116 L 68.5 115 L 63 118.5 L 65 119 Q 66.5 122.8 63.5 122 L 62.5 119 L 61.5 122 L 60.5 119 L 55 123 L 54.5 126 L 53 125.5 L 51 128.5 L 53 134.5 L 53 136.5 L 52.5 138 L 51.5 136 L 51 140 L 21 139.5 L 22.5 137 Q 19.2 138.1 20 135.5 Q 23.6 133.6 23 127.5 L 21.5 128 L 17 125.5 L 21 122.5 L 22.5 119 L 26.5 122 L 43.5 107 L 40 111.5 L 39 117.5 L 40 121 L 44.5 121 L 49 118 L 48 123.5 L 49.5 126 L 53 123.5 L 59 113.5 L 57.5 110 L 53 113.5 L 51.5 115 L 50 115.5 L 56 108.5 L 51.5 103 L 44.5 101 L 37 105.5 L 38.5 109 L 40 108.5 L 37 109.5 L 35 112.5 L 30.5 116 L 26.5 111 L 28.5 112 L 30 109.5 L 28 105 Q 33 105.8 35 102.5 L 30 99.5 L 27 89 Q 30.7 87.7 29 93.5 L 32.5 99 L 38.5 101 L 57 96 Q 55.9 93.3 58.5 94 L 60.5 91 L 46 84.5 L 47.5 85 L 50.5 84 L 54.5 86 Q 57.8 85.3 57 80.5 L 52 77.5 L 57.5 77 L 62.5 81 L 73 85.5 L 73.5 88 L 75 85.5 L 73 83.5 L 73 79.5 L 71 75.5 L 72 73.5 L 69 72.5 L 69.5 71 L 70.5 73 L 73 72 Q 74.9 67.2 71.5 68 L 70 68.5 L 69 66.5 L 71 65.5 L 70.5 67 L 72 65.5 L 73.5 63 Z M 36 103 Q 34 106 37 105 L 36 103 Z M 59 117 L 59 118 L 60 118 L 59 117 Z "></path><path fill="rgb(63,29,64)" stroke="rgb(63,29,64)" stroke-width="1" opacity="0.996078431372549" d="M 41.5 64 L 44.5 67 L 46.5 67 L 48 67.5 L 45.5 71 L 46 69.5 L 45.5 68 L 44 68.5 L 42.5 66 Q 39.7 66.7 41.5 64 Z "></path><path fill="rgb(63,29,64)" stroke="rgb(63,29,64)" stroke-width="1" opacity="0.996078431372549" d="M 64.5 64 L 66 64.5 L 64.5 65 L 64.5 64 Z "></path><path fill="rgb(63,29,64)" stroke="rgb(63,29,64)" stroke-width="1" opacity="0.996078431372549" d="M 27.5 65 L 28.5 67 L 27.5 65 Z "></path><path fill="rgb(63,29,64)" stroke="rgb(63,29,64)" stroke-width="1" opacity="0.996078431372549" d="M 36.5 70 L 38 71.5 L 36.5 70 Z "></path><path fill="rgb(63,29,64)" stroke="rgb(63,29,64)" stroke-width="1" opacity="0.996078431372549" d="M 45.5 73 L 46 74.5 L 45 74.5 L 45.5 73 Z "></path><path fill="rgb(63,29,64)" stroke="rgb(63,29,64)" stroke-width="1" opacity="0.996078431372549" d="M 19.5 76 L 24 77 L 20 86 L 26 87 Q 27.8 91.5 22.5 90 L 11 95.5 L 9.5 97 L 0.5 102 L 0 85 L 6.5 82 L 8 82.5 L 10.5 79 L 19.5 76 Z M 18 82 L 16 84 Q 17 86 14 85 L 13 89 L 11 90 L 13 92 Q 16 90 15 88 L 18 89 L 17 88 L 19 83 L 18 82 Z M 22 87 L 23 89 L 24 89 L 22 87 Z "></path><path fill="rgb(63,29,64)" stroke="rgb(63,29,64)" stroke-width="1" opacity="0.996078431372549" d="M 46.5 77 L 50 77.5 L 46.5 78 L 46.5 77 Z "></path><path fill="rgb(63,29,64)" stroke="rgb(63,29,64)" stroke-width="1" opacity="0.996078431372549" d="M 34.5 80 L 36 80.5 L 34.5 81 L 34.5 80 Z "></path><path fill="rgb(63,29,64)" stroke="rgb(63,29,64)" stroke-width="1" opacity="0.996078431372549" d="M 0 104 L 2 104.5 L 1.5 106 L 3.5 107 Q 4.8 104.8 6 107.5 L 4 111.5 L 7 119.5 L 5.5 128 L 4 125.5 L 5 120.5 Q 3.5 117.5 2 120.5 L 2 122.5 L 0.5 129 L 0 123.5 L 1 120.5 L 0 114.5 L 0 112.5 L 1 107.5 L 0 104 Z M 3 112 L 2 115 L 3 115 L 3 112 Z M 2 116 L 1 119 L 2 119 L 2 116 Z "></path><path fill="rgb(63,29,64)" stroke="rgb(63,29,64)" stroke-width="1" opacity="0.996078431372549" d="M 25 104 Q 28 103 27 106 Q 24 107 25 104 Z "></path><path fill="rgb(63,29,64)" stroke="rgb(63,29,64)" stroke-width="1" opacity="0.996078431372549" d="M 17.5 115 L 18.5 117 L 16 116.5 L 17.5 115 Z "></path><path fill="rgb(63,29,64)" stroke="rgb(63,29,64)" stroke-width="1" opacity="0.996078431372549" d="M 12.5 116 L 16 118.5 L 15 120.5 L 16 122.5 L 15 122.5 L 12 118.5 L 12.5 116 Z "></path><path fill="rgb(63,29,64)" stroke="rgb(63,29,64)" stroke-width="1" opacity="0.996078431372549" d="M 69 117 L 74 118.5 L 68 119.5 L 69 117 Z "></path><path fill="rgb(63,29,64)" stroke="rgb(63,29,64)" stroke-width="1" opacity="0.996078431372549" d="M 75.5 117 L 78 118.5 L 76.5 118 L 75.5 117 Z "></path><path fill="rgb(63,29,64)" stroke="rgb(63,29,64)" stroke-width="1" opacity="0.996078431372549" d="M 66.5 119 L 67 120.5 L 66 120.5 L 66.5 119 Z "></path><path fill="rgb(63,29,64)" stroke="rgb(63,29,64)" stroke-width="1" opacity="0.996078431372549" d="M 57.5 124 L 60 125.5 L 58 126.5 L 58.5 125 L 57.5 124 Z "></path><path fill="rgb(63,29,64)" stroke="rgb(63,29,64)" stroke-width="1" opacity="0.996078431372549" d="M 19.5 129 L 20 130.5 L 19 130.5 L 19.5 129 Z "></path><path fill="rgb(63,29,64)" stroke="rgb(63,29,64)" stroke-width="1" opacity="0.996078431372549" d="M 56.5 129 L 54.5 132 L 53 130.5 Q 54.8 132.1 56.5 129 Z "></path><path fill="rgb(63,29,64)" stroke="rgb(63,29,64)" stroke-width="1" opacity="0.996078431372549" d="M 0 131 L 4 131.5 L 0.5 133 L 0 131 Z "></path><path fill="rgb(63,29,64)" stroke="rgb(63,29,64)" stroke-width="1" opacity="0.996078431372549" d="M 54.5 135 L 55 136.5 L 54 136.5 L 54.5 135 Z "></path><path fill="rgb(63,29,64)" stroke="rgb(63,29,64)" stroke-width="1" opacity="0.996078431372549" d="M 54.5 138 L 55 140 L 52 139.5 L 54.5 138 Z "></path></svg>