{
	"asset":{
		"version":"2.0",
		"generator":"Maxon Cinema 4D 2024.2.0 (#200000219)"
	},
	"scenes":[{
		"nodes":[0]
	}],
	"nodes":[{
		"name":"maunet",
		"children":[1,
		2]
	},
	{
		"name":"maunet",
		"mesh":0,
		"skin":0
	},
	{
		"name":"xx-BASE",
		"translation":[0.00110250327270478,
		-3.1195051670074465,
		-0.30651524662971499],
		"children":[3],
		"rotation":[-0.00019811955280601978,
		-0.7071067690849304,
		0.00019811955280601978,
		-0.7071067690849304],
		"scale":[1.0,
		1.0,
		1.0]
	},
	{
		"name":"xx-pecho",
		"translation":[1.4809698750339559e-16,
		1.2142096757888795,
		-2.6717138037713519e-17],
		"children":[4,
		5,
		6,
		7,
		8],
		"rotation":[0.0,
		-0.018216712400317193,
		0.0,
		-0.9998340606689453],
		"scale":[1.0,
		1.0,
		1.0]
	},
	{
		"name":"pecho centro atras",
		"translation":[0.6241519451141357,
		2.1291866302490236,
		0.02547343261539936],
		"children":[9],
		"rotation":[0.017621880397200586,
		-0.004625560715794563,
		-0.9708629846572876,
		0.2389417141675949],
		"scale":[1.0,
		1.0,
		1.0]
	},
	{
		"name":"pecho centro adelante",
		"translation":[-0.8362835645675659,
		1.515439748764038,
		-0.027417540550231935],
		"children":[10],
		"rotation":[0.017904726788401605,
		0.003368563950061798,
		-0.9796355962753296,
		-0.19995549321174622],
		"scale":[1.0,
		1.0,
		1.0]
	},
	{
		"name":"xx-hombro izquierdo",
		"translation":[-0.021798688918352128,
		1.511925220489502,
		0.5980181694030762],
		"children":[11],
		"rotation":[-5.9041755859357e-12,
		-0.7071067690849304,
		-5.9041755859357e-12,
		0.7071067690849304],
		"scale":[1.0,
		1.0,
		1.0]
	},
	{
		"name":"xx-hombro derecho",
		"translation":[0.020728085190057756,
		1.5133315324783326,
		-0.5686473846435547],
		"children":[12],
		"rotation":[-5.9041755859357e-12,
		-0.7071067690849304,
		-5.9041755859357e-12,
		0.7071067690849304],
		"scale":[1.0,
		1.0,
		1.0]
	},
	{
		"name":"xx-nuca",
		"translation":[0.09206048399209976,
		2.3478100299835207,
		0.004839541856199503],
		"children":[13],
		"rotation":[1.3572508394954497e-10,
		-0.018216712400317193,
		-7.4493442525636059e-9,
		0.9998340606689453],
		"scale":[1.0,
		1.0,
		1.0]
	},
	{
		"name":"Joint.5",
		"translation":[-0.00020763407519552857,
		0.6220138669013977,
		0.004420449957251549],
		"rotation":[3.909478296648672e-10,
		-0.02346622385084629,
		-1.665541660145209e-8,
		0.9997246265411377],
		"scale":[1.0,
		1.0,
		1.0]
	},
	{
		"name":"Joint.5",
		"translation":[-0.0001611201005289331,
		0.48267093300819399,
		0.003430185141041875],
		"rotation":[3.496744283015829e-10,
		-0.02346622385084629,
		-1.4897057809548642e-8,
		0.9997246265411377],
		"scale":[1.0,
		1.0,
		1.0]
	},
	{
		"name":"xx-hombro izquierdo",
		"translation":[1.8311892747879029,
		-0.005697541404515505,
		-6.286731579763227e-9],
		"rotation":[-2.728644476149219e-21,
		0.0,
		0.0,
		-1.0],
		"scale":[1.0,
		1.0,
		1.0]
	},
	{
		"name":"xx-hombro derecho",
		"translation":[-1.8332717418670655,
		0.028810279443860055,
		-0.04145212844014168],
		"rotation":[-2.728644476149219e-21,
		0.0,
		0.0,
		-1.0],
		"scale":[1.0,
		1.0,
		1.0]
	},
	{
		"name":"xx-cabeza",
		"translation":[-0.08086798340082169,
		0.13434486091136933,
		0.00025714520597830415],
		"children":[14,
		15,
		16],
		"rotation":[4.7283190696134629e-9,
		0.00008891802281141281,
		0.15867826342582704,
		0.9873303174972534],
		"scale":[1.0,
		1.0,
		1.0]
	},
	{
		"name":"lentes",
		"translation":[-0.3774157166481018,
		1.1429060697555543,
		0.004647297319024801],
		"children":[17],
		"rotation":[0.11239808797836304,
		0.6981793642044067,
		0.11200687289237976,
		-0.6981165409088135],
		"scale":[1.0,
		1.0,
		1.0]
	},
	{
		"name":"Null",
		"translation":[-0.5500752925872803,
		1.3512059450149537,
		0.0002963470760732889],
		"children":[18,
		19,
		20,
		21,
		22,
		23,
		24,
		25,
		26,
		27,
		28,
		29],
		"rotation":[0.11239808797836304,
		0.6981793642044067,
		0.11200687289237976,
		-0.6981165409088135],
		"scale":[1.0,
		1.0,
		1.0]
	},
	{
		"name":"Joint.5",
		"translation":[-0.000871368043590337,
		2.6103761196136476,
		0.018551092594861985],
		"rotation":[3.496744283015829e-10,
		-0.02346622385084629,
		-1.4897057809548642e-8,
		0.9997246265411377],
		"scale":[1.0,
		1.0,
		1.0]
	},
	{
		"name":"lentes",
		"mesh":1
	},
	{
		"name":"xx-pomulo derecho",
		"translation":[-0.45005521178245547,
		-0.36730238795280459,
		0.10686347633600235],
		"children":[30],
		"rotation":[0.2305918037891388,
		0.2305918037891388,
		-0.6684514880180359,
		-0.6684514880180359],
		"scale":[1.0,
		1.0,
		1.0]
	},
	{
		"name":"xx-pomulo izquierdo",
		"translation":[0.45771563053131106,
		-0.3680626153945923,
		0.11671039462089539],
		"children":[31],
		"rotation":[0.6797736287117004,
		0.6797736287117004,
		-0.19469930231571198,
		-0.19469930231571198],
		"scale":[1.0,
		1.0,
		1.0]
	},
	{
		"name":"pelo oreja izquierda",
		"translation":[0.701902449131012,
		0.511151909828186,
		-0.299629271030426],
		"children":[32],
		"rotation":[0.9886440634727478,
		0.05474531650543213,
		-0.12779386341571809,
		-0.057048946619033816],
		"scale":[1.0,
		1.0,
		1.0]
	},
	{
		"name":"pelo oreja derecha",
		"translation":[-0.7110934257507324,
		0.511151909828186,
		-0.299629271030426],
		"children":[33],
		"rotation":[0.9879104495048523,
		-0.038123682141304019,
		-0.13369707763195039,
		-0.06859045475721359],
		"scale":[1.0,
		1.0,
		1.0]
	},
	{
		"name":"pelo arriba derecho",
		"translation":[0.1301417499780655,
		0.9875609278678894,
		0.13235609233379365],
		"children":[34],
		"rotation":[0.8456344604492188,
		0.4753260314464569,
		-0.19779162108898164,
		-0.1408756673336029],
		"scale":[1.0,
		1.0,
		1.0]
	},
	{
		"name":"pelo arriba izquierda",
		"translation":[-0.13933269679546357,
		0.9875609278678894,
		0.13235609233379365],
		"children":[35],
		"rotation":[0.7385181188583374,
		-0.23716269433498383,
		-0.4569575786590576,
		-0.4353557825088501],
		"scale":[1.0,
		1.0,
		1.0]
	},
	{
		"name":"nariz",
		"translation":[-0.0002709199034143239,
		-0.20474877953529359,
		-0.2663763463497162],
		"children":[36],
		"rotation":[0.5704129338264465,
		0.4178864359855652,
		0.5704129338264465,
		0.4178864359855652],
		"scale":[1.0,
		1.0,
		1.0]
	},
	{
		"name":"xx-boca quijada",
		"translation":[-0.0002709199034143239,
		-0.8690197467803955,
		-0.5125993490219116],
		"children":[37,
		38,
		39,
		40,
		41],
		"rotation":[0.5796071290969849,
		0.40503770112991335,
		0.5796071290969849,
		0.40503770112991335],
		"scale":[1.0,
		1.0,
		1.0]
	},
	{
		"name":"xx-labio superior der",
		"translation":[-0.3025071322917938,
		-0.7350624203681946,
		0.1656036078929901],
		"children":[42],
		"rotation":[4.0341943110741576e-13,
		-4.037812835824828e-13,
		-0.7071067690849304,
		0.7071067690849304],
		"scale":[1.0,
		1.0,
		1.0]
	},
	{
		"name":"xx-labio superior izq",
		"translation":[0.2918529808521271,
		-0.7358226776123047,
		0.1656036078929901],
		"children":[43],
		"rotation":[0.7071067690849304,
		-0.7071067690849304,
		4.040280751019948e-13,
		-4.0340005099358258e-13],
		"scale":[1.0,
		1.0,
		1.0]
	},
	{
		"name":"xx-ceja izquierda",
		"translation":[0.45514336228370669,
		0.16214711964130402,
		0.2798709273338318],
		"children":[44],
		"rotation":[0.7071067690849304,
		-0.7071067690849304,
		4.040280751019948e-13,
		-4.0340005099358258e-13],
		"scale":[1.0,
		1.0,
		1.0]
	},
	{
		"name":"xx-ceja derecha",
		"translation":[-0.4200204312801361,
		0.16214711964130402,
		0.2798709273338318],
		"children":[45],
		"rotation":[4.0341943110741576e-13,
		-4.037812835824828e-13,
		-0.7071067690849304,
		0.7071067690849304],
		"scale":[1.0,
		1.0,
		1.0]
	},
	{
		"name":"Joint.5",
		"translation":[-0.00007877647294662893,
		0.23599238693714143,
		0.0016771210357546807],
		"rotation":[1.0266734946530053e-15,
		-0.02346622385084629,
		2.409878548982184e-17,
		0.9997246265411377],
		"scale":[1.0,
		1.0,
		1.0]
	},
	{
		"name":"Joint.5",
		"translation":[-0.00007877647294662893,
		0.23599238693714143,
		0.0016771210357546807],
		"rotation":[9.156817912557092e-16,
		-0.02346622385084629,
		2.1493510667414625e-17,
		0.9997246265411377],
		"scale":[1.0,
		1.0,
		1.0]
	},
	{
		"name":"Joint.5",
		"translation":[-0.0004948772257193923,
		1.4825143814086915,
		0.010535746812820435],
		"rotation":[3.496744283015829e-10,
		-0.02346622385084629,
		-1.4897057809548642e-8,
		0.9997246265411377],
		"scale":[1.0,
		1.0,
		1.0]
	},
	{
		"name":"Joint.5",
		"translation":[0.005564738996326923,
		1.4423893690109254,
		0.008622086606919766],
		"rotation":[4.216933469081141e-9,
		-0.02346622385084629,
		-1.044063147048746e-8,
		0.9997246265411377],
		"scale":[1.0,
		1.0,
		1.0]
	},
	{
		"name":"Joint.5",
		"translation":[-0.00025799302966333926,
		0.7728752493858337,
		0.005492572672665119],
		"rotation":[3.4967451156830977e-10,
		-0.02346622385084629,
		-1.4897057809548642e-8,
		0.9997246265411377],
		"scale":[1.0,
		1.0,
		1.0]
	},
	{
		"name":"Joint.5",
		"translation":[0.005493353120982647,
		0.7728752493858337,
		-0.0002410786401014775],
		"rotation":[7.299679083416777e-9,
		-0.023466235026717187,
		-1.0368271574634491e-8,
		0.9997246265411377],
		"scale":[1.0,
		1.0,
		1.0]
	},
	{
		"name":"Joint.5",
		"translation":[-0.00028681615367531776,
		0.859221339225769,
		0.006106206215918064],
		"rotation":[-5.428623045880543e-13,
		-0.02346622385084629,
		-1.2742436703776054e-14,
		0.9997246265411377],
		"scale":[1.0,
		1.0,
		1.0]
	},
	{
		"name":"menton derecho",
		"translation":[-0.09202940762042999,
		0.5948300957679749,
		-0.35445064306259158],
		"children":[46],
		"rotation":[0.1880130171775818,
		0.8651126027107239,
		0.45439958572387698,
		0.0987536758184433],
		"scale":[1.0,
		1.0,
		1.0]
	},
	{
		"name":"menton izquierdo",
		"translation":[-0.09223175793886185,
		0.6081621050834656,
		0.32767894864082339],
		"children":[47],
		"rotation":[0.18915267288684846,
		0.8607418537139893,
		-0.46204471588134768,
		-0.09929463267326355],
		"scale":[1.0,
		1.0,
		1.0]
	},
	{
		"name":"Joint.5",
		"translation":[-0.00019199674716219306,
		0.575168788433075,
		0.004087537061423063],
		"rotation":[-5.26315861552884e-13,
		-0.02346622385084629,
		-1.235404668647154e-14,
		0.9997246265411377],
		"scale":[1.0,
		1.0,
		1.0]
	},
	{
		"name":"xx-labio inferior der",
		"translation":[0.13335753977298737,
		0.6377439498901367,
		-0.29433661699295046],
		"children":[48],
		"rotation":[0.26377183198928835,
		0.6560673713684082,
		0.6560673713684082,
		0.26377183198928835],
		"scale":[1.0,
		1.0,
		1.0]
	},
	{
		"name":"xx-labio inferior izq",
		"translation":[0.13046632707118989,
		0.6392582058906555,
		0.30488282442092898],
		"children":[49],
		"rotation":[0.26529091596603396,
		0.6554545760154724,
		-0.6566768884658814,
		-0.26225078105926516],
		"scale":[1.0,
		1.0,
		1.0]
	},
	{
		"name":"Joint.5",
		"translation":[-0.00007877647294662893,
		0.23599238693714143,
		0.0016771210357546807],
		"rotation":[3.0282715224316805e-10,
		-0.02346622385084629,
		-1.2901230306283651e-8,
		0.9997246265411377],
		"scale":[1.0,
		1.0,
		1.0]
	},
	{
		"name":"Joint.5",
		"translation":[-0.00007877647294662893,
		0.23599238693714143,
		0.0016771210357546807],
		"rotation":[4.2826184265543079e-10,
		-0.02346622385084629,
		-1.8245094324242929e-8,
		0.9997246265411377],
		"scale":[1.0,
		1.0,
		1.0]
	},
	{
		"name":"Joint.5",
		"translation":[-0.00007877647294662893,
		0.23599238693714143,
		0.0016771210357546807],
		"rotation":[4.2826184265543079e-10,
		-0.02346622385084629,
		-1.8245094324242929e-8,
		0.9997246265411377],
		"scale":[1.0,
		1.0,
		1.0]
	},
	{
		"name":"Joint.5",
		"translation":[-0.00007877647294662893,
		0.23599238693714143,
		0.0016771210357546807],
		"rotation":[3.0282715224316805e-10,
		-0.02346622385084629,
		-1.2901230306283651e-8,
		0.9997246265411377],
		"scale":[1.0,
		1.0,
		1.0]
	},
	{
		"name":"Joint.5",
		"translation":[-0.00006029969881637953,
		0.18064111471176148,
		0.0012837575050070882],
		"rotation":[0.0,
		-0.02346622385084629,
		0.0,
		0.9997246265411377],
		"scale":[1.0,
		1.0,
		1.0]
	},
	{
		"name":"Joint.5",
		"translation":[-0.00006029969881637953,
		0.18064111471176148,
		0.0012837575050070882],
		"rotation":[2.4725732572505878e-10,
		-0.02346622385084629,
		-1.05338102684982e-8,
		0.9997246265411377],
		"scale":[1.0,
		1.0,
		1.0]
	},
	{
		"name":"Joint.5",
		"translation":[-0.00007877647294662893,
		0.23599238693714143,
		0.0016771210357546807],
		"rotation":[5.305404553179738e-13,
		-0.02346622385084629,
		1.2453210527672496e-14,
		0.9997246265411377],
		"scale":[1.0,
		1.0,
		1.0]
	},
	{
		"name":"Joint.5",
		"translation":[-0.00007877647294662893,
		0.23599238693714143,
		0.0016771175432950259],
		"rotation":[-7.282946690168046e-9,
		-0.02346622385084629,
		-1.7095032334157879e-10,
		0.9997246265411377],
		"scale":[1.0,
		1.0,
		1.0]
	}],
	"meshes":[{
		"name":"maunet",
		"primitives":[{
			"attributes":{
				"POSITION":1,
				"NORMAL":2,
				"TEXCOORD_0":3,
				"JOINTS_0":4,
				"WEIGHTS_0":5
			},
			"indices":0,
			"material":0
		}]
	},
	{
		"name":"lentes",
		"primitives":[{
			"attributes":{
				"POSITION":7,
				"NORMAL":8,
				"TEXCOORD_0":9
			},
			"indices":6,
			"material":0
		}]
	}],
	"images":[{
		"uri":"data:image/jpeg;base64,"
	}],
	"skins":[{
		"inverseBindMatrices":10,
		"joints":[2,
		3,
		4,
		9,
		5,
		10,
		6,
		11,
		7,
		12,
		8,
		13,
		18,
		30,
		19,
		31,
		20,
		32,
		21,
		33,
		22,
		34,
		23,
		35,
		24,
		36,
		25,
		37,
		46,
		38,
		47,
		39,
		40,
		48,
		41,
		49,
		26,
		42,
		27,
		43,
		28,
		44,
		29,
		45,
		16]
	}],
	"accessors":[{
		"bufferView":0,
		"count":3621,
		"type":"SCALAR",
		"componentType":5123,
		"byteOffset":0,
		"min":[0],
		"max":[3620]
	},
	{
		"bufferView":1,
		"count":3621,
		"type":"VEC3",
		"componentType":5126,
		"byteOffset":0,
		"min":[-2.9615907669067385,
		-2.2438912391662599,
		-1.7798858880996705],
		"max":[2.964350700378418,
		2.965665340423584,
		1.1668553352355958]
	},
	{
		"bufferView":1,
		"count":3621,
		"type":"VEC3",
		"componentType":5126,
		"byteOffset":12,
		"min":[-0.9996052980422974,
		-0.9949145317077637,
		-0.999597430229187],
		"max":[0.9995031952857971,
		0.999234139919281,
		0.9976194500923157]
	},
	{
		"bufferView":1,
		"count":3621,
		"type":"VEC2",
		"componentType":5126,
		"byteOffset":24,
		"min":[0.019617091864347459,
		0.012350572273135186],
		"max":[0.9863307476043701,
		0.9753445386886597]
	},
	{
		"bufferView":2,
		"count":3621,
		"type":"VEC4",
		"componentType":5123,
		"byteOffset":0,
		"min":[0,
		0,
		0,
		0],
		"max":[43,
		43,
		43,
		43]
	},
	{
		"bufferView":3,
		"count":3621,
		"type":"VEC4",
		"componentType":5126,
		"byteOffset":0,
		"min":[0.24443426728248597,
		0.0,
		0.0,
		0.0],
		"max":[1.0,
		0.4880445599555969,
		0.2993209660053253,
		0.1768978387117386]
	},
	{
		"bufferView":4,
		"count":528,
		"type":"SCALAR",
		"componentType":5123,
		"byteOffset":0,
		"min":[0],
		"max":[527]
	},
	{
		"bufferView":5,
		"count":528,
		"type":"VEC3",
		"componentType":5126,
		"byteOffset":0,
		"min":[-0.7705440521240234,
		-0.22956117987632752,
		-0.5828927755355835],
		"max":[0.7705440521240234,
		0.22956117987632752,
		0.5828927755355835]
	},
	{
		"bufferView":5,
		"count":528,
		"type":"VEC3",
		"componentType":5126,
		"byteOffset":12,
		"min":[-0.9992892146110535,
		-0.9984185099601746,
		-0.9411419034004211],
		"max":[0.9992892146110535,
		0.9998506903648377,
		0.9961591362953186]
	},
	{
		"bufferView":5,
		"count":528,
		"type":"VEC2",
		"componentType":5126,
		"byteOffset":24,
		"min":[0.5777730345726013,
		0.39619511365890505],
		"max":[0.8205643892288208,
		0.48870140314102175]
	},
	{
		"bufferView":6,
		"count":45,
		"type":"MAT4",
		"componentType":5126,
		"byteOffset":0,
		"min":[-0.036427341401576999,
		-1.0,
		-0.616557776927948,
		0.0,
		-1.0,
		-0.987683892250061,
		-0.4019145667552948,
		0.0,
		-1.0,
		-0.616557776927948,
		-1.0,
		0.0,
		-2.4432215690612795,
		-3.0586020946502687,
		-2.2334907054901125,
		1.0],
		"max":[0.9993361234664917,
		1.0,
		1.0,
		0.0,
		1.0,
		0.9999998211860657,
		0.8597828149795532,
		0.0,
		0.9200130701065064,
		0.9534713625907898,
		1.0,
		0.0,
		2.3879048824310304,
		3.11950421333313,
		0.9862937331199646,
		1.0]
	}],
	"bufferViews":[{
		"buffer":0,
		"byteOffset":0,
		"byteLength":7242,
		"target":34963
	},
	{
		"buffer":0,
		"byteOffset":7244,
		"byteLength":115872,
		"target":34962,
		"byteStride":32
	},
	{
		"buffer":0,
		"byteOffset":123116,
		"byteLength":28968,
		"target":34962
	},
	{
		"buffer":0,
		"byteOffset":152084,
		"byteLength":57936,
		"target":34962
	},
	{
		"buffer":1,
		"byteOffset":0,
		"byteLength":1056,
		"target":34963
	},
	{
		"buffer":1,
		"byteOffset":1056,
		"byteLength":16896,
		"target":34962,
		"byteStride":32
	},
	{
		"buffer":2,
		"byteOffset":0,
		"byteLength":2880
	}],
	"buffers":[{
		"uri":"data:application/octet-stream;base64,",
		"byteLength":210020
	},
	{
		"uri":"data:application/octet-stream;base64,",
		"byteLength":17952
	},
	{
		"uri":"data:application/octet-stream;base64,",
		"byteLength":2880
	}],
	"samplers":[{
		"magFilter":9729,
		"minFilter":9729,
		"wrapS":10497,
		"wrapT":10497
	}],
	"textures":[{
		"sampler":0,
		"source":0
	}],
	"materials":[{
		"pbrMetallicRoughness":{
			"baseColorTexture":{
				"index":0
			},
			"baseColorFactor":[1.0,
			1.0,
			1.0,
			1.0],
			"metallicFactor":1.0,
			"roughnessFactor":1.0
		},
		"emissiveFactor":[0.0,
		0.0,
		0.0],
		"alphaMode":"OPAQUE",
		"doubleSided":false,
		"name":"Mat"
	}]
}