<svg width="100%" height="100%" version="1.1" xmlns="http://www.w3.org/2000/svg" desc="Created with imagetracer.js version 1.2.6" viewBox="0 0 100 100" style="display: block; object-fit: contain;"><path fill="rgb(22,47,140)" stroke="rgb(22,47,140)" stroke-width="1" opacity="0.996078431372549" d="M 22.5 11 L 26 11.5 L 23 13.5 L 23.5 16 L 24.5 14 L 26 16.5 L 24 16.5 L 24 30.5 L 21 31 L 20 25.5 L 22 16.5 L 20 12.5 L 21 12.5 L 21.5 14 L 22.5 11 Z "></path><path fill="rgb(22,47,140)" stroke="rgb(22,47,140)" stroke-width="1" opacity="0.996078431372549" d="M 27.5 11 L 31 11.5 L 27.5 12 L 27.5 11 Z "></path><path fill="rgb(22,47,140)" stroke="rgb(22,47,140)" stroke-width="1" opacity="0.996078431372549" d="M 39.5 11 L 42 11.5 Q 39.9 14.8 39.5 11 Z "></path><path fill="rgb(22,47,140)" stroke="rgb(22,47,140)" stroke-width="1" opacity="0.996078431372549" d="M 35.5 12 L 38 13.5 L 35 14 L 35.5 12 Z "></path><path fill="rgb(22,47,140)" stroke="rgb(22,47,140)" stroke-width="1" opacity="0.996078431372549" d="M 29.5 14 L 32.5 15 L 34 14.5 Q 32.7 18.7 37.5 17 L 42.5 15 L 46 16 Q 44.8 12.3 50 14 L 51 18.5 Q 49.3 16.9 47.5 20 L 43.5 21 L 37.5 20 L 32.5 22 L 30 20.5 L 29.5 25 L 28 15.5 L 29.5 14 Z "></path><path fill="rgb(22,47,140)" stroke="rgb(22,47,140)" stroke-width="1" opacity="0.996078431372549" d="M 25.5 19 L 28 20.5 L 27.5 23 L 25 22.5 L 26.5 20 L 25.5 19 Z "></path><path fill="rgb(22,47,140)" stroke="rgb(22,47,140)" stroke-width="1" opacity="0.996078431372549" d="M 19.5 21 L 20 23.5 L 19 23.5 L 19.5 21 Z "></path><path fill="rgb(22,47,140)" stroke="rgb(22,47,140)" stroke-width="1" opacity="0.996078431372549" d="M 25 26 L 28 26 L 28 33.5 L 26.5 36 Q 23.5 32.9 25 26 Z "></path><path fill="rgb(22,47,140)" stroke="rgb(22,47,140)" stroke-width="1" opacity="0.996078431372549" d="M 14.5 33 Q 21.8 30.7 20 36 L 17 37.5 L 16 39.5 L 18 41.5 L 19 48.5 L 16 56.5 Q 18.8 57.3 18 61.5 L 15.5 62 L 9 65.5 Q 9.9 68.5 5.5 67 L 0 69 L 0 37.5 L 1.5 36 L 3.5 37 L 4 35 L 6.5 34 L 10.5 34 L 14.5 33 Z M 13 41 Q 12 44 16 43 Q 17 40 13 41 Z "></path><path fill="rgb(22,47,140)" stroke="rgb(22,47,140)" stroke-width="1" opacity="0.996078431372549" d="M 22.5 35 Q 25.9 37.6 25 44.5 L 22 46 L 19 37 L 22.5 35 Z "></path><path fill="rgb(50,41,87)" stroke="rgb(50,41,87)" stroke-width="1" opacity="0.996078431372549" d="M 39.5 10 Q 42.1 9.3 41 12 L 43.5 12 L 43.5 13 L 42 13.5 L 46 14 Q 47.3 17 43.5 16 L 41.5 15 L 34 17 Q 32.3 12.5 37.5 14 L 37.5 13 L 35.5 12 L 31.5 13 L 32.5 11 L 39.5 10 Z "></path><path fill="rgb(50,41,87)" stroke="rgb(50,41,87)" stroke-width="1" opacity="0.996078431372549" d="M 20.5 14 L 22 17.5 L 20.5 25 L 20.5 14 Z "></path><path fill="rgb(50,41,87)" stroke="rgb(50,41,87)" stroke-width="1" opacity="0.996078431372549" d="M 30.5 14 L 33 14.5 L 29 16.5 L 29.5 25 L 30.5 20 L 33.5 22 Q 36.2 19.2 42.5 20 L 44.5 20 Q 48.8 20.8 49.5 18 L 51 18.5 L 50 14.5 L 52 15.5 L 51 19.5 L 60 23.5 L 61.5 26 L 63.5 25 L 64.5 27 L 62.5 28 L 59 25.5 L 57.5 28 L 46 29 L 45.5 27 L 43 27.5 L 43 34.5 L 40.5 35 L 31.5 39 L 27.5 43 L 26 42.5 L 25.5 45 L 24.5 35 L 23.5 37 L 22.5 32 L 22 34 Q 18.5 35.1 20 27.5 L 21 27.5 Q 19.5 32.8 24 31 L 24.5 22 L 25 33.5 L 26.5 36 L 28 33.5 L 28 16.5 L 30.5 14 Z M 40 23 Q 40 27 42 24 L 40 23 Z "></path><path fill="rgb(50,41,87)" stroke="rgb(50,41,87)" stroke-width="1" opacity="0.996078431372549" d="M 24.5 16 L 25 20.5 L 24 20.5 L 24.5 16 Z "></path><path fill="rgb(50,41,87)" stroke="rgb(50,41,87)" stroke-width="1" opacity="0.996078431372549" d="M 95.5 31 L 96 33.5 L 95 33.5 L 95.5 31 Z "></path><path fill="rgb(50,41,87)" stroke="rgb(50,41,87)" stroke-width="1" opacity="0.996078431372549" d="M 44.5 35 L 45.5 37 Q 42.7 37.7 44.5 35 Z "></path><path fill="rgb(50,41,87)" stroke="rgb(50,41,87)" stroke-width="1" opacity="0.996078431372549" d="M 51 35 L 53 35.5 L 51.5 38 L 51 35 Z "></path><path fill="rgb(50,41,87)" stroke="rgb(50,41,87)" stroke-width="1" opacity="0.996078431372549" d="M 87.5 35 L 88 37 L 86 36.5 L 87.5 35 Z "></path><path fill="rgb(50,41,87)" stroke="rgb(50,41,87)" stroke-width="1" opacity="0.996078431372549" d="M 95.5 35 L 95 36.5 L 94.5 38 L 94 36.5 L 95.5 35 Z "></path><path fill="rgb(50,41,87)" stroke="rgb(50,41,87)" stroke-width="1" opacity="0.996078431372549" d="M 97.5 37 L 99 38.5 L 97.5 37 Z "></path><path fill="rgb(50,41,87)" stroke="rgb(50,41,87)" stroke-width="1" opacity="0.996078431372549" d="M 77.5 38 L 78.5 40 Q 75.7 40.7 77.5 38 Z "></path><path fill="rgb(50,41,87)" stroke="rgb(50,41,87)" stroke-width="1" opacity="0.996078431372549" d="M 93.5 39 L 96 40 L 97 42.5 L 94 44.5 L 95.5 45 L 97 44.5 L 97.5 46 L 98 44 L 100 44.5 L 100 56.5 L 100 58.5 L 99.5 68 L 97 67 Q 95.8 70 99.5 69 L 99 70.5 L 100 72.5 L 100 74.5 Q 101.3 80.3 98 81.5 L 98.5 83 Q 95.9 83.8 97 80.5 L 95.5 77 L 94 79.5 L 96 82.5 L 95 82.5 L 93.5 80 L 92 80.5 L 93 74.5 L 92.5 73 L 96 71.5 L 96 69.5 Q 92.6 66.7 94 60 L 91 58.5 L 92.5 59 L 94.5 60 L 95 54 L 91.5 53 L 91 55 Q 95.1 53.3 94 57.5 L 90 56.5 L 90.5 55 L 88 53.5 L 90.5 49 L 90.5 51 Q 94.7 52.1 93 48 L 88.5 49 L 86.5 45 L 85 44.5 L 88.5 43 L 90 43.5 L 91.5 42 L 91.5 40 L 93.5 43 L 94 40.5 L 93.5 39 Z M 91 44 L 89 46 L 91 46 L 91 44 Z M 96 49 L 94 52 L 96 52 L 96 49 Z "></path><path fill="rgb(50,41,87)" stroke="rgb(50,41,87)" stroke-width="1" opacity="0.996078431372549" d="M 79.5 41 L 81 42.5 L 79.5 41 Z "></path><path fill="rgb(50,41,87)" stroke="rgb(50,41,87)" stroke-width="1" opacity="0.996078431372549" d="M 82 41 L 85 42.5 L 83.5 45 L 82 41 Z "></path><path fill="rgb(50,41,87)" stroke="rgb(50,41,87)" stroke-width="1" opacity="0.996078431372549" d="M 18.5 58 L 19.5 60 L 23.5 58 L 24.5 60 L 18.5 62 L 18.5 58 Z "></path><path fill="rgb(50,41,87)" stroke="rgb(50,41,87)" stroke-width="1" opacity="0.996078431372549" d="M 16.5 61 L 17 63 L 11 65 Q 12 68 9 67 L 9 69.5 L 6.5 68 L 0.5 70 L 0.5 69 L 9 67 L 10.5 64 L 16.5 61 Z "></path><path fill="rgb(50,41,87)" stroke="rgb(50,41,87)" stroke-width="1" opacity="0.996078431372549" d="M 27.5 61 L 28.5 63 L 27.5 61 Z "></path><path fill="rgb(50,41,87)" stroke="rgb(50,41,87)" stroke-width="1" opacity="0.996078431372549" d="M 21.5 66 L 20.5 68 L 21.5 66 Z "></path><path fill="rgb(50,41,87)" stroke="rgb(50,41,87)" stroke-width="1" opacity="0.996078431372549" d="M 74.5 68 Q 77.9 67.2 76 72 Q 71.9 73.7 73 69.5 L 74.5 68 Z "></path><path fill="rgb(50,41,87)" stroke="rgb(50,41,87)" stroke-width="1" opacity="0.996078431372549" d="M 25.5 69 L 26 71 L 29.5 70 Q 32.3 71.3 30 72.5 L 29.5 74 L 28.5 72 L 26.5 75 L 25 75.5 L 25.5 77 L 22.5 76 L 21 76.5 L 22.5 75 L 22 73.5 L 22 71 Q 25.8 72.3 25.5 69 Z "></path><path fill="rgb(50,41,87)" stroke="rgb(50,41,87)" stroke-width="1" opacity="0.996078431372549" d="M 83.5 72 L 90 72.5 L 85.5 75 L 85 73 L 83.5 72 Z "></path><path fill="rgb(50,41,87)" stroke="rgb(50,41,87)" stroke-width="1" opacity="0.996078431372549" d="M 13.5 73 L 11.5 76 L 13.5 73 Z "></path><path fill="rgb(50,41,87)" stroke="rgb(50,41,87)" stroke-width="1" opacity="0.996078431372549" d="M 6.5 74 L 5.5 76 L 6.5 74 Z "></path><path fill="rgb(50,41,87)" stroke="rgb(50,41,87)" stroke-width="1" opacity="0.996078431372549" d="M 15.5 74 L 20 76.5 L 17 78.5 Q 19.2 79.8 16.5 81 L 16.5 79 L 14 77.5 Q 13.3 74.9 16 76 L 16.5 78 Q 19.5 76.5 16.5 75 L 15.5 74 Z "></path><path fill="rgb(50,41,87)" stroke="rgb(50,41,87)" stroke-width="1" opacity="0.996078431372549" d="M 5.5 77 L 6.5 79 L 5.5 77 Z "></path><path fill="rgb(50,41,87)" stroke="rgb(50,41,87)" stroke-width="1" opacity="0.996078431372549" d="M 81.5 77 L 82.5 80 L 84 80.5 L 83 83.5 L 83.5 88 L 85.5 87 L 87.5 87 L 91 88.5 L 89.5 89 L 87.5 88 L 83 90 Q 81.1 87.3 82 80.5 L 80.5 79 L 78.5 80 L 79.5 78 L 81.5 77 Z "></path><path fill="rgb(50,41,87)" stroke="rgb(50,41,87)" stroke-width="1" opacity="0.996078431372549" d="M 0.5 80 L 3 86.5 L 2 86.5 L 1.5 85 L 0 85.5 L 1 83.5 L 0.5 80 Z "></path><path fill="rgb(50,41,87)" stroke="rgb(50,41,87)" stroke-width="1" opacity="0.996078431372549" d="M 85.5 80 L 86 82.5 L 85 82.5 L 85.5 80 Z "></path><path fill="rgb(50,41,87)" stroke="rgb(50,41,87)" stroke-width="1" opacity="0.996078431372549" d="M 87.5 82 Q 90.5 83.5 87.5 85 L 87.5 82 Z "></path><path fill="rgb(50,41,87)" stroke="rgb(50,41,87)" stroke-width="1" opacity="0.996078431372549" d="M 12.5 85 L 14 85.5 L 11.5 87 L 12.5 85 Z "></path><path fill="rgb(50,41,87)" stroke="rgb(50,41,87)" stroke-width="1" opacity="0.996078431372549" d="M 6 86 L 8 86.5 L 6 87.5 L 6 86 Z "></path><path fill="rgb(50,41,87)" stroke="rgb(50,41,87)" stroke-width="1" opacity="0.996078431372549" d="M 42.5 87 L 47 88.5 L 43.5 89 L 42.5 87 Z "></path><path fill="rgb(50,41,87)" stroke="rgb(50,41,87)" stroke-width="1" opacity="0.996078431372549" d="M 54.5 87 L 57 87.5 L 54.5 88 L 54.5 87 Z "></path><path fill="rgb(50,41,87)" stroke="rgb(50,41,87)" stroke-width="1" opacity="0.996078431372549" d="M 99.5 87 L 100 89.5 L 99 89.5 L 99.5 87 Z "></path><path fill="rgb(50,41,87)" stroke="rgb(50,41,87)" stroke-width="1" opacity="0.996078431372549" d="M 50.5 88 L 53 88.5 L 48.5 90 L 48.5 89 L 50.5 88 Z "></path><path fill="rgb(50,41,87)" stroke="rgb(50,41,87)" stroke-width="1" opacity="0.996078431372549" d="M 80.5 90 L 81.5 92 L 83 91.5 Q 81.5 94.5 80 91.5 L 80.5 90 Z "></path><path fill="rgb(50,41,87)" stroke="rgb(50,41,87)" stroke-width="1" opacity="0.996078431372549" d="M 2.5 94 L 5 95 Q 6.8 99.5 1.5 98 L 1.5 99 L 3 99.5 L 0 100 L 1 96.5 L 0.5 95 L 2.5 94 Z "></path><path fill="rgb(50,41,87)" stroke="rgb(50,41,87)" stroke-width="1" opacity="0.996078431372549" d="M 36 95 L 46 96 L 46 100 L 38.5 100 L 36 95 Z "></path><path fill="rgb(50,41,87)" stroke="rgb(50,41,87)" stroke-width="1" opacity="0.996078431372549" d="M 6 97 Q 9 96 8 99 Q 5 100 6 97 Z "></path><path fill="rgb(97,50,100)" stroke="rgb(97,50,100)" stroke-width="1" opacity="0.996078431372549" d="M 59.5 25 L 62 25.5 L 62 27.5 L 61 32.5 Q 64.8 34.3 61.5 36 L 61.5 34 L 59.5 35 L 59 33 L 53 29.5 L 59 26.5 L 59.5 25 Z "></path><path fill="rgb(97,50,100)" stroke="rgb(97,50,100)" stroke-width="1" opacity="0.996078431372549" d="M 78.5 28 L 77.5 30 L 76 29.5 L 78.5 28 Z "></path><path fill="rgb(97,50,100)" stroke="rgb(97,50,100)" stroke-width="1" opacity="0.996078431372549" d="M 95.5 30 L 97 31.5 L 95.5 30 Z "></path><path fill="rgb(97,50,100)" stroke="rgb(97,50,100)" stroke-width="1" opacity="0.996078431372549" d="M 65.5 31 L 68.5 34 L 71 35.5 Q 69.8 38.3 68.5 36 L 67 34.5 L 65.5 31 Z "></path><path fill="rgb(97,50,100)" stroke="rgb(97,50,100)" stroke-width="1" opacity="0.996078431372549" d="M 73.5 31 L 75.5 34 L 73.5 31 Z "></path><path fill="rgb(97,50,100)" stroke="rgb(97,50,100)" stroke-width="1" opacity="0.996078431372549" d="M 80.5 31 L 82 34 L 85 34.5 L 83 37.5 L 84.5 37 L 86 38.5 L 88 39.5 L 87 37.5 L 89.5 33 L 93.5 40 L 95.5 37 Q 101.7 40.5 99.5 44 L 98 45.5 L 97 45.5 L 96 43.5 L 96 41.5 Q 96.7 38.9 94 40 L 93.5 43 L 92.5 41 L 90 41.5 L 91 46 L 89 45.5 Q 91.3 44.3 88.5 43 L 85 44.5 L 88 46.5 L 88.5 49 L 93 48 Q 94.7 52.1 90.5 51 Q 89.3 48.8 88 51.5 L 87.5 53 L 86 50.5 L 86.5 49 L 85 47.5 L 84 43.5 Q 86.3 42.3 83.5 41 L 81.5 42 L 78 40.5 L 78 38.5 L 77.5 37 L 76.5 40 L 74.5 37 L 71.5 38 L 73.5 35 L 78 36 L 77 32.5 L 80.5 31 Z "></path><path fill="rgb(97,50,100)" stroke="rgb(97,50,100)" stroke-width="1" opacity="0.996078431372549" d="M 91 32 L 93 32.5 L 91 33.5 L 91 32 Z "></path><path fill="rgb(97,50,100)" stroke="rgb(97,50,100)" stroke-width="1" opacity="0.996078431372549" d="M 45.5 35 L 47 36.5 L 45.5 35 Z "></path><path fill="rgb(97,50,100)" stroke="rgb(97,50,100)" stroke-width="1" opacity="0.996078431372549" d="M 50.5 35 L 51 38 L 53 37.5 Q 50.8 36.3 53.5 35 L 56 36.5 L 51 39.5 L 52 42 L 58.5 44 L 62 42 L 63 47.5 L 57.5 51 L 57.5 49 Q 54.2 50.1 55 47.5 L 53.5 46 Q 51.8 49.8 50 46.5 L 49 42 Q 51.7 43.1 51 40.5 L 49 36.5 L 50.5 35 Z "></path><path fill="rgb(97,50,100)" stroke="rgb(97,50,100)" stroke-width="1" opacity="0.996078431372549" d="M 99.5 35 L 100 38.5 L 99 38.5 L 99.5 35 Z "></path><path fill="rgb(97,50,100)" stroke="rgb(97,50,100)" stroke-width="1" opacity="0.996078431372549" d="M 81.5 43 L 82.5 45 L 81.5 43 Z "></path><path fill="rgb(97,50,100)" stroke="rgb(97,50,100)" stroke-width="1" opacity="0.996078431372549" d="M 36.5 46 L 37.5 48 L 36.5 46 Z "></path><path fill="rgb(97,50,100)" stroke="rgb(97,50,100)" stroke-width="1" opacity="0.996078431372549" d="M 35.5 49 Q 38.5 50.5 35.5 52 L 34 51.5 L 36 50.5 L 35.5 49 Z "></path><path fill="rgb(97,50,100)" stroke="rgb(97,50,100)" stroke-width="1" opacity="0.996078431372549" d="M 28.5 50 L 33 52.5 L 26 57.5 L 26.5 59 L 23.5 58 L 20.5 59 L 23 55.5 Q 22.2 52.9 25.5 54 L 28.5 50 Z "></path><path fill="rgb(97,50,100)" stroke="rgb(97,50,100)" stroke-width="1" opacity="0.996078431372549" d="M 45.5 50 L 49 51.5 L 47.5 52 L 45.5 50 Z "></path><path fill="rgb(97,50,100)" stroke="rgb(97,50,100)" stroke-width="1" opacity="0.996078431372549" d="M 58.5 52 L 61 52.5 L 58.5 53 L 58.5 52 Z "></path><path fill="rgb(97,50,100)" stroke="rgb(97,50,100)" stroke-width="1" opacity="0.996078431372549" d="M 95.5 53 L 96.5 55 L 95.5 53 Z "></path><path fill="rgb(97,50,100)" stroke="rgb(97,50,100)" stroke-width="1" opacity="0.996078431372549" d="M 89.5 55 L 93 57.5 L 92.5 59 L 91 56 L 89.5 55 Z "></path><path fill="rgb(97,50,100)" stroke="rgb(97,50,100)" stroke-width="1" opacity="0.996078431372549" d="M 62.5 57 L 63.5 59 L 65.5 58 L 67.5 59 L 73.5 58 L 84.5 65 L 89.5 65 L 91 62.5 L 90.5 59 Q 95.5 62.5 95 71.5 L 91.5 74 L 89.5 72 Q 83.3 73.7 81.5 71 L 81 72.5 L 84 79 L 87 80.5 L 85 80.5 L 83.5 82 L 83.5 80 L 82 79.5 Q 84.3 78.3 81.5 77 Q 75.6 83.1 65.5 85 Q 64 82.5 62.5 86 L 56.5 87 L 55.5 85 L 57 85.5 L 58.5 83 L 62.5 83 L 71 78.5 L 69.5 76 L 52 65.5 L 53.5 65 L 59.5 69 L 62.5 69 L 66.5 68 Q 68.2 70.8 70 66.5 L 69 62.5 Q 71.3 61.3 68.5 60 L 64.5 59 L 61.5 61 L 56 58.5 L 58.5 58 L 60.5 59 L 62.5 57 Z M 75 68 L 73 70 Q 72 74 76 72 Q 78 67 75 68 Z "></path><path fill="rgb(97,50,100)" stroke="rgb(97,50,100)" stroke-width="1" opacity="0.996078431372549" d="M 38.5 58 L 39.5 60 Q 36.7 60.7 38.5 58 Z "></path><path fill="rgb(97,50,100)" stroke="rgb(97,50,100)" stroke-width="1" opacity="0.996078431372549" d="M 29.5 59 L 30 60.5 L 25.5 64 L 26.5 62 L 28 60.5 L 29.5 59 Z "></path><path fill="rgb(97,50,100)" stroke="rgb(97,50,100)" stroke-width="1" opacity="0.996078431372549" d="M 45.5 62 L 50 62.5 L 44.5 64 L 45.5 62 Z "></path><path fill="rgb(97,50,100)" stroke="rgb(97,50,100)" stroke-width="1" opacity="0.996078431372549" d="M 39.5 63 L 43 63.5 Q 41.8 66.3 40.5 64 L 39.5 63 Z "></path><path fill="rgb(97,50,100)" stroke="rgb(97,50,100)" stroke-width="1" opacity="0.996078431372549" d="M 13.5 72 L 11.5 75 L 11 73 L 13.5 72 Z "></path><path fill="rgb(97,50,100)" stroke="rgb(97,50,100)" stroke-width="1" opacity="0.996078431372549" d="M 33.5 73 L 35 75.5 L 33 74.5 L 33.5 73 Z "></path><path fill="rgb(97,50,100)" stroke="rgb(97,50,100)" stroke-width="1" opacity="0.996078431372549" d="M 18.5 81 L 36.5 87 L 38 86.5 L 39.5 89 L 50 93 L 52 97.5 L 51.5 100 L 49.5 100 L 46 100 Q 48.2 94.4 42.5 96 L 36 95 L 38 99.5 L 22 100 L 19.5 96 L 4 89.5 L 7.5 87 L 9.5 88 L 9.5 86 L 11.5 85 L 13.5 86 L 14.5 83 L 18.5 81 Z "></path><path fill="rgb(97,50,100)" stroke="rgb(97,50,100)" stroke-width="1" opacity="0.996078431372549" d="M 87.5 83 L 86.5 85 L 87.5 83 Z "></path><path fill="rgb(97,50,100)" stroke="rgb(97,50,100)" stroke-width="1" opacity="0.996078431372549" d="M 41 85 L 45 87.5 L 43.5 87 Q 39.8 88 41 85 Z "></path><path fill="rgb(97,50,100)" stroke="rgb(97,50,100)" stroke-width="1" opacity="0.996078431372549" d="M 83.5 85 Q 86.5 86.5 83.5 88 L 83.5 85 Z "></path><path fill="rgb(97,50,100)" stroke="rgb(97,50,100)" stroke-width="1" opacity="0.996078431372549" d="M 87.5 86 L 86.5 88 L 87.5 86 Z "></path><path fill="rgb(97,50,100)" stroke="rgb(97,50,100)" stroke-width="1" opacity="0.996078431372549" d="M 48.5 87 Q 51.1 86.3 50 89 L 47 88.5 L 48.5 87 Z "></path><path fill="rgb(97,50,100)" stroke="rgb(97,50,100)" stroke-width="1" opacity="0.996078431372549" d="M 93.5 88 L 96.5 90 L 97 88 L 99 88.5 L 98 90.5 L 100 90.5 Q 102 97.4 98 96 L 97 92.5 L 97.5 91 L 93 92.5 L 93 94.5 L 92 97.5 L 93 100 L 79 99.5 Q 84 98 83 92 L 90 94 L 89 90.5 L 92 91.5 Q 91.2 88.9 94.5 90 L 94.5 89 L 93.5 88 Z "></path><path fill="rgb(97,50,100)" stroke="rgb(97,50,100)" stroke-width="1" opacity="0.996078431372549" d="M 55.5 97 L 53.5 100 L 55.5 97 Z "></path><path fill="rgb(97,50,100)" stroke="rgb(97,50,100)" stroke-width="1" opacity="0.996078431372549" d="M 97.5 97 L 99 98.5 L 96 100 L 97.5 97 Z "></path><path fill="rgb(97,50,100)" stroke="rgb(97,50,100)" stroke-width="1" opacity="0.996078431372549" d="M 8.5 98 L 11 99.5 L 6.5 100 L 6.5 99 L 8.5 98 Z "></path><path fill="rgb(97,50,100)" stroke="rgb(97,50,100)" stroke-width="1" opacity="0.996078431372549" d="M 69 98 Q 72 97 71 100 Q 68 101 69 98 Z "></path><path fill="rgb(204,203,251)" stroke="rgb(204,203,251)" stroke-width="1" opacity="0.996078431372549" d="M 0 0 L 99.5 0 L 100 0.5 L 100 10.5 L 98.5 13 L 100 13 L 100 18 L 98 18.5 L 100 19.5 L 97 20 L 96 28 L 82.5 26 L 81.5 27 L 68.5 27 L 61.5 25 L 55 19.5 L 55 17.5 L 51.5 12 L 49.5 13 L 42.5 12 L 40.5 10 L 31.5 10 L 27.5 10 L 19.5 12 L 18.5 11 L 15.5 14 L 14 15.5 L 8 24.5 L 11 29 Q 13.7 27.9 13 30.5 L 14 34 L 0 32 L 0 0 Z "></path><path fill="rgb(204,203,251)" stroke="rgb(204,203,251)" stroke-width="1" opacity="0.996078431372549" d="M 33.5 52 Q 35 55.5 36.5 53 L 38 53.5 L 36.5 56 L 35 55.5 Q 34.2 58.5 38 57 L 40.5 52 L 40 53.5 L 40.5 55 L 42.5 52 L 43.5 54 L 44.5 52 L 46.5 52 Q 49.8 50.9 49 53.5 L 54 57.5 L 52.5 60 L 51.5 58 L 47.5 60 L 45 59.5 L 45.5 58 L 41.5 59 Q 40 55.5 38.5 58 L 32.5 59 L 29.5 58 Q 28.3 60.3 27 57.5 L 29.5 56 L 33 57 L 34 53.5 L 33.5 52 Z "></path><path fill="rgb(204,203,251)" stroke="rgb(204,203,251)" stroke-width="1" opacity="0.996078431372549" d="M 62.5 54 L 61.5 56 L 62.5 54 Z "></path><path fill="rgb(204,203,251)" stroke="rgb(204,203,251)" stroke-width="1" opacity="0.996078431372549" d="M 26.5 67 L 29 68.5 L 27 69.5 L 26.5 67 Z "></path><path fill="rgb(204,203,251)" stroke="rgb(204,203,251)" stroke-width="1" opacity="0.996078431372549" d="M 30.5 70 L 33 70.5 L 30.5 71 L 30.5 70 Z "></path><path fill="rgb(168,149,219)" stroke="rgb(168,149,219)" stroke-width="1" opacity="0.996078431372549" d="M 31.5 10 L 34 10.5 L 31.5 11 L 31.5 10 Z "></path><path fill="rgb(168,149,219)" stroke="rgb(168,149,219)" stroke-width="1" opacity="0.996078431372549" d="M 18.5 11 L 20 14.5 L 19 15.5 L 19 25.5 L 15.5 31 L 13 31 L 11 27.5 L 8 23.5 L 14 14 L 18.5 11 Z "></path><path fill="rgb(168,149,219)" stroke="rgb(168,149,219)" stroke-width="1" opacity="0.996078431372549" d="M 46.5 12 L 50.5 13 Q 52.3 10.3 54 14.5 L 56 18.5 L 55.5 21 L 53 20 Q 54 15.3 50.5 14 L 46.5 13 L 46.5 12 Z "></path><path fill="rgb(168,149,219)" stroke="rgb(168,149,219)" stroke-width="1" opacity="0.996078431372549" d="M 99.5 20 L 100 28 Q 94 30.3 96 23.5 L 99 22 L 99.5 20 Z "></path><path fill="rgb(168,149,219)" stroke="rgb(168,149,219)" stroke-width="1" opacity="0.996078431372549" d="M 88.5 27 Q 91.8 25.9 91 28.5 L 89.5 28 L 88.5 27 Z "></path><path fill="rgb(168,149,219)" stroke="rgb(168,149,219)" stroke-width="1" opacity="0.996078431372549" d="M 44 29 Q 46.7 27.9 46 30.5 L 44.5 33 L 44 29 Z "></path><path fill="rgb(168,149,219)" stroke="rgb(168,149,219)" stroke-width="1" opacity="0.996078431372549" d="M 0.5 32 L 4 32.5 L 0.5 33 L 0.5 32 Z "></path><path fill="rgb(168,149,219)" stroke="rgb(168,149,219)" stroke-width="1" opacity="0.996078431372549" d="M 6.5 33 L 12 33.5 L 6.5 34 L 6.5 33 Z "></path><path fill="rgb(168,149,219)" stroke="rgb(168,149,219)" stroke-width="1" opacity="0.996078431372549" d="M 19.5 36 L 18.5 38 L 19.5 36 Z "></path><path fill="rgb(168,149,219)" stroke="rgb(168,149,219)" stroke-width="1" opacity="0.996078431372549" d="M 47.5 38 L 45.5 41 L 47.5 38 Z "></path><path fill="rgb(168,149,219)" stroke="rgb(168,149,219)" stroke-width="1" opacity="0.996078431372549" d="M 30.5 40 L 32 40.5 L 29 42.5 L 32 43 L 33 45.5 L 31.5 46 L 29 44.5 L 30 47.5 L 27.5 49 L 25.5 49 L 19.5 54 Q 14.8 51.8 19 49.5 L 19 48 L 24 48 Q 22.9 45.3 25.5 46 L 30.5 40 Z "></path><path fill="rgb(168,149,219)" stroke="rgb(168,149,219)" stroke-width="1" opacity="0.996078431372549" d="M 48.5 48 L 51 48.5 L 50 51 Q 46.5 52.1 48.5 48 Z "></path><path fill="rgb(168,149,219)" stroke="rgb(168,149,219)" stroke-width="1" opacity="0.996078431372549" d="M 36.5 52 L 40 52.5 L 37 54.5 L 37.5 53 L 35.5 54 L 36.5 52 Z "></path><path fill="rgb(168,149,219)" stroke="rgb(168,149,219)" stroke-width="1" opacity="0.996078431372549" d="M 61.5 52 L 63 53.5 L 61.5 52 Z "></path><path fill="rgb(168,149,219)" stroke="rgb(168,149,219)" stroke-width="1" opacity="0.996078431372549" d="M 32.5 53 L 34 54.5 L 33 57 L 31 56.5 Q 34.1 54.8 32.5 53 Z "></path><path fill="rgb(168,149,219)" stroke="rgb(168,149,219)" stroke-width="1" opacity="0.996078431372549" d="M 35.5 55 L 38 56.5 L 35 57 L 35.5 55 Z "></path><path fill="rgb(168,149,219)" stroke="rgb(168,149,219)" stroke-width="1" opacity="0.996078431372549" d="M 39.5 57 L 40.5 59 Q 37.7 59.7 39.5 57 Z "></path><path fill="rgb(168,149,219)" stroke="rgb(168,149,219)" stroke-width="1" opacity="0.996078431372549" d="M 42.5 57 L 45 58.5 L 43.5 59 L 42.5 57 Z "></path><path fill="rgb(168,149,219)" stroke="rgb(168,149,219)" stroke-width="1" opacity="0.996078431372549" d="M 29.5 58 L 37 60 L 39 65.5 L 36 72.5 L 36.5 74 L 32 71.5 L 32.5 70 L 28 69.5 Q 30.5 68 27 66.5 L 27 64.5 L 32 59.5 L 29.5 58 Z "></path><path fill="rgb(168,149,219)" stroke="rgb(168,149,219)" stroke-width="1" opacity="0.996078431372549" d="M 49.5 58 L 47.5 61 L 49.5 58 Z "></path><path fill="rgb(168,149,219)" stroke="rgb(168,149,219)" stroke-width="1" opacity="0.996078431372549" d="M 25.5 68 L 26.5 70 L 25.5 68 Z "></path><path fill="rgb(132,72,129)" stroke="rgb(132,72,129)" stroke-width="1" opacity="0.996078431372549" d="M 36.5 10 L 39 10.5 L 36.5 11 L 36.5 10 Z "></path><path fill="rgb(132,72,129)" stroke="rgb(132,72,129)" stroke-width="1" opacity="0.996078431372549" d="M 26.5 11 L 27 12.5 L 25.5 15 L 25 13.5 L 26.5 11 Z "></path><path fill="rgb(132,72,129)" stroke="rgb(132,72,129)" stroke-width="1" opacity="0.996078431372549" d="M 31.5 11 L 30.5 13 L 31.5 11 Z "></path><path fill="rgb(132,72,129)" stroke="rgb(132,72,129)" stroke-width="1" opacity="0.996078431372549" d="M 44.5 12 L 43.5 14 L 44.5 12 Z "></path><path fill="rgb(132,72,129)" stroke="rgb(132,72,129)" stroke-width="1" opacity="0.996078431372549" d="M 68.5 27 L 71.5 28 L 74.5 27 L 74.5 28 L 73 28.5 L 75.5 29 L 77.5 28 L 79 28.5 Q 78.3 25.9 81 27 Q 81.8 30.8 78.5 32 Q 75.9 31.2 77 34.5 L 77.5 36 L 73.5 35 L 70.5 37 L 70.5 35 Q 67.5 35.7 69 32 L 72.5 33 Q 75.3 31.7 73 30.5 L 71.5 29 L 71.5 31 L 69 29.5 L 67.5 34 L 66 29.5 L 68.5 27 Z "></path><path fill="rgb(132,72,129)" stroke="rgb(132,72,129)" stroke-width="1" opacity="0.996078431372549" d="M 45.5 28 L 49 29.5 L 48.5 31 L 51 30.5 L 50.5 29 L 59 33 L 59.5 35 L 62 33.5 Q 59.5 32 63 30.5 L 63.5 29 Q 66.3 30.3 64 31.5 L 67 35.5 L 65 36 L 64.5 34 L 63 36.5 Q 66 39.5 65 46.5 L 64 48.5 L 66 48.5 Q 64.8 51.3 63.5 49 L 62 48.5 L 63 44.5 L 62 42 L 55.5 45 L 55.5 43 L 52 42 L 51.5 40 Q 50.3 42.3 49 39.5 L 48.5 37 L 46.5 38 L 47 36.5 L 46 34.5 L 50 32.5 L 45.5 28 Z M 49 34 L 50 35 Q 48 37 52 39 L 56 37 Q 54 33 49 34 Z M 60 35 L 60 37 L 62 36 L 60 35 Z "></path><path fill="rgb(132,72,129)" stroke="rgb(132,72,129)" stroke-width="1" opacity="0.996078431372549" d="M 96.5 29 L 97.5 31 L 96.5 29 Z "></path><path fill="rgb(132,72,129)" stroke="rgb(132,72,129)" stroke-width="1" opacity="0.996078431372549" d="M 82.5 30 L 84 33.5 L 82 34 L 81.5 32 L 80 32.5 L 82.5 30 Z "></path><path fill="rgb(132,72,129)" stroke="rgb(132,72,129)" stroke-width="1" opacity="0.996078431372549" d="M 88.5 31 L 92.5 34 L 94.5 31 L 95 33.5 Q 91.5 35 94 36.5 Q 95 40.3 92 39 L 91.5 37 L 90 37.5 L 91 35.5 L 88.5 31 Z "></path><path fill="rgb(132,72,129)" stroke="rgb(132,72,129)" stroke-width="1" opacity="0.996078431372549" d="M 4.5 34 L 3.5 36 L 0.5 37 L 1.5 35 L 4.5 34 Z "></path><path fill="rgb(132,72,129)" stroke="rgb(132,72,129)" stroke-width="1" opacity="0.996078431372549" d="M 84.5 35 L 88 39.5 L 86 40.5 L 86 38.5 L 84.5 37 L 83 37.5 L 84.5 35 Z "></path><path fill="rgb(132,72,129)" stroke="rgb(132,72,129)" stroke-width="1" opacity="0.996078431372549" d="M 98.5 35 L 99 37 L 95 36.5 L 98.5 35 Z "></path><path fill="rgb(132,72,129)" stroke="rgb(132,72,129)" stroke-width="1" opacity="0.996078431372549" d="M 97.5 38 L 100 39 L 99.5 41 L 97.5 38 Z "></path><path fill="rgb(132,72,129)" stroke="rgb(132,72,129)" stroke-width="1" opacity="0.996078431372549" d="M 89.5 40 L 90.5 42 L 89.5 40 Z "></path><path fill="rgb(132,72,129)" stroke="rgb(132,72,129)" stroke-width="1" opacity="0.996078431372549" d="M 45.5 42 L 47.5 42 Q 50.1 41.2 49 44.5 L 51 47.5 L 45 48.5 L 47 49.5 L 45 50.5 L 45.5 52 Q 40.8 49.8 45 47.5 L 45.5 42 Z "></path><path fill="rgb(132,72,129)" stroke="rgb(132,72,129)" stroke-width="1" opacity="0.996078431372549" d="M 81.5 45 L 84 45.5 Q 81.9 48.8 81.5 45 Z "></path><path fill="rgb(132,72,129)" stroke="rgb(132,72,129)" stroke-width="1" opacity="0.996078431372549" d="M 37.5 46 L 38.5 48 L 37.5 46 Z "></path><path fill="rgb(132,72,129)" stroke="rgb(132,72,129)" stroke-width="1" opacity="0.996078431372549" d="M 53.5 46 L 54 48 L 52 47.5 L 53.5 46 Z "></path><path fill="rgb(132,72,129)" stroke="rgb(132,72,129)" stroke-width="1" opacity="0.996078431372549" d="M 84.5 47 L 84.5 49 Q 87.1 48.2 86 51.5 L 92 59.5 Q 88.5 61 91 62.5 L 89.5 65 L 84.5 65 L 73.5 58 L 68.5 58 L 66 59 Q 64.7 55.7 69.5 57 L 71.5 56 L 77.5 58 L 77 56.5 Q 75.7 51.9 81.5 54 L 87 55 L 86.5 53 Q 85.2 55.3 84 52.5 L 83 48.5 L 84.5 47 Z "></path><path fill="rgb(132,72,129)" stroke="rgb(132,72,129)" stroke-width="1" opacity="0.996078431372549" d="M 33.5 48 L 38 49.5 L 36 50.5 L 38 51.5 L 36.5 52 L 34.5 51 L 31.5 52 L 29 50.5 L 33.5 48 Z M 34 49 L 33 51 L 36 50 L 34 49 Z "></path><path fill="rgb(132,72,129)" stroke="rgb(132,72,129)" stroke-width="1" opacity="0.996078431372549" d="M 27.5 50 L 27 51.5 L 25.5 54 Q 22.2 52.9 23 55.5 L 19.5 59 L 18.5 58 L 17 56.5 L 18.5 57 L 20 55.5 L 27.5 50 Z "></path><path fill="rgb(132,72,129)" stroke="rgb(132,72,129)" stroke-width="1" opacity="0.996078431372549" d="M 58.5 51 L 64 51.5 L 58.5 52 L 58.5 51 Z "></path><path fill="rgb(132,72,129)" stroke="rgb(132,72,129)" stroke-width="1" opacity="0.996078431372549" d="M 73 52 Q 76 51 75 54 Q 72 55 73 52 Z "></path><path fill="rgb(132,72,129)" stroke="rgb(132,72,129)" stroke-width="1" opacity="0.996078431372549" d="M 57.5 53 L 58 55.5 L 56 57.5 L 57.5 59 L 59 62 L 56.5 61 L 55 64.5 Q 58.1 66.3 56.5 68 L 59.5 67 L 63 68.5 L 59 69.5 L 65.5 74 L 67 73.5 L 66.5 75 L 71 77.5 L 69.5 80 L 63 82.5 L 64.5 85 Q 63.5 82 58.5 83 L 55.5 87 L 50.5 88 L 48.5 87 L 45.5 88 L 44.5 86 L 46 85.5 L 41.5 85 Q 40.3 87.3 39 84.5 L 44.5 82 L 48.5 83 L 56 77.5 L 57 72.5 L 54.5 69 L 42.5 65 L 38.5 67 L 39 65.5 L 40.5 64 L 42.5 64 L 50 62.5 L 45.5 62 L 38.5 63 L 37 59.5 L 38.5 60 L 40.5 59 L 40.5 61 Q 50.9 62.4 55 57.5 L 57.5 53 Z M 54 64 L 52 66 L 54 66 L 54 64 Z "></path><path fill="rgb(132,72,129)" stroke="rgb(132,72,129)" stroke-width="1" opacity="0.996078431372549" d="M 31.5 55 L 30.5 57 L 31.5 55 Z "></path><path fill="rgb(132,72,129)" stroke="rgb(132,72,129)" stroke-width="1" opacity="0.996078431372549" d="M 58.5 57 L 60 58.5 L 58.5 57 Z "></path><path fill="rgb(132,72,129)" stroke="rgb(132,72,129)" stroke-width="1" opacity="0.996078431372549" d="M 63.5 58 L 70 61.5 L 70 63.5 Q 70.8 68.3 67.5 69 L 62 66.5 L 64 65.5 L 63 63 L 61 62.5 L 63 62 L 64 59.5 L 63.5 58 Z "></path><path fill="rgb(132,72,129)" stroke="rgb(132,72,129)" stroke-width="1" opacity="0.996078431372549" d="M 20.5 68 L 16.5 73 L 20.5 68 Z "></path><path fill="rgb(132,72,129)" stroke="rgb(132,72,129)" stroke-width="1" opacity="0.996078431372549" d="M 19.5 72 L 22 72.5 L 19.5 73 L 19.5 72 Z "></path><path fill="rgb(132,72,129)" stroke="rgb(132,72,129)" stroke-width="1" opacity="0.996078431372549" d="M 82 73 Q 85 71.8 84 75.5 L 82 76.5 L 82 74.5 L 82 73 Z "></path><path fill="rgb(132,72,129)" stroke="rgb(132,72,129)" stroke-width="1" opacity="0.996078431372549" d="M 84.5 77 L 85.5 79 Q 82.7 79.7 84.5 77 Z "></path><path fill="rgb(132,72,129)" stroke="rgb(132,72,129)" stroke-width="1" opacity="0.996078431372549" d="M 88.5 78 L 90 81 L 92 81.5 L 90.5 82 L 88.5 81 L 88.5 83 L 87 82.5 L 86.5 84 L 86 81 Q 89.1 82.1 88.5 78 Z "></path><path fill="rgb(132,72,129)" stroke="rgb(132,72,129)" stroke-width="1" opacity="0.996078431372549" d="M 18.5 79 L 22.5 81 Q 32.1 79.9 37 82 L 36.5 87 Q 29.6 82.1 19 82 L 18.5 79 Z "></path><path fill="rgb(132,72,129)" stroke="rgb(132,72,129)" stroke-width="1" opacity="0.996078431372549" d="M 99.5 82 L 100 84.5 L 99 84.5 L 99.5 82 Z "></path><path fill="rgb(132,72,129)" stroke="rgb(132,72,129)" stroke-width="1" opacity="0.996078431372549" d="M 83.5 84 L 86 85 L 85.5 87 L 83.5 84 Z "></path><path fill="rgb(132,72,129)" stroke="rgb(132,72,129)" stroke-width="1" opacity="0.996078431372549" d="M 3.5 89 L 10.5 93 L 16.5 94 L 22 98.5 L 21.5 100 L 13.5 100 L 10.5 99 L 0 92.5 L 1 90 L 3.5 89 Z "></path><path fill="rgb(132,72,129)" stroke="rgb(132,72,129)" stroke-width="1" opacity="0.996078431372549" d="M 84.5 90 L 83.5 92 L 84.5 90 Z "></path><path fill="rgb(132,72,129)" stroke="rgb(132,72,129)" stroke-width="1" opacity="0.996078431372549" d="M 50.5 93 L 53 93.5 Q 52.2 96.1 55.5 95 L 58 96 Q 59.7 100.1 55.5 99 L 54 99.5 L 55.5 97 L 53 98.5 L 52.5 100 L 50 99.5 Q 53.5 98 51 96.5 L 50.5 93 Z "></path><path fill="rgb(132,72,129)" stroke="rgb(132,72,129)" stroke-width="1" opacity="0.996078431372549" d="M 68.5 96 L 70 97.5 L 69 100 Q 66 101.3 67 97.5 L 68.5 96 Z "></path><path fill="rgb(132,72,129)" stroke="rgb(132,72,129)" stroke-width="1" opacity="0.996078431372549" d="M 99.5 98 L 100 100 L 98 99.5 L 99.5 98 Z "></path><path fill="rgb(171,91,139)" stroke="rgb(171,91,139)" stroke-width="1" opacity="0.996078431372549" d="M 48.5 30 L 51 30.5 L 48.5 31 L 48.5 30 Z "></path><path fill="rgb(171,91,139)" stroke="rgb(171,91,139)" stroke-width="1" opacity="0.996078431372549" d="M 47.5 32 L 50 32.5 L 47.5 33 L 47.5 32 Z "></path><path fill="rgb(171,91,139)" stroke="rgb(171,91,139)" stroke-width="1" opacity="0.996078431372549" d="M 49.5 34 L 53 34.5 L 49.5 35 L 49.5 34 Z "></path><path fill="rgb(171,91,139)" stroke="rgb(171,91,139)" stroke-width="1" opacity="0.996078431372549" d="M 64.5 36 Q 77.8 37.7 84 46.5 L 85 48.5 L 84 52.5 L 87 53.5 L 88 55.5 L 86.5 55 L 77 54 L 78 57.5 L 76.5 58 L 70.5 56 L 63.5 58 L 62.5 57 L 60 58.5 Q 58.9 55.2 61.5 56 L 60.5 54 L 57.5 55 L 54 54.5 L 55 57.5 L 54 57.5 L 52.5 56 L 50 55 L 49 52.5 L 50 49.5 L 49.5 48 L 51.5 48 L 54.5 47 L 55 49 L 58 49.5 L 57 51.5 L 62 53 L 62.5 55 L 63 52 L 65 51.5 L 59 50.5 L 65 49.5 L 64 47.5 L 65 40.5 L 64.5 36 Z M 56 51 Q 54 54 57 53 L 56 51 Z M 73 52 Q 72 55 75 54 Q 76 51 73 52 Z "></path><path fill="rgb(171,91,139)" stroke="rgb(171,91,139)" stroke-width="1" opacity="0.996078431372549" d="M 41.5 37 L 46 41.5 L 45 42.5 L 45 48 Q 48.8 46.5 48 49.5 L 46.5 49 L 44.5 50 L 43.5 47 L 42 47 L 42 52 L 38.5 52 L 37.5 49 L 33.5 48 L 33.5 49 L 35 49.5 L 33 50.5 Q 33.8 47.9 30.5 49 L 33 45.5 L 36.5 41 L 41 39 L 41.5 37 Z M 35 44 L 36 46 L 35 44 Z M 37 46 L 38 48 L 39 48 L 37 46 Z "></path><path fill="rgb(171,91,139)" stroke="rgb(171,91,139)" stroke-width="1" opacity="0.996078431372549" d="M 48.5 37 L 51 41.5 L 48 42 L 47 39.5 L 48.5 37 Z "></path><path fill="rgb(171,91,139)" stroke="rgb(171,91,139)" stroke-width="1" opacity="0.996078431372549" d="M 18.5 40 L 22 45.5 L 19 47 L 18.5 40 Z "></path><path fill="rgb(171,91,139)" stroke="rgb(171,91,139)" stroke-width="1" opacity="0.996078431372549" d="M 55.5 59 L 54.5 61 L 55.5 59 Z "></path><path fill="rgb(171,91,139)" stroke="rgb(171,91,139)" stroke-width="1" opacity="0.996078431372549" d="M 59 60 L 63 61.5 L 61 62.5 L 63 63 L 64 65.5 L 62 66.5 L 64 67.5 L 60.5 68 L 55 64.5 L 56.5 61 L 59 62 L 59 60 Z "></path><path fill="rgb(171,91,139)" stroke="rgb(171,91,139)" stroke-width="1" opacity="0.996078431372549" d="M 42.5 65 Q 44.8 67.7 50.5 67 L 56 70.5 L 57 75.5 L 54.5 79 L 49.5 82 L 50 80.5 Q 52.8 77.8 52 71.5 Q 50.5 68.5 44.5 70 L 40 66.5 L 42.5 65 Z "></path><path fill="rgb(171,91,139)" stroke="rgb(171,91,139)" stroke-width="1" opacity="0.996078431372549" d="M 59 90 L 69 95.5 L 67 100 L 55 99.5 L 58 99 L 58 96 Q 55.3 97.1 56 94.5 L 59 90 Z "></path><path fill="rgb(171,91,139)" stroke="rgb(171,91,139)" stroke-width="1" opacity="0.996078431372549" d="M 54.5 97 L 53.5 99 L 54.5 97 Z "></path><path fill="rgb(36,18,56)" stroke="rgb(36,18,56)" stroke-width="1" opacity="0.996078431372549" d="M 24.5 35 L 25 38.5 L 24 38.5 L 24.5 35 Z "></path><path fill="rgb(36,18,56)" stroke="rgb(36,18,56)" stroke-width="1" opacity="0.996078431372549" d="M 27.5 41 L 27 42.5 L 26.5 44 L 26 42.5 L 27.5 41 Z "></path><path fill="rgb(36,18,56)" stroke="rgb(36,18,56)" stroke-width="1" opacity="0.996078431372549" d="M 95.5 43 L 96 45 L 94 44.5 L 95.5 43 Z "></path><path fill="rgb(36,18,56)" stroke="rgb(36,18,56)" stroke-width="1" opacity="0.996078431372549" d="M 95.5 49 L 96 52 L 94 51.5 L 95.5 49 Z "></path><path fill="rgb(36,18,56)" stroke="rgb(36,18,56)" stroke-width="1" opacity="0.996078431372549" d="M 91.5 53 L 95 54 L 93.5 63 L 92 60.5 L 94 59.5 L 94 57.5 Q 95.1 53.3 91 55 L 91.5 53 Z "></path><path fill="rgb(36,18,56)" stroke="rgb(36,18,56)" stroke-width="1" opacity="0.996078431372549" d="M 25.5 59 Q 28.8 57.9 28 60.5 L 26.5 63 L 28 63.5 L 25 71 L 21.5 72 L 23 69.5 L 25 64.5 L 22.5 66 L 20 67.5 L 18 70.5 L 15 72 L 14 74.5 L 14 76.5 L 15.5 79 L 18 77.5 L 16 76.5 L 23.5 73 L 22.5 75 L 21 76.5 L 22.5 76 L 30 74 L 31.5 71 L 33 75 L 26.5 77 L 24.5 77 L 17.5 79 L 14 82.5 L 12.5 84 L 8.5 87 L 6 86 L 4.5 89 L 0.5 90 L 0 87.5 L 2 82.5 Q -2 78.9 0 70 L 6.5 68 L 9 69.5 L 9 67 L 12.5 65 L 25.5 59 Z M 14 72 L 13 73 Q 10 72 11 76 L 14 74 L 14 72 Z "></path><path fill="rgb(36,18,56)" stroke="rgb(36,18,56)" stroke-width="1" opacity="0.996078431372549" d="M 30.5 60 L 29.5 62 L 30.5 60 Z "></path><path fill="rgb(36,18,56)" stroke="rgb(36,18,56)" stroke-width="1" opacity="0.996078431372549" d="M 75.5 66 L 76.5 68 L 75.5 66 Z "></path><path fill="rgb(36,18,56)" stroke="rgb(36,18,56)" stroke-width="1" opacity="0.996078431372549" d="M 97 67 L 100 68.5 L 97 69 L 97 67 Z "></path><path fill="rgb(36,18,56)" stroke="rgb(36,18,56)" stroke-width="1" opacity="0.996078431372549" d="M 87.5 73 L 93 74 L 94.5 78 Q 95.8 75.8 97 78.5 L 97 80.5 Q 96.3 84.5 99 83.5 L 99 88 Q 96 89.3 97 85.5 L 93 80.5 L 94 78.5 L 92 77.5 L 90.5 81 L 86 74.5 L 87.5 73 Z "></path><path fill="rgb(36,18,56)" stroke="rgb(36,18,56)" stroke-width="1" opacity="0.996078431372549" d="M 36.5 74 Q 36.6 84.9 43.5 89 L 49.5 90 L 70.5 84 L 80.5 79 Q 83.8 80.8 82 87.5 L 84 90.5 L 81.5 91 L 80 90.5 L 81.5 93 L 83 92.5 L 83 95.5 L 78.5 100 L 71.5 100 L 71 98.5 L 65.5 92 Q 62.2 88.8 54.5 90 L 47.5 93 L 38 87.5 L 35 75.5 L 36.5 74 Z "></path><path fill="rgb(36,18,56)" stroke="rgb(36,18,56)" stroke-width="1" opacity="0.996078431372549" d="M 86 85 L 94 87.5 L 91.5 89 L 87.5 86 L 86 86.5 L 86 85 Z "></path><path fill="rgb(36,18,56)" stroke="rgb(36,18,56)" stroke-width="1" opacity="0.996078431372549" d="M 87 88 L 92 90 L 91.5 92 L 89 90.5 L 90 94 L 85 93 L 85 90 Q 88 91 87 88 Z "></path><path fill="rgb(36,18,56)" stroke="rgb(36,18,56)" stroke-width="1" opacity="0.996078431372549" d="M 98.5 89 L 99 90.5 L 97 93.5 L 99 96.5 L 96 98.5 Q 96.8 101.5 93 100 L 92 97.5 L 94 93.5 L 93.5 92 L 98 91 L 98.5 89 Z "></path><path fill="rgb(36,18,56)" stroke="rgb(36,18,56)" stroke-width="1" opacity="0.996078431372549" d="M 0 93 Q 2.7 91.9 2 94.5 L 2.5 96 L 0 95 L 0 93 Z "></path><path fill="rgb(36,18,56)" stroke="rgb(36,18,56)" stroke-width="1" opacity="0.996078431372549" d="M 0.5 96 L 1 98 Q 5.8 99.9 5 96.5 L 6 96.5 Q 7.7 101.3 3.5 100 L 0 97.5 L 0.5 96 Z "></path><path fill="rgb(141,104,177)" stroke="rgb(141,104,177)" stroke-width="1" opacity="0.996078431372549" d="M 21.5 11 Q 23 14.5 24.5 12 L 26.5 13 L 29.5 12 L 35 13.5 Q 29.6 12.6 28 15.5 L 27 20.5 L 27.5 22 L 25.5 22 L 24 21.5 L 27 19.5 L 25 19 L 26 13.5 L 24 14.5 L 23.5 16 L 22.5 13 L 21 13.5 L 21.5 11 Z "></path><path fill="rgb(141,104,177)" stroke="rgb(141,104,177)" stroke-width="1" opacity="0.996078431372549" d="M 45.5 12 L 49 13.5 L 44.5 14 L 45.5 12 Z "></path><path fill="rgb(141,104,177)" stroke="rgb(141,104,177)" stroke-width="1" opacity="0.996078431372549" d="M 19.5 15 L 20 20.5 L 19 20.5 L 19.5 15 Z "></path><path fill="rgb(141,104,177)" stroke="rgb(141,104,177)" stroke-width="1" opacity="0.996078431372549" d="M 52.5 16 L 53 19.5 L 52 19.5 L 52.5 16 Z "></path><path fill="rgb(141,104,177)" stroke="rgb(141,104,177)" stroke-width="1" opacity="0.996078431372549" d="M 97 20 Q 100 19 99 22 Q 96 23 97 20 Z "></path><path fill="rgb(141,104,177)" stroke="rgb(141,104,177)" stroke-width="1" opacity="0.996078431372549" d="M 25 23 L 28 23.5 L 27.5 26 Q 23.3 27.1 25 23 Z "></path><path fill="rgb(141,104,177)" stroke="rgb(141,104,177)" stroke-width="1" opacity="0.996078431372549" d="M 39.5 23 L 41 24.5 L 39.5 23 Z "></path><path fill="rgb(141,104,177)" stroke="rgb(141,104,177)" stroke-width="1" opacity="0.996078431372549" d="M 19.5 24 L 20 33 L 14 33 L 14 31 L 17 29.5 L 19.5 24 Z "></path><path fill="rgb(141,104,177)" stroke="rgb(141,104,177)" stroke-width="1" opacity="0.996078431372549" d="M 63.5 27 L 68 27.5 L 65 29.5 L 65.5 31 L 63 29.5 L 62.5 31 L 62 28.5 L 63.5 27 Z "></path><path fill="rgb(141,104,177)" stroke="rgb(141,104,177)" stroke-width="1" opacity="0.996078431372549" d="M 71.5 27 L 74.5 28 L 76 27.5 Q 76.7 30.5 73 29 L 73 32.5 L 73.5 34 Q 71.3 28.8 69 32.5 L 68.5 34 L 67 30.5 L 69.5 30 L 71.5 31 L 73 28.5 L 71.5 27 Z "></path><path fill="rgb(141,104,177)" stroke="rgb(141,104,177)" stroke-width="1" opacity="0.996078431372549" d="M 81.5 27 L 83.5 27 Q 88.8 26.2 90.5 29 L 100 28 Q 101 33.7 97.5 36 L 95 34.5 L 98 30.5 Q 96 27 94 31.5 L 92.5 34 L 92.5 32 L 90.5 33 Q 89.3 30.7 88 33.5 L 86.5 36 L 85 34.5 L 83 30 L 79.5 32 L 81 29.5 L 81.5 27 Z "></path><path fill="rgb(141,104,177)" stroke="rgb(141,104,177)" stroke-width="1" opacity="0.996078431372549" d="M 43.5 29 L 44.5 33 L 46.5 30 L 48.5 35 L 46.5 34 L 44.5 34 Q 41.6 34.4 43.5 29 Z "></path><path fill="rgb(141,104,177)" stroke="rgb(141,104,177)" stroke-width="1" opacity="0.996078431372549" d="M 64.5 32 L 66.5 35 L 65 34.5 Q 64.2 37.1 67.5 36 L 67.5 37 L 64.5 36 L 63 36.5 L 65 33.5 L 64.5 32 Z "></path><path fill="rgb(141,104,177)" stroke="rgb(141,104,177)" stroke-width="1" opacity="0.996078431372549" d="M 0 33 L 5.5 33 L 6 34.5 L 8 34.5 L 6.5 36 Q 5 32.5 3.5 35 L 0.5 36 L 0 33 Z "></path><path fill="rgb(141,104,177)" stroke="rgb(141,104,177)" stroke-width="1" opacity="0.996078431372549" d="M 21.5 34 L 23 34.5 L 20 36.5 L 21.5 34 Z "></path><path fill="rgb(141,104,177)" stroke="rgb(141,104,177)" stroke-width="1" opacity="0.996078431372549" d="M 41.5 35 L 47 38.5 L 46 39.5 L 47.5 42 L 41.5 37 L 41 39 L 34 43.5 L 34.5 45 L 32 44.5 Q 32.8 41.9 29.5 43 L 30.5 41 L 32 40.5 L 31.5 39 L 41.5 35 Z "></path><path fill="rgb(141,104,177)" stroke="rgb(141,104,177)" stroke-width="1" opacity="0.996078431372549" d="M 18.5 36 L 18.5 39 L 16.5 40 L 17 38.5 L 18.5 36 Z "></path><path fill="rgb(141,104,177)" stroke="rgb(141,104,177)" stroke-width="1" opacity="0.996078431372549" d="M 26.5 44 L 25.5 46 Q 22.9 45.3 24 48 L 20.5 48 L 21.5 46 L 26.5 44 Z "></path><path fill="rgb(141,104,177)" stroke="rgb(141,104,177)" stroke-width="1" opacity="0.996078431372549" d="M 29.5 44 L 31 47.5 L 30 50 Q 23.4 50.5 20 55.5 L 18.5 57 L 16 56 L 17.5 52 L 19.5 54 L 24.5 49 L 26.5 48 L 28.5 49 L 28.5 47 L 30 47.5 L 29.5 44 Z "></path><path fill="rgb(141,104,177)" stroke="rgb(141,104,177)" stroke-width="1" opacity="0.996078431372549" d="M 61.5 49 L 64 49.5 L 61.5 50 L 61.5 49 Z "></path><path fill="rgb(141,104,177)" stroke="rgb(141,104,177)" stroke-width="1" opacity="0.996078431372549" d="M 45.5 58 L 45.5 60 L 47 60.5 L 41.5 61 L 41.5 60 L 45.5 58 Z "></path><path fill="rgb(141,104,177)" stroke="rgb(141,104,177)" stroke-width="1" opacity="0.996078431372549" d="M 33.5 59 L 37 59.5 L 33.5 60 L 33.5 59 Z "></path><path fill="rgb(141,104,177)" stroke="rgb(141,104,177)" stroke-width="1" opacity="0.996078431372549" d="M 49.5 59 L 52 59.5 L 48.5 61 L 49.5 59 Z "></path><path fill="rgb(141,104,177)" stroke="rgb(141,104,177)" stroke-width="1" opacity="0.996078431372549" d="M 23.5 65 L 24 66.5 L 20.5 72 L 17.5 73 L 21 68.5 L 23.5 65 Z "></path><path fill="rgb(141,104,177)" stroke="rgb(141,104,177)" stroke-width="1" opacity="0.996078431372549" d="M 39.5 66 L 44.5 70 Q 50.5 68.5 52 71.5 L 52 76.5 L 49 83 L 42.5 82 L 39.5 84 Q 36 80.5 36.5 73 L 35 73.5 L 39.5 66 Z "></path><path fill="rgb(141,104,177)" stroke="rgb(141,104,177)" stroke-width="1" opacity="0.996078431372549" d="M 15.5 73 L 15.5 75 L 17 75.5 L 15.5 76 Q 12.5 74.5 15.5 73 Z "></path><path fill="rgb(141,104,177)" stroke="rgb(141,104,177)" stroke-width="1" opacity="0.996078431372549" d="M 84.5 74 L 85 76 L 88 77.5 Q 86.5 81.9 89.5 81 L 91.5 82 L 92.5 81 L 96 84.5 L 97 88 Q 91.2 88 88 84.5 L 89.5 82 L 86 79.5 Q 83 77.7 84.5 74 Z "></path><path fill="rgb(141,104,177)" stroke="rgb(141,104,177)" stroke-width="1" opacity="0.996078431372549" d="M 31.5 75 L 35 76.5 L 36 81.5 L 34.5 82 L 19.5 80 L 15.5 83 L 15 81 L 31.5 75 Z "></path><path fill="rgb(141,104,177)" stroke="rgb(141,104,177)" stroke-width="1" opacity="0.996078431372549" d="M 84.5 82 L 86 85 Q 82.5 86.1 84.5 82 Z "></path><path fill="rgb(141,104,177)" stroke="rgb(141,104,177)" stroke-width="1" opacity="0.996078431372549" d="M 90.5 89 L 93 89.5 L 90.5 90 L 90.5 89 Z "></path><path fill="rgb(141,104,177)" stroke="rgb(141,104,177)" stroke-width="1" opacity="0.996078431372549" d="M 54.5 90 Q 59.9 88.1 59 91.5 Q 57.7 95.8 53 95 L 52.5 93 Q 51.3 95.3 50 92.5 L 54.5 90 Z "></path><path fill="rgb(141,104,177)" stroke="rgb(141,104,177)" stroke-width="1" opacity="0.996078431372549" d="M 4.5 93 L 8.5 96 L 10 95.5 L 9.5 98 L 4.5 93 Z "></path></svg>