<svg width="100%" height="100%" version="1.1" xmlns="http://www.w3.org/2000/svg" desc="Created with imagetracer.js version 1.2.6" viewBox="0 0 84 46.883720930232556" style="display: block; object-fit: contain;"><path fill="rgb(166,47,54)" stroke="rgb(166,47,54)" stroke-width="1" opacity="0.996078431372549" d="M 66.5 1 L 67 3 L 64 3.5 L 66 4.5 L 64 5.5 L 64 7.5 L 63.5 10 Q 62.2 7.8 61 10.5 L 61.5 12 L 59 10.5 L 61 10 Q 59.9 7.3 62.5 8 L 62 6.5 L 61 3 L 66.5 1 Z "></path><path fill="rgb(166,47,54)" stroke="rgb(166,47,54)" stroke-width="1" opacity="0.996078431372549" d="M 68.5 5 L 67 7.5 L 66.5 9 L 66 7.5 L 68.5 5 Z "></path><path fill="rgb(166,47,54)" stroke="rgb(166,47,54)" stroke-width="1" opacity="0.996078431372549" d="M 72.5 5 L 76 7.5 L 75.5 9 L 75 7 L 72.5 5 Z "></path><path fill="rgb(166,47,54)" stroke="rgb(166,47,54)" stroke-width="1" opacity="0.996078431372549" d="M 69.5 10 L 72.5 12 L 74 11.5 L 73.5 14 L 71 13 Q 72.1 10.3 69.5 11 L 69.5 10 Z "></path><path fill="rgb(166,47,54)" stroke="rgb(166,47,54)" stroke-width="1" opacity="0.996078431372549" d="M 67.5 11 L 68.5 13 L 70 12.5 L 70 15 Q 73 14 72 17 L 67.5 16 L 66 16.5 L 68 13.5 L 67.5 11 Z "></path><path fill="rgb(166,47,54)" stroke="rgb(166,47,54)" stroke-width="1" opacity="0.996078431372549" d="M 58.5 12 L 60 14.5 L 53.5 24 L 52 23.5 L 53 20 L 57 18.5 L 55 17.5 L 58 15.5 L 57.5 14 L 59 13.5 L 58.5 12 Z "></path><path fill="rgb(166,47,54)" stroke="rgb(166,47,54)" stroke-width="1" opacity="0.996078431372549" d="M 60.5 17 L 63 18 Q 64.3 21 60.5 20 L 61.5 23 L 59 20.5 Q 62.1 18.8 60.5 17 Z "></path><path fill="rgb(166,47,54)" stroke="rgb(166,47,54)" stroke-width="1" opacity="0.996078431372549" d="M 64.5 17 L 67 18.5 Q 63.9 20.3 65.5 22 L 64 19.5 L 64.5 17 Z "></path><path fill="rgb(166,47,54)" stroke="rgb(166,47,54)" stroke-width="1" opacity="0.996078431372549" d="M 77 17 Q 81.1 15.3 80 19.5 L 77 19.5 L 77 17 Z "></path><path fill="rgb(166,47,54)" stroke="rgb(166,47,54)" stroke-width="1" opacity="0.996078431372549" d="M 77 21 Q 80.3 19.9 79 24 L 75.5 25 L 75 22.5 L 77 22.5 L 77 21 Z "></path><path fill="rgb(166,47,54)" stroke="rgb(166,47,54)" stroke-width="1" opacity="0.996078431372549" d="M 70.5 22 L 70 23.5 L 69.5 25 L 69 23.5 L 70.5 22 Z "></path><path fill="rgb(166,47,54)" stroke="rgb(166,47,54)" stroke-width="1" opacity="0.996078431372549" d="M 58.5 25 L 59.5 27 L 58.5 25 Z "></path><path fill="rgb(166,47,54)" stroke="rgb(166,47,54)" stroke-width="1" opacity="0.996078431372549" d="M 74 26 L 78 27 Q 79.2 30.7 74 29 L 74 26 Z "></path><path fill="rgb(166,47,54)" stroke="rgb(166,47,54)" stroke-width="1" opacity="0.996078431372549" d="M 72.5 27 L 73 29.5 L 72 29.5 L 72.5 27 Z "></path><path fill="rgb(166,47,54)" stroke="rgb(166,47,54)" stroke-width="1" opacity="0.996078431372549" d="M 58.5 28 L 61.5 30 L 61.5 28 L 63.5 29 L 65 28.5 L 63.5 31 L 65 31.5 L 62.5 32 Q 61.3 29.8 60 32.5 L 63 34.5 L 59.5 36 L 58.5 34 L 56 39.5 L 59 40 L 59.5 38 L 61 41.5 L 58.5 43 L 57 42.5 L 56.5 44 L 53 42.5 L 54 40.5 L 51 40 L 51.5 38 Q 52.8 40.3 54 37.5 L 52 34.5 L 53 34.5 Q 52.3 36.8 54.5 36 L 57 34.5 L 54 32.5 L 56.5 31 L 58.5 32 L 57 29.5 L 58.5 28 Z "></path><path fill="rgb(166,47,54)" stroke="rgb(166,47,54)" stroke-width="1" opacity="0.996078431372549" d="M 69.5 33 L 68.5 35 L 69.5 33 Z "></path><path fill="rgb(166,47,54)" stroke="rgb(166,47,54)" stroke-width="1" opacity="0.996078431372549" d="M 49.5 34 L 50.5 36 Q 47.7 36.7 49.5 34 Z "></path><path fill="rgb(166,47,54)" stroke="rgb(166,47,54)" stroke-width="1" opacity="0.996078431372549" d="M 47.5 42 L 49.5 43 L 51 42.5 Q 51.8 44.8 49.5 44 L 48 44.5 L 47.5 42 Z "></path><path fill="rgb(197,117,98)" stroke="rgb(197,117,98)" stroke-width="1" opacity="0.996078431372549" d="M 2.5 2 L 3 4.5 L 2 4.5 L 2.5 2 Z "></path><path fill="rgb(197,117,98)" stroke="rgb(197,117,98)" stroke-width="1" opacity="0.996078431372549" d="M 4.5 4 L 8 4.5 L 4.5 5 L 4.5 4 Z "></path><path fill="rgb(197,117,98)" stroke="rgb(197,117,98)" stroke-width="1" opacity="0.996078431372549" d="M 60.5 4 L 62 7.5 L 61 10 L 57 8.5 L 59 8 L 60.5 4 Z "></path><path fill="rgb(197,117,98)" stroke="rgb(197,117,98)" stroke-width="1" opacity="0.996078431372549" d="M 58.5 11 L 59.5 13 L 58.5 11 Z "></path><path fill="rgb(197,117,98)" stroke="rgb(197,117,98)" stroke-width="1" opacity="0.996078431372549" d="M 75.5 11 L 76 12.5 L 71.5 20 L 71 17 L 73 16.5 L 72 14 L 70 13.5 L 73 13 L 73.5 15 L 75.5 11 Z "></path><path fill="rgb(197,117,98)" stroke="rgb(197,117,98)" stroke-width="1" opacity="0.996078431372549" d="M 56.5 12 Q 59.8 13.8 56 15.5 L 55 17.5 L 57 18.5 L 52.5 21 L 54 18.5 L 56.5 12 Z "></path><path fill="rgb(197,117,98)" stroke="rgb(197,117,98)" stroke-width="1" opacity="0.996078431372549" d="M 62.5 15 L 64 17.5 L 61 17.5 L 62.5 15 Z "></path><path fill="rgb(197,117,98)" stroke="rgb(197,117,98)" stroke-width="1" opacity="0.996078431372549" d="M 65.5 15 L 66.5 17 L 68 16.5 L 65 18 L 65.5 15 Z "></path><path fill="rgb(197,117,98)" stroke="rgb(197,117,98)" stroke-width="1" opacity="0.996078431372549" d="M 59.5 18 L 58.5 20 L 59.5 18 Z "></path><path fill="rgb(197,117,98)" stroke="rgb(197,117,98)" stroke-width="1" opacity="0.996078431372549" d="M 57.5 21 L 60 22.5 L 58.5 22 L 57.5 21 Z "></path><path fill="rgb(197,117,98)" stroke="rgb(197,117,98)" stroke-width="1" opacity="0.996078431372549" d="M 67.5 26 L 67 27.5 Q 67.8 29.8 65.5 29 L 67.5 26 Z "></path><path fill="rgb(197,117,98)" stroke="rgb(197,117,98)" stroke-width="1" opacity="0.996078431372549" d="M 6.5 29 L 8.5 30 L 12 29.5 Q 11.3 31.8 13.5 31 L 13.5 32 Q 9.1 33.5 10 30.5 L 9 30.5 Q 9.7 33.1 7 32 L 6.5 29 Z "></path><path fill="rgb(197,117,98)" stroke="rgb(197,117,98)" stroke-width="1" opacity="0.996078431372549" d="M 17 29 L 19.5 30 L 23 29 L 21.5 32 L 18.5 30 L 18 32 L 16 31.5 L 17 29 Z "></path><path fill="rgb(197,117,98)" stroke="rgb(197,117,98)" stroke-width="1" opacity="0.996078431372549" d="M 24.5 29 L 25.5 31 L 27 30.5 Q 25.5 33.5 24 30.5 L 24.5 29 Z "></path><path fill="rgb(197,117,98)" stroke="rgb(197,117,98)" stroke-width="1" opacity="0.996078431372549" d="M 28 29 L 30 29.5 L 29.5 32 Q 26.5 32.7 28 29 Z "></path><path fill="rgb(197,117,98)" stroke="rgb(197,117,98)" stroke-width="1" opacity="0.996078431372549" d="M 33.5 30 Q 38 29 39 31.5 Q 37.8 34.3 36.5 32 Q 32.8 31.7 33.5 30 Z "></path><path fill="rgb(197,117,98)" stroke="rgb(197,117,98)" stroke-width="1" opacity="0.996078431372549" d="M 44 30 L 46 30.5 L 44.5 33 L 44 30 Z "></path><path fill="rgb(197,117,98)" stroke="rgb(197,117,98)" stroke-width="1" opacity="0.996078431372549" d="M 61.5 31 Q 64.5 32.5 61.5 34 Q 58.5 32.5 61.5 31 Z "></path><path fill="rgb(197,117,98)" stroke="rgb(197,117,98)" stroke-width="1" opacity="0.996078431372549" d="M 72.5 31 L 74 33.5 L 72 32.5 L 72.5 31 Z "></path><path fill="rgb(197,117,98)" stroke="rgb(197,117,98)" stroke-width="1" opacity="0.996078431372549" d="M 58.5 34 L 60 38 Q 56.2 39.5 57 36.5 L 58.5 34 Z "></path><path fill="rgb(197,117,98)" stroke="rgb(197,117,98)" stroke-width="1" opacity="0.996078431372549" d="M 56.5 39 L 59 39.5 L 56.5 40 L 56.5 39 Z "></path><path fill="rgb(197,117,98)" stroke="rgb(197,117,98)" stroke-width="1" opacity="0.996078431372549" d="M 55.5 41 L 53.5 44 L 55.5 41 Z "></path><path fill="rgb(197,117,98)" stroke="rgb(197,117,98)" stroke-width="1" opacity="0.996078431372549" d="M 71.5 43 L 73 45.5 L 72 45.5 L 71.5 43 Z "></path><path fill="rgb(6,4,9)" stroke="rgb(6,4,9)" stroke-width="1" opacity="1" d="M 7.5 2 L 9 5.5 L 8 5.5 L 7.5 2 Z "></path><path fill="rgb(6,4,9)" stroke="rgb(6,4,9)" stroke-width="1" opacity="1" d="M 14.5 3 L 16 5.5 L 13.5 6 L 12 5.5 L 14 5 L 14.5 3 Z "></path><path fill="rgb(6,4,9)" stroke="rgb(6,4,9)" stroke-width="1" opacity="1" d="M 11.5 9 L 13 16.5 L 10.5 18 L 5 16.5 Q 6.3 13.8 7.5 16 L 10.5 17 L 11.5 9 Z "></path><path fill="rgb(6,4,9)" stroke="rgb(6,4,9)" stroke-width="1" opacity="1" d="M 8.5 10 Q 11 11.2 10 15 Q 5.9 16.2 8.5 10 Z "></path><path fill="rgb(6,4,9)" stroke="rgb(6,4,9)" stroke-width="1" opacity="1" d="M 15.5 10 L 16 16 L 19 16.5 L 16.5 17 L 14 16.5 L 15.5 10 Z "></path><path fill="rgb(6,4,9)" stroke="rgb(6,4,9)" stroke-width="1" opacity="1" d="M 21.5 15 L 22.5 17 L 21.5 15 Z "></path><path fill="rgb(6,4,9)" stroke="rgb(6,4,9)" stroke-width="1" opacity="1" d="M 36.5 16 L 39 16.5 L 36.5 17 L 36.5 16 Z "></path><path fill="rgb(6,4,9)" stroke="rgb(6,4,9)" stroke-width="1" opacity="1" d="M 8.5 19 L 8 20.5 L 6.5 23 L 7 21.5 L 8.5 19 Z "></path><path fill="rgb(6,4,9)" stroke="rgb(6,4,9)" stroke-width="1" opacity="1" d="M 25.5 19 L 26 24.5 L 25 24.5 L 25.5 19 Z "></path><path fill="rgb(6,4,9)" stroke="rgb(6,4,9)" stroke-width="1" opacity="1" d="M 2.5 21 L 3 27 Q 8.2 29.1 7 24.5 L 8 24.5 L 6.5 28 Q 2.8 28.8 2 26.5 L 2.5 21 Z "></path><path fill="rgb(6,4,9)" stroke="rgb(6,4,9)" stroke-width="1" opacity="1" d="M 15.5 21 L 16 23.5 L 15 23.5 L 15.5 21 Z "></path><path fill="rgb(6,4,9)" stroke="rgb(6,4,9)" stroke-width="1" opacity="1" d="M 21.5 22 L 23 22.5 L 21 23.5 Q 23.3 24.8 20.5 26 L 20 23.5 L 21.5 22 Z "></path><path fill="rgb(6,4,9)" stroke="rgb(6,4,9)" stroke-width="1" opacity="1" d="M 18.5 24 L 19 26.5 Q 17.8 29.3 16.5 27 L 13.5 28 L 11.5 28 L 9 27.5 L 12.5 26 L 14.5 27 L 16.5 26 L 18 26.5 L 18.5 24 Z "></path><path fill="rgb(6,4,9)" stroke="rgb(6,4,9)" stroke-width="1" opacity="1" d="M 33.5 26 L 32.5 28 L 29 27.5 L 33.5 26 Z "></path><path fill="rgb(6,4,9)" stroke="rgb(6,4,9)" stroke-width="1" opacity="1" d="M 5.5 29 L 7 32 L 10 32.5 L 4.5 33 L 5 31.5 L 5.5 29 Z "></path><path fill="rgb(6,4,9)" stroke="rgb(6,4,9)" stroke-width="1" opacity="1" d="M 14.5 29 L 16.5 32 L 19 32.5 L 11.5 33 L 11.5 32 Q 15.5 33.1 14.5 29 Z "></path><path fill="rgb(6,4,9)" stroke="rgb(6,4,9)" stroke-width="1" opacity="1" d="M 25.5 29 L 26 30.5 L 24.5 33 L 23 30.5 L 25 30.5 L 25.5 29 Z "></path><path fill="rgb(6,4,9)" stroke="rgb(6,4,9)" stroke-width="1" opacity="1" d="M 32.5 30 L 36 32.5 L 34.5 33 L 30 32.5 Q 29.3 30.3 31.5 31 L 32.5 30 Z "></path><path fill="rgb(6,4,9)" stroke="rgb(6,4,9)" stroke-width="1" opacity="1" d="M 38.5 30 Q 43.3 28.3 42 32.5 L 41 32.5 Q 41.8 29.9 38.5 31 L 38.5 30 Z "></path><path fill="rgb(6,4,9)" stroke="rgb(6,4,9)" stroke-width="1" opacity="1" d="M 20.5 32 L 23 32.5 L 20.5 33 L 20.5 32 Z "></path><path fill="rgb(6,4,9)" stroke="rgb(6,4,9)" stroke-width="1" opacity="1" d="M 4.5 34 Q 8.3 32.8 7 36.5 L 4 36.5 L 4.5 34 Z "></path><path fill="rgb(6,4,9)" stroke="rgb(6,4,9)" stroke-width="1" opacity="1" d="M 15.5 34 L 15.5 37 Q 14 34.5 12.5 38 Q 10.3 38.8 11 36.5 L 15.5 34 Z "></path><path fill="rgb(6,4,9)" stroke="rgb(6,4,9)" stroke-width="1" opacity="1" d="M 37.5 34 L 40.5 35 L 42 34.5 L 41 37 L 38.5 36 L 37 36.5 L 37.5 34 Z "></path><path fill="rgb(6,4,9)" stroke="rgb(6,4,9)" stroke-width="1" opacity="1" d="M 29 35 Q 32.8 33.5 32 36.5 L 29 36.5 L 29 35 Z "></path><path fill="rgb(6,4,9)" stroke="rgb(6,4,9)" stroke-width="1" opacity="1" d="M 19 36 L 21 36.5 L 19 37.5 L 19 36 Z "></path><path fill="rgb(6,4,9)" stroke="rgb(6,4,9)" stroke-width="1" opacity="1" d="M 37.5 38 L 38 40.5 L 36 41.5 L 37.5 38 Z "></path><path fill="rgb(6,4,9)" stroke="rgb(6,4,9)" stroke-width="1" opacity="1" d="M 4 39 L 7 40.5 L 6.5 42 L 4 41 L 4 39 Z "></path><path fill="rgb(6,4,9)" stroke="rgb(6,4,9)" stroke-width="1" opacity="1" d="M 20.5 39 L 21.5 41 Q 18.7 41.7 20.5 39 Z "></path><path fill="rgb(2,12,38)" stroke="rgb(2,12,38)" stroke-width="1" opacity="0.996078431372549" d="M 0 0 L 7 1.5 L 2 2 Q 1 5.8 3.5 7 Q 10.8 9.6 9 3.5 Q 12.1 1.7 10.5 0 L 21.5 0 L 22 2 L 15.5 4 L 11 3 Q 9.3 7.1 13.5 6 L 16.5 5 L 28 5.5 L 20 6 L 19.5 8 L 18.5 7 Q 16.3 11.3 14 9.5 L 13.5 15 Q 14.4 9.6 11.5 8 L 10.5 10 L 8.5 9 Q 6 10.2 7 14 L 5 13.5 L 6 9 Q 2.7 7.7 4 12.5 L 3 17 L 9.5 17 L 10.5 18 L 15.5 16 L 15 17.5 L 13.5 24 L 11.5 19 L 7.5 20 L 3 19 Q 1.4 21.1 2 26.5 Q 2.8 28.8 6.5 28 L 8.5 27 L 11.5 28 L 13.5 28 L 16.5 27 L 19.5 28 L 23.5 26 L 27.5 28 L 29 27.5 L 27.5 33 L 25.5 29 L 23.5 30 L 20.5 29 L 19 31.5 L 22 33 L 21.5 36 L 21 34 Q 17.7 32.7 19 37.5 L 21 37.5 L 18.5 39 L 16.5 39 Q 11.7 37.7 13 41 L 21 41.5 Q 16.4 40.9 15 43.5 L 16.5 44 L 22 43 L 20.5 46 L 17.5 44 L 17.5 46 L 6.5 46 L 6 43.5 L 4.5 44 L 2 43.5 L 7.5 41 L 10.5 42 L 12 39 L 9.5 38 L 6.5 39 L 4.5 38 Q 3.4 40.8 0 40 L 0 0 Z M 3 29 L 4 32 L 3 37 L 11 37 L 12 38 L 14 37 Q 20 39 18 34 L 14 35 L 7 34 L 10 33 L 9 32 L 10 30 L 12 33 L 19 33 L 18 31 L 19 29 Q 14 28 13 30 L 12 29 L 3 29 Z "></path><path fill="rgb(2,12,38)" stroke="rgb(2,12,38)" stroke-width="1" opacity="0.996078431372549" d="M 29.5 0 Q 33.9 -1.5 33 1.5 Q 31.7 4.3 30.5 2 L 28 1.5 L 29.5 0 Z "></path><path fill="rgb(2,12,38)" stroke="rgb(2,12,38)" stroke-width="1" opacity="0.996078431372549" d="M 39.5 4 L 40.5 6 L 36 5.5 L 39.5 4 Z "></path><path fill="rgb(2,12,38)" stroke="rgb(2,12,38)" stroke-width="1" opacity="0.996078431372549" d="M 27.5 11 L 28 14.5 L 27 14.5 L 27.5 11 Z "></path><path fill="rgb(2,12,38)" stroke="rgb(2,12,38)" stroke-width="1" opacity="0.996078431372549" d="M 21.5 12 L 23.5 15 L 21.5 12 Z "></path><path fill="rgb(2,12,38)" stroke="rgb(2,12,38)" stroke-width="1" opacity="0.996078431372549" d="M 44.5 12 L 45.5 14 L 44.5 12 Z "></path><path fill="rgb(2,12,38)" stroke="rgb(2,12,38)" stroke-width="1" opacity="0.996078431372549" d="M 17.5 14 L 25 17 L 25.5 15 L 26 16.5 Q 23.5 18 27 19.5 L 26.5 26 L 26 19 Q 22.3 17.6 24 23.5 L 23 23.5 Q 25 16.8 19 19 L 18.5 24 Q 16.1 21.7 17 17 Q 20 18 19 15 L 17.5 14 Z "></path><path fill="rgb(2,12,38)" stroke="rgb(2,12,38)" stroke-width="1" opacity="0.996078431372549" d="M 31.5 14 L 33 16.5 L 31 15.5 L 31.5 14 Z "></path><path fill="rgb(2,12,38)" stroke="rgb(2,12,38)" stroke-width="1" opacity="0.996078431372549" d="M 10.5 21 L 11 25.5 L 10 25.5 L 10.5 21 Z "></path><path fill="rgb(2,12,38)" stroke="rgb(2,12,38)" stroke-width="1" opacity="0.996078431372549" d="M 35.5 21 L 36 24.5 L 35 24.5 L 35.5 21 Z "></path><path fill="rgb(2,12,38)" stroke="rgb(2,12,38)" stroke-width="1" opacity="0.996078431372549" d="M 5.5 22 L 8 23.5 L 5.5 25 L 5.5 22 Z "></path><path fill="rgb(2,12,38)" stroke="rgb(2,12,38)" stroke-width="1" opacity="0.996078431372549" d="M 38.5 22 L 40.5 25 L 38 24.5 L 38.5 22 Z "></path><path fill="rgb(2,12,38)" stroke="rgb(2,12,38)" stroke-width="1" opacity="0.996078431372549" d="M 23.5 36 L 22.5 38 L 23.5 36 Z "></path><path fill="rgb(2,12,38)" stroke="rgb(2,12,38)" stroke-width="1" opacity="0.996078431372549" d="M 25.5 37 L 24.5 39 L 25.5 37 Z "></path><path fill="rgb(2,12,38)" stroke="rgb(2,12,38)" stroke-width="1" opacity="0.996078431372549" d="M 83.5 41 L 84 46 Q 78.8 48.1 80 43.5 L 81 43.5 L 81.5 45 L 83.5 41 Z "></path><path fill="rgb(244,246,228)" stroke="rgb(244,246,228)" stroke-width="1" opacity="1" d="M 71.5 2 L 73 4.5 L 71.5 4 L 70 3.5 L 71.5 2 Z "></path><path fill="rgb(244,246,228)" stroke="rgb(244,246,228)" stroke-width="1" opacity="1" d="M 56.5 6 L 55.5 8 L 56.5 6 Z "></path><path fill="rgb(244,246,228)" stroke="rgb(244,246,228)" stroke-width="1" opacity="1" d="M 17.5 8 L 18.5 10 Q 15.9 9.3 17 12 L 19 12.5 L 17 13 Q 15.9 15.7 18.5 15 L 18.5 16 L 16 16 L 16 9.5 L 17.5 8 Z "></path><path fill="rgb(244,246,228)" stroke="rgb(244,246,228)" stroke-width="1" opacity="1" d="M 8.5 9 L 11 10.5 L 10.5 17 L 6.5 15 L 3 16 L 4.5 11 L 5 14 Q 8.3 15.3 7 10.5 L 8.5 9 Z M 8 10 L 8 15 L 10 15 L 10 10 L 8 10 Z "></path><path fill="rgb(244,246,228)" stroke="rgb(244,246,228)" stroke-width="1" opacity="1" d="M 12.5 9 L 13.5 15 L 14.5 9 L 15 16 L 12 16 L 12.5 9 Z "></path><path fill="rgb(244,246,228)" stroke="rgb(244,246,228)" stroke-width="1" opacity="1" d="M 22 9 L 25 10.5 L 23 10.5 L 25 16 Q 21.3 17.5 22 14.5 L 22 12.5 L 22 9 Z "></path><path fill="rgb(244,246,228)" stroke="rgb(244,246,228)" stroke-width="1" opacity="1" d="M 26 9 L 29 9 L 29 16 L 26 16 L 26 9 Z M 28 10 L 27 15 L 28 15 L 28 10 Z "></path><path fill="rgb(244,246,228)" stroke="rgb(244,246,228)" stroke-width="1" opacity="1" d="M 30 9 Q 33.3 7.7 32 12.5 L 33 12.5 L 33.5 9 L 34 16 Q 31 17.3 32 13.5 L 31 13.5 L 30.5 16 L 30 9 Z "></path><path fill="rgb(244,246,228)" stroke="rgb(244,246,228)" stroke-width="1" opacity="1" d="M 36 9 L 38 9 L 38 15 L 40 15 Q 38.8 10.4 41.5 9 L 44.5 10 L 46.5 9 L 47.5 11 L 45.5 10 L 47 12.5 L 48 16 L 43.5 15 L 42.5 16 L 36 16 L 36 9 Z M 42 10 L 41 15 L 42 15 L 42 10 Z M 45 12 L 44 14 L 47 15 L 45 12 Z "></path><path fill="rgb(244,246,228)" stroke="rgb(244,246,228)" stroke-width="1" opacity="1" d="M 57.5 9 L 58.5 11 L 57.5 9 Z "></path><path fill="rgb(244,246,228)" stroke="rgb(244,246,228)" stroke-width="1" opacity="1" d="M 63.5 11 L 65 13.5 L 64 13.5 L 63.5 11 Z "></path><path fill="rgb(244,246,228)" stroke="rgb(244,246,228)" stroke-width="1" opacity="1" d="M 53.5 13 L 56 13.5 Q 53.9 16.8 53.5 13 Z "></path><path fill="rgb(244,246,228)" stroke="rgb(244,246,228)" stroke-width="1" opacity="1" d="M 52.5 16 Q 54.8 15.3 54 17.5 L 52.5 16 Z "></path><path fill="rgb(244,246,228)" stroke="rgb(244,246,228)" stroke-width="1" opacity="1" d="M 4.5 19 Q 8.3 17.8 7 21.5 L 6 21.5 L 5.5 20 Q 2.8 21.4 4 26 Q 6.7 27.1 6 24.5 L 7 24.5 Q 8.2 29.1 3 27 L 3 20.5 L 4.5 19 Z "></path><path fill="rgb(244,246,228)" stroke="rgb(244,246,228)" stroke-width="1" opacity="1" d="M 9.5 19 L 12 19 L 12 27 L 8 25.5 Q 6.8 20.3 9.5 19 Z M 11 20 L 10 26 L 11 26 L 11 20 Z "></path><path fill="rgb(244,246,228)" stroke="rgb(244,246,228)" stroke-width="1" opacity="1" d="M 15.5 19 Q 18.9 18.1 17 23.5 L 18 26.5 L 16.5 26 L 13 27 L 14 20.5 L 15.5 19 Z M 16 21 L 15 25 L 16 25 L 16 21 Z "></path><path fill="rgb(244,246,228)" stroke="rgb(244,246,228)" stroke-width="1" opacity="1" d="M 19 19 Q 24.2 16.9 23 21.5 L 22 21.5 Q 22.7 18.9 20 20 L 20 26 L 22 26 L 21 23.5 L 23 23 Q 25 29 19 27 L 19 19 Z "></path><path fill="rgb(244,246,228)" stroke="rgb(244,246,228)" stroke-width="1" opacity="1" d="M 24.5 19 L 25 26 Q 28.5 27.1 27 19.5 L 28 19.5 L 28 27 L 24 27 L 24.5 19 Z "></path><path fill="rgb(244,246,228)" stroke="rgb(244,246,228)" stroke-width="1" opacity="1" d="M 29 19 L 31 19 L 31 25.5 L 32.5 26 L 32.5 27 L 29 27 L 29 19 Z "></path><path fill="rgb(244,246,228)" stroke="rgb(244,246,228)" stroke-width="1" opacity="1" d="M 34 19 L 38 19 L 38 27 L 34 27 L 34 19 Z M 35 20 L 35 26 L 37 26 L 37 20 L 35 20 Z "></path><path fill="rgb(244,246,228)" stroke="rgb(244,246,228)" stroke-width="1" opacity="1" d="M 39 19 L 43 19 L 43 20.5 L 41.5 20 Q 39.3 19.3 40 21.5 Q 43.7 22.7 43 27 L 39 27 L 39 25.5 L 40.5 26 L 42 25.5 L 41 23 Q 37.3 24.2 39 19 Z "></path><path fill="rgb(244,246,228)" stroke="rgb(244,246,228)" stroke-width="1" opacity="1" d="M 44 19 L 48 20.5 L 45.5 25 L 45 23.5 L 46 20.5 L 45 20.5 L 44.5 22 L 44 19 Z "></path><path fill="rgb(244,246,228)" stroke="rgb(244,246,228)" stroke-width="1" opacity="1" d="M 69.5 20 L 78 20.5 L 69.5 21 L 69.5 20 Z "></path><path fill="rgb(244,246,228)" stroke="rgb(244,246,228)" stroke-width="1" opacity="1" d="M 51.5 30 L 50.5 32 L 51.5 30 Z "></path><path fill="rgb(244,246,228)" stroke="rgb(244,246,228)" stroke-width="1" opacity="1" d="M 51.5 33 L 50.5 35 L 51.5 33 Z "></path><path fill="rgb(244,246,228)" stroke="rgb(244,246,228)" stroke-width="1" opacity="1" d="M 71.5 33 L 72 35.5 L 71 35.5 L 71.5 33 Z "></path><path fill="rgb(244,246,228)" stroke="rgb(244,246,228)" stroke-width="1" opacity="1" d="M 70.5 37 L 70 38.5 L 70.5 40 L 73.5 38 L 74.5 40 L 70.5 41 L 69 38.5 L 70.5 37 Z "></path><path fill="rgb(244,246,228)" stroke="rgb(244,246,228)" stroke-width="1" opacity="1" d="M 4.5 38 L 8.5 39 L 10.5 39 Q 13.1 38.3 12 41 L 8.5 40 Q 7 42.5 5.5 39 Q 2.9 38.2 4 41.5 L 3 41.5 L 4.5 38 Z "></path><path fill="rgb(244,246,228)" stroke="rgb(244,246,228)" stroke-width="1" opacity="1" d="M 17.5 38 L 20 39 Q 21.3 42.3 16.5 41 L 13 39.5 L 17.5 38 Z "></path><path fill="rgb(244,246,228)" stroke="rgb(244,246,228)" stroke-width="1" opacity="1" d="M 42.5 38 L 46 39.5 L 45.5 41 L 43.5 41 Q 40.4 41.7 42.5 38 Z "></path><path fill="rgb(244,246,228)" stroke="rgb(244,246,228)" stroke-width="1" opacity="1" d="M 66.5 38 L 67.5 40 L 66.5 38 Z "></path><path fill="rgb(244,246,228)" stroke="rgb(244,246,228)" stroke-width="1" opacity="1" d="M 76 38 Q 79 37 78 40 Q 75 41 76 38 Z "></path><path fill="rgb(244,246,228)" stroke="rgb(244,246,228)" stroke-width="1" opacity="1" d="M 24 39 L 26 39.5 L 24 40.5 L 24 39 Z "></path><path fill="rgb(244,246,228)" stroke="rgb(244,246,228)" stroke-width="1" opacity="1" d="M 27 39 L 35.5 39 L 36 40.5 L 33.5 42 L 27 41 L 27 39 Z "></path><path fill="rgb(20,33,77)" stroke="rgb(20,33,77)" stroke-width="1" opacity="0.996078431372549" d="M 22 0 L 29 0.5 L 28.5 2 L 31 2.5 L 22.5 4 L 20 2.5 L 22 2 L 22 0 Z "></path><path fill="rgb(20,33,77)" stroke="rgb(20,33,77)" stroke-width="1" opacity="0.996078431372549" d="M 38.5 0 L 43 0.5 L 38.5 1 L 38.5 0 Z "></path><path fill="rgb(20,33,77)" stroke="rgb(20,33,77)" stroke-width="1" opacity="0.996078431372549" d="M 47.5 0 L 57.5 0 L 58 1.5 L 55 3 L 54 7 L 52 7.5 L 53.5 10 L 56.5 8 L 56.5 9 L 51 11 L 52 8.5 L 50 6.5 L 49 1 L 47.5 0 Z "></path><path fill="rgb(20,33,77)" stroke="rgb(20,33,77)" stroke-width="1" opacity="0.996078431372549" d="M 79.5 0 Q 84.9 -1.9 84 1.5 L 84 3.5 L 83 5.5 L 84 6.5 L 84 16.5 L 83 16.5 L 82.5 6 L 81.5 8 L 81 6.5 L 82 4.5 L 79 6.5 L 80 8.5 L 78 8.5 L 77.5 11 L 76 4.5 L 79.5 0 Z "></path><path fill="rgb(20,33,77)" stroke="rgb(20,33,77)" stroke-width="1" opacity="0.996078431372549" d="M 38.5 2 Q 40.8 1.3 40 3.5 L 38.5 2 Z "></path><path fill="rgb(20,33,77)" stroke="rgb(20,33,77)" stroke-width="1" opacity="0.996078431372549" d="M 43.5 2 L 44.5 4 L 43.5 2 Z "></path><path fill="rgb(20,33,77)" stroke="rgb(20,33,77)" stroke-width="1" opacity="0.996078431372549" d="M 28.5 5 L 37 6.5 L 35 7.5 L 40 10.5 Q 41.7 16.4 38 15 L 38 9 L 36 9 L 36 17 L 38.5 17 L 37.5 19 Q 33.8 18.3 33 20.5 Q 34.7 26.4 31 25 L 31 19 L 26.5 19 L 25.5 17 L 27.5 18 L 31.5 16 L 34 17 L 33.5 9 L 31.5 9 L 29.5 10 L 26.5 9 L 24.5 9 L 21 10.5 L 22 13.5 L 19 15 L 18 11.5 L 20 11 L 19 8.5 L 20 6 L 27.5 6 L 28.5 5 Z "></path><path fill="rgb(20,33,77)" stroke="rgb(20,33,77)" stroke-width="1" opacity="0.996078431372549" d="M 41.5 5 L 45 6.5 L 41 7 L 41.5 5 Z "></path><path fill="rgb(20,33,77)" stroke="rgb(20,33,77)" stroke-width="1" opacity="0.996078431372549" d="M 12.5 7 L 14 7.5 L 11.5 9 L 12.5 7 Z "></path><path fill="rgb(20,33,77)" stroke="rgb(20,33,77)" stroke-width="1" opacity="0.996078431372549" d="M 41.5 8 L 45 9.5 L 43.5 10 L 41.5 8 Z "></path><path fill="rgb(20,33,77)" stroke="rgb(20,33,77)" stroke-width="1" opacity="0.996078431372549" d="M 48.5 8 L 49 10 L 47 9.5 L 48.5 8 Z "></path><path fill="rgb(20,33,77)" stroke="rgb(20,33,77)" stroke-width="1" opacity="0.996078431372549" d="M 46.5 11 L 47.5 13 L 46.5 11 Z "></path><path fill="rgb(20,33,77)" stroke="rgb(20,33,77)" stroke-width="1" opacity="0.996078431372549" d="M 41.5 12 L 42 14.5 L 41 14.5 L 41.5 12 Z "></path><path fill="rgb(20,33,77)" stroke="rgb(20,33,77)" stroke-width="1" opacity="0.996078431372549" d="M 44.5 13 L 45.5 15 L 44.5 13 Z "></path><path fill="rgb(20,33,77)" stroke="rgb(20,33,77)" stroke-width="1" opacity="0.996078431372549" d="M 41.5 21 Q 45.8 21.8 45 27.5 L 43 26.5 Q 43.5 21.8 41.5 21 Z "></path><path fill="rgb(20,33,77)" stroke="rgb(20,33,77)" stroke-width="1" opacity="0.996078431372549" d="M 82.5 22 L 84 24.5 L 84 26.5 Q 85.3 32.6 82.5 32 L 80 33 L 82.5 22 Z "></path><path fill="rgb(20,33,77)" stroke="rgb(20,33,77)" stroke-width="1" opacity="0.996078431372549" d="M 71.5 23 L 71 24.5 L 69.5 27 L 70 25.5 L 71.5 23 Z "></path><path fill="rgb(20,33,77)" stroke="rgb(20,33,77)" stroke-width="1" opacity="0.996078431372549" d="M 68.5 28 L 69 30 L 67 29.5 L 68.5 28 Z "></path><path fill="rgb(20,33,77)" stroke="rgb(20,33,77)" stroke-width="1" opacity="0.996078431372549" d="M 25.5 33 L 28 33.5 L 25.5 34 L 25.5 33 Z "></path><path fill="rgb(20,33,77)" stroke="rgb(20,33,77)" stroke-width="1" opacity="0.996078431372549" d="M 65.5 33 L 64.5 35 L 65.5 33 Z "></path><path fill="rgb(20,33,77)" stroke="rgb(20,33,77)" stroke-width="1" opacity="0.996078431372549" d="M 80.5 34 Q 82.3 37.1 84 35.5 L 84 40.5 L 81.5 45 L 81 43 L 79 42.5 L 79 35.5 L 80.5 34 Z "></path><path fill="rgb(20,33,77)" stroke="rgb(20,33,77)" stroke-width="1" opacity="0.996078431372549" d="M 21.5 36 L 22.5 38 L 24.5 37 L 24.5 38 L 20.5 39 L 21 37.5 L 21.5 36 Z "></path><path fill="rgb(20,33,77)" stroke="rgb(20,33,77)" stroke-width="1" opacity="0.996078431372549" d="M 76.5 40 L 75.5 42 L 76.5 40 Z "></path><path fill="rgb(20,33,77)" stroke="rgb(20,33,77)" stroke-width="1" opacity="0.996078431372549" d="M 22.5 41 L 23 43 L 17 43.5 L 19 44 L 18.5 46 L 15 43.5 L 16.5 42 Q 21.3 43.3 22.5 41 Z "></path><path fill="rgb(20,33,77)" stroke="rgb(20,33,77)" stroke-width="1" opacity="0.996078431372549" d="M 64.5 41 L 66 44 L 64 44.5 L 66 45.5 L 60.5 46 L 60.5 45 L 64 44 L 64.5 41 Z "></path><path fill="rgb(72,113,160)" stroke="rgb(72,113,160)" stroke-width="1" opacity="0.996078431372549" d="M 59 0 Q 61.7 -1.1 61 1.5 L 57.5 7 L 55.5 7 Q 53.3 7.8 54 5.5 L 55 3 L 57.5 2 L 59 2.5 L 59 0 Z "></path><path fill="rgb(72,113,160)" stroke="rgb(72,113,160)" stroke-width="1" opacity="0.996078431372549" d="M 71.5 0 L 73 0.5 L 70.5 4 L 72 4.5 L 69 5 L 71.5 0 Z "></path><path fill="rgb(72,113,160)" stroke="rgb(72,113,160)" stroke-width="1" opacity="0.996078431372549" d="M 74 0 L 79 0.5 L 76 6.5 L 76.5 8 L 75 5 Q 72.3 6.1 73 3.5 L 74 0 Z "></path><path fill="rgb(72,113,160)" stroke="rgb(72,113,160)" stroke-width="1" opacity="0.996078431372549" d="M 83.5 2 L 82 4.5 L 78.5 10 L 78 8.5 L 83.5 2 Z "></path><path fill="rgb(72,113,160)" stroke="rgb(72,113,160)" stroke-width="1" opacity="0.996078431372549" d="M 49 7 L 52 8.5 L 51 11 Q 54.7 9.5 54 12.5 L 52 19 L 49 19.5 L 51 20 L 52 22.5 L 50 23.5 L 50 25.5 L 51 27.5 L 49.5 32 L 49 30 Q 46 31 47 28 Q 50 29.3 49 25.5 L 49 23.5 L 48 19.5 L 49 15.5 L 48 10.5 L 49 7 Z "></path><path fill="rgb(72,113,160)" stroke="rgb(72,113,160)" stroke-width="1" opacity="0.996078431372549" d="M 82.5 8 L 83 16.5 L 84 17.5 L 83.5 20 L 81 15.5 L 82.5 8 Z "></path><path fill="rgb(72,113,160)" stroke="rgb(72,113,160)" stroke-width="1" opacity="0.996078431372549" d="M 44.5 17 L 43.5 19 L 44.5 17 Z "></path><path fill="rgb(72,113,160)" stroke="rgb(72,113,160)" stroke-width="1" opacity="0.996078431372549" d="M 81.5 20 L 83.5 23 L 82 22.5 L 82 26.5 L 79 35.5 L 79 42.5 L 80 45.5 L 79 45.5 L 77 40.5 L 80 29.5 L 80 27.5 L 81 25.5 L 80 23.5 L 81.5 20 Z "></path><path fill="rgb(72,113,160)" stroke="rgb(72,113,160)" stroke-width="1" opacity="0.996078431372549" d="M 72.5 21 L 71.5 23 L 72.5 21 Z "></path><path fill="rgb(72,113,160)" stroke="rgb(72,113,160)" stroke-width="1" opacity="0.996078431372549" d="M 59.5 23 L 60.5 25 L 59.5 23 Z "></path><path fill="rgb(72,113,160)" stroke="rgb(72,113,160)" stroke-width="1" opacity="0.996078431372549" d="M 65.5 34 L 66 41.5 L 65 41.5 L 64.5 38 L 61.5 42 L 61 39 L 64 37.5 Q 61.3 35.7 65.5 34 Z "></path><path fill="rgb(72,113,160)" stroke="rgb(72,113,160)" stroke-width="1" opacity="0.996078431372549" d="M 69.5 42 L 70.5 44 L 69.5 42 Z "></path><path fill="rgb(72,113,160)" stroke="rgb(72,113,160)" stroke-width="1" opacity="0.996078431372549" d="M 75.5 42 L 77 45 L 75 44.5 L 75.5 42 Z "></path><path fill="rgb(72,113,160)" stroke="rgb(72,113,160)" stroke-width="1" opacity="0.996078431372549" d="M 66.5 43 L 68.5 46 L 66 45.5 L 66.5 43 Z "></path><path fill="rgb(81,15,36)" stroke="rgb(81,15,36)" stroke-width="1" opacity="0.996078431372549" d="M 33 0 Q 37.6 -1.3 39 1.5 L 36 2.5 L 35.5 5 Q 32.3 3.8 33 0 Z "></path><path fill="rgb(81,15,36)" stroke="rgb(81,15,36)" stroke-width="1" opacity="0.996078431372549" d="M 66.5 0 L 65.5 2 L 66.5 0 Z "></path><path fill="rgb(81,15,36)" stroke="rgb(81,15,36)" stroke-width="1" opacity="0.996078431372549" d="M 40.5 3 L 43 3.5 Q 43.8 5.8 41.5 5 L 40.5 3 Z "></path><path fill="rgb(81,15,36)" stroke="rgb(81,15,36)" stroke-width="1" opacity="0.996078431372549" d="M 64.5 3 L 63.5 5 L 64.5 3 Z "></path><path fill="rgb(81,15,36)" stroke="rgb(81,15,36)" stroke-width="1" opacity="0.996078431372549" d="M 71.5 5 L 74 5.5 Q 71.9 8.8 71.5 5 Z "></path><path fill="rgb(81,15,36)" stroke="rgb(81,15,36)" stroke-width="1" opacity="0.996078431372549" d="M 63.5 6 L 62.5 8 L 63.5 6 Z "></path><path fill="rgb(81,15,36)" stroke="rgb(81,15,36)" stroke-width="1" opacity="0.996078431372549" d="M 69 7 L 73 8 L 73.5 10 L 74.5 8 L 75 11.5 L 70.5 12 L 68 13.5 Q 68.7 16.5 65 15 Q 63.5 11.3 66.5 12 L 68 12.5 Q 68.8 10.3 66.5 11 L 67 9.5 L 67.5 8 L 68.5 10 L 69 7 Z "></path><path fill="rgb(81,15,36)" stroke="rgb(81,15,36)" stroke-width="1" opacity="0.996078431372549" d="M 62.5 9 L 63 11.5 L 62 14 L 60 13.5 L 62.5 9 Z "></path><path fill="rgb(81,15,36)" stroke="rgb(81,15,36)" stroke-width="1" opacity="0.996078431372549" d="M 78.5 10 L 81 10.5 L 80 14 L 77 15.5 L 81 17.5 L 79.5 17 L 76 18.5 L 76.5 20 Q 72.8 21 74 18 L 76 17.5 L 76 15.5 L 78.5 10 Z "></path><path fill="rgb(81,15,36)" stroke="rgb(81,15,36)" stroke-width="1" opacity="0.996078431372549" d="M 59.5 15 L 60 16.5 L 58 17.5 L 59.5 15 Z "></path><path fill="rgb(81,15,36)" stroke="rgb(81,15,36)" stroke-width="1" opacity="0.996078431372549" d="M 63.5 15 L 64.5 17 L 63.5 15 Z "></path><path fill="rgb(81,15,36)" stroke="rgb(81,15,36)" stroke-width="1" opacity="0.996078431372549" d="M 67 17 L 69 17.5 L 68 19.5 L 71 18.5 Q 71.8 20.8 69.5 20 L 69.5 21 L 71 21.5 L 68.5 23 L 67 22.5 L 69 25.5 L 67 25.5 Q 67.8 27.8 65.5 27 L 66 25.5 Q 67.1 22.2 64.5 23 L 64 25.5 L 65 29.5 L 63 30.5 L 63 28.5 Q 64.1 25.2 61.5 26 L 61.5 28 L 60 27.5 L 59.5 29 L 58.5 27 L 58 29 L 56 29.5 L 58 30 L 57.5 32 L 55.5 31 L 54.5 33 L 57 34.5 L 55 34.5 Q 55.8 36.8 53.5 36 L 53.5 38 Q 50.2 36.9 51 39.5 L 52.5 41 L 55 39.5 L 51.5 42 L 49 41 L 48 45 L 51.5 43 L 54.5 44 L 56 43.5 L 57 45.5 L 45.5 46 L 43.5 45 L 42.5 46 L 26 46 L 26 39.5 L 25 38.5 L 26.5 37 L 42 37 Q 43.7 32.9 39.5 34 L 39.5 33 Q 44.3 34.7 43 30.5 L 44 30.5 L 46 38.5 L 41.5 39 L 37.5 38 L 36.5 39 L 27 39 L 27.5 42 L 39.5 42 L 42.5 41 Q 44.8 40.3 44 42.5 L 45 42.5 Q 44.3 39.9 47 41 L 47.5 43 L 51 37.5 L 49 36.5 L 51 36 L 56 26 L 59 25.5 L 57 24.5 L 59.5 21 L 59 22.5 L 60.5 26 L 62 22.5 L 61.5 21 L 63.5 20 L 65.5 20 Q 68.5 20.7 67 17 Z "></path><path fill="rgb(81,15,36)" stroke="rgb(81,15,36)" stroke-width="1" opacity="0.996078431372549" d="M 60.5 18 L 59.5 20 L 60.5 18 Z "></path><path fill="rgb(81,15,36)" stroke="rgb(81,15,36)" stroke-width="1" opacity="0.996078431372549" d="M 73 21 L 76 21.5 L 74 22.5 L 75 25.5 L 74 29 Q 79.2 30.7 78 27 L 76 26.5 L 79 26 L 77.5 30 L 75 30.5 L 78 31.5 L 76.5 34 L 73 33 L 74 30.5 L 72.5 27 L 67.5 35 Q 65.3 35.8 66 33.5 L 67 31 Q 70 32.3 69 28.5 L 70 26 L 74 25.5 L 72 25 L 73 21 Z "></path><path fill="rgb(81,15,36)" stroke="rgb(81,15,36)" stroke-width="1" opacity="0.996078431372549" d="M 79.5 21 L 80 25 L 77 24.5 L 79 24 L 79.5 21 Z "></path><path fill="rgb(81,15,36)" stroke="rgb(81,15,36)" stroke-width="1" opacity="0.996078431372549" d="M 55.5 22 L 55 23.5 Q 55.8 25.8 53.5 25 L 55.5 22 Z "></path><path fill="rgb(81,15,36)" stroke="rgb(81,15,36)" stroke-width="1" opacity="0.996078431372549" d="M 38.5 27 L 41.5 29 L 41.5 30 Q 32.6 31.9 29 28.5 L 36.5 28 L 38.5 29 L 38.5 27 Z "></path><path fill="rgb(81,15,36)" stroke="rgb(81,15,36)" stroke-width="1" opacity="0.996078431372549" d="M 28.5 33 L 36 33.5 L 31.5 35 L 28.5 34 L 28.5 33 Z "></path><path fill="rgb(81,15,36)" stroke="rgb(81,15,36)" stroke-width="1" opacity="0.996078431372549" d="M 76.5 35 L 77 37.5 L 76 37.5 L 76.5 35 Z "></path><path fill="rgb(81,15,36)" stroke="rgb(81,15,36)" stroke-width="1" opacity="0.996078431372549" d="M 22 43 L 25 44.5 Q 25.7 47.5 22 46 L 22 43 Z "></path><path fill="rgb(81,15,36)" stroke="rgb(81,15,36)" stroke-width="1" opacity="0.996078431372549" d="M 77.5 44 L 78 46 L 76 45.5 L 77.5 44 Z "></path><path fill="rgb(146,130,151)" stroke="rgb(146,130,151)" stroke-width="1" opacity="0.996078431372549" d="M 61.5 0 L 63.5 0 Q 66.1 -0.7 65 2 L 60.5 3 L 60.5 2 L 62 1.5 L 61.5 0 Z "></path><path fill="rgb(146,130,151)" stroke="rgb(146,130,151)" stroke-width="1" opacity="0.996078431372549" d="M 73.5 0 L 74 2.5 L 72 3.5 L 73.5 0 Z "></path><path fill="rgb(146,130,151)" stroke="rgb(146,130,151)" stroke-width="1" opacity="0.996078431372549" d="M 69.5 2 L 68.5 4 L 69.5 2 Z "></path><path fill="rgb(146,130,151)" stroke="rgb(146,130,151)" stroke-width="1" opacity="0.996078431372549" d="M 63.5 12 L 62.5 14 L 63.5 12 Z "></path><path fill="rgb(146,130,151)" stroke="rgb(146,130,151)" stroke-width="1" opacity="0.996078431372549" d="M 48.5 16 L 49 19 Q 52.7 20.5 52 17.5 L 53 17.5 L 51.5 20 L 48.5 19 L 47 19.5 L 48.5 16 Z "></path><path fill="rgb(146,130,151)" stroke="rgb(146,130,151)" stroke-width="1" opacity="0.996078431372549" d="M 82.5 19 L 83.5 21 L 82.5 19 Z "></path><path fill="rgb(146,130,151)" stroke="rgb(146,130,151)" stroke-width="1" opacity="0.996078431372549" d="M 57.5 20 L 57 21.5 L 56.5 23 L 56 21.5 L 57.5 20 Z "></path><path fill="rgb(146,130,151)" stroke="rgb(146,130,151)" stroke-width="1" opacity="0.996078431372549" d="M 50.5 23 Q 52.8 22.3 52 24.5 L 54 27.5 L 53 30 L 50 28.5 L 52 28.5 Q 52.5 23.8 50.5 23 Z "></path><path fill="rgb(146,130,151)" stroke="rgb(146,130,151)" stroke-width="1" opacity="0.996078431372549" d="M 55.5 24 L 54.5 26 L 55.5 24 Z "></path><path fill="rgb(146,130,151)" stroke="rgb(146,130,151)" stroke-width="1" opacity="0.996078431372549" d="M 73.5 34 Q 75.8 33.3 75 35.5 L 73.5 38 L 69.5 36 L 69 38 Q 66.3 39.1 67 36.5 L 70.5 35 L 73.5 36 L 73.5 34 Z "></path><path fill="rgb(146,130,151)" stroke="rgb(146,130,151)" stroke-width="1" opacity="0.996078431372549" d="M 77.5 35 L 78 37.5 L 77 37.5 L 77.5 35 Z "></path><path fill="rgb(146,130,151)" stroke="rgb(146,130,151)" stroke-width="1" opacity="0.996078431372549" d="M 66.5 40 L 67 43 Q 69.7 41.9 69 44.5 L 69.5 46 Q 64.7 44.7 66.5 40 Z "></path><path fill="rgb(78,49,83)" stroke="rgb(78,49,83)" stroke-width="1" opacity="0.996078431372549" d="M 43.5 0 L 45.5 1 L 47.5 1 Q 49.8 0.3 49 2.5 L 50 5.5 L 47.5 9 L 41.5 8 Q 39.5 12 37.5 8 L 35 7.5 L 40.5 6 L 45 7 Q 46 3.2 43.5 2 L 40 4.5 L 41 3.5 L 39.5 1 L 43.5 0 Z "></path><path fill="rgb(78,49,83)" stroke="rgb(78,49,83)" stroke-width="1" opacity="0.996078431372549" d="M 67 0 L 70 1.5 Q 69.5 4.5 65.5 4 L 65.5 3 Q 68.5 3.7 67 0 Z "></path><path fill="rgb(78,49,83)" stroke="rgb(78,49,83)" stroke-width="1" opacity="0.996078431372549" d="M 37.5 1 L 36.5 3 L 37.5 1 Z "></path><path fill="rgb(78,49,83)" stroke="rgb(78,49,83)" stroke-width="1" opacity="0.996078431372549" d="M 65.5 5 L 68 5.5 L 65.5 6 L 65.5 5 Z "></path><path fill="rgb(78,49,83)" stroke="rgb(78,49,83)" stroke-width="1" opacity="0.996078431372549" d="M 82.5 6 L 83 7.5 L 81 11.5 L 82 15 Q 78.7 16.3 80 11.5 L 80.5 10 L 79 9.5 L 80.5 7 L 82 7.5 L 82.5 6 Z "></path><path fill="rgb(78,49,83)" stroke="rgb(78,49,83)" stroke-width="1" opacity="0.996078431372549" d="M 64 7 L 66 7.5 L 64 8.5 L 64 7 Z "></path><path fill="rgb(78,49,83)" stroke="rgb(78,49,83)" stroke-width="1" opacity="0.996078431372549" d="M 60.5 14 Q 62.8 13.3 62 15.5 L 60 16.5 L 60.5 14 Z "></path><path fill="rgb(78,49,83)" stroke="rgb(78,49,83)" stroke-width="1" opacity="0.996078431372549" d="M 81.5 16 L 82 17.5 L 81 20.5 L 80.5 23 L 80 18.5 L 81.5 16 Z "></path><path fill="rgb(78,49,83)" stroke="rgb(78,49,83)" stroke-width="1" opacity="0.996078431372549" d="M 39.5 17 Q 43.9 15.5 43 18.5 L 45.5 17 Q 49.3 16 48 19 L 43.5 20 L 39.5 19 L 38 19.5 L 39.5 17 Z "></path><path fill="rgb(78,49,83)" stroke="rgb(78,49,83)" stroke-width="1" opacity="0.996078431372549" d="M 4.5 21 L 5 24.5 L 4 24.5 L 4.5 21 Z "></path><path fill="rgb(78,49,83)" stroke="rgb(78,49,83)" stroke-width="1" opacity="0.996078431372549" d="M 48.5 21 L 49 23.5 L 49 25.5 L 49 28 Q 46 27 47 30 Q 50 28.8 49 32.5 L 48 35.5 L 50 41.5 L 48 40.5 L 47.5 38 L 46 38.5 L 45 33.5 L 46 30.5 L 43.5 29 L 41.5 29 L 40 28.5 L 43.5 27 L 47 28 L 48.5 21 Z "></path><path fill="rgb(78,49,83)" stroke="rgb(78,49,83)" stroke-width="1" opacity="0.996078431372549" d="M 43.5 22 Q 45.8 21.3 45 23.5 L 42 23.5 L 43.5 22 Z "></path><path fill="rgb(78,49,83)" stroke="rgb(78,49,83)" stroke-width="1" opacity="0.996078431372549" d="M 69.5 25 L 68.5 27 L 69.5 25 Z "></path><path fill="rgb(78,49,83)" stroke="rgb(78,49,83)" stroke-width="1" opacity="0.996078431372549" d="M 79.5 25 L 80 27.5 L 79 27.5 L 79.5 25 Z "></path><path fill="rgb(78,49,83)" stroke="rgb(78,49,83)" stroke-width="1" opacity="0.996078431372549" d="M 78.5 31 L 79 33.5 L 75.5 36 L 75 34 Q 77.7 35.1 77 32.5 L 78.5 31 Z "></path><path fill="rgb(78,49,83)" stroke="rgb(78,49,83)" stroke-width="1" opacity="0.996078431372549" d="M 82.5 32 Q 85.5 31.2 84 35 L 80 33.5 L 82.5 32 Z "></path><path fill="rgb(78,49,83)" stroke="rgb(78,49,83)" stroke-width="1" opacity="0.996078431372549" d="M 66 35 L 68 35.5 L 67 38 Q 69.7 36.9 69 39.5 L 70.5 42 L 66 37.5 L 66 35 Z "></path><path fill="rgb(78,49,83)" stroke="rgb(78,49,83)" stroke-width="1" opacity="0.996078431372549" d="M 63.5 37 L 65 40.5 L 64 44 L 66 44.5 L 64.5 45 L 62.5 44 L 57.5 46 Q 54.5 44.5 57.5 43 L 59.5 44 L 64 38.5 L 63.5 37 Z "></path><path fill="rgb(78,49,83)" stroke="rgb(78,49,83)" stroke-width="1" opacity="0.996078431372549" d="M 74.5 37 L 75.5 39 L 74.5 37 Z "></path><path fill="rgb(78,49,83)" stroke="rgb(78,49,83)" stroke-width="1" opacity="0.996078431372549" d="M 23.5 42 Q 27.7 40.7 26 45.5 L 25 45.5 L 23.5 42 Z "></path><path fill="rgb(78,49,83)" stroke="rgb(78,49,83)" stroke-width="1" opacity="0.996078431372549" d="M 44.5 42 L 45.5 44 L 44.5 42 Z "></path><path fill="rgb(78,49,83)" stroke="rgb(78,49,83)" stroke-width="1" opacity="0.996078431372549" d="M 51.5 42 L 52.5 44 L 51.5 42 Z "></path><path fill="rgb(78,49,83)" stroke="rgb(78,49,83)" stroke-width="1" opacity="0.996078431372549" d="M 72 42 L 75 43.5 L 76 45.5 L 73 45.5 L 72 42 Z "></path><path fill="rgb(78,49,83)" stroke="rgb(78,49,83)" stroke-width="1" opacity="0.996078431372549" d="M 77.5 43 L 79 45.5 L 78 45.5 L 77.5 43 Z "></path><path fill="rgb(227,177,146)" stroke="rgb(227,177,146)" stroke-width="1" opacity="0.996078431372549" d="M 24.5 3 L 23.5 5 L 24.5 3 Z "></path><path fill="rgb(227,177,146)" stroke="rgb(227,177,146)" stroke-width="1" opacity="0.996078431372549" d="M 26 3 L 28 3.5 L 26 4.5 L 26 3 Z "></path><path fill="rgb(227,177,146)" stroke="rgb(227,177,146)" stroke-width="1" opacity="0.996078431372549" d="M 29.5 3 L 31.5 4 Q 32.8 1.7 34 4.5 L 31.5 5 L 29.5 3 Z "></path><path fill="rgb(227,177,146)" stroke="rgb(227,177,146)" stroke-width="1" opacity="0.996078431372549" d="M 58 5 L 60 5.5 L 58 6.5 L 58 5 Z "></path><path fill="rgb(227,177,146)" stroke="rgb(227,177,146)" stroke-width="1" opacity="0.996078431372549" d="M 3.5 6 L 9 6.5 L 3.5 7 L 3.5 6 Z "></path><path fill="rgb(227,177,146)" stroke="rgb(227,177,146)" stroke-width="1" opacity="0.996078431372549" d="M 59.5 8 L 58.5 10 L 59.5 8 Z "></path><path fill="rgb(227,177,146)" stroke="rgb(227,177,146)" stroke-width="1" opacity="0.996078431372549" d="M 55 11 Q 58.8 9.5 58 12.5 L 58.5 14 L 56.5 12 L 54 13.5 L 55 11 Z "></path><path fill="rgb(227,177,146)" stroke="rgb(227,177,146)" stroke-width="1" opacity="0.996078431372549" d="M 59.5 11 L 60.5 13 L 59.5 11 Z "></path><path fill="rgb(227,177,146)" stroke="rgb(227,177,146)" stroke-width="1" opacity="0.996078431372549" d="M 63.5 13 L 65 15.5 L 63.5 15 L 62 14.5 L 63.5 13 Z "></path><path fill="rgb(227,177,146)" stroke="rgb(227,177,146)" stroke-width="1" opacity="0.996078431372549" d="M 53.5 18 L 52.5 20 L 53.5 18 Z "></path><path fill="rgb(227,177,146)" stroke="rgb(227,177,146)" stroke-width="1" opacity="0.996078431372549" d="M 12.5 21 L 13 24.5 L 12 24.5 L 12.5 21 Z "></path><path fill="rgb(227,177,146)" stroke="rgb(227,177,146)" stroke-width="1" opacity="0.996078431372549" d="M 51.5 25 L 52 27.5 L 51 27.5 L 51.5 25 Z "></path><path fill="rgb(227,177,146)" stroke="rgb(227,177,146)" stroke-width="1" opacity="0.996078431372549" d="M 56.5 25 L 58 25.5 L 56 26 L 54.5 29 L 53 28.5 L 55 28 L 56.5 25 Z "></path><path fill="rgb(227,177,146)" stroke="rgb(227,177,146)" stroke-width="1" opacity="0.996078431372549" d="M 65.5 29 L 64.5 31 L 65.5 29 Z "></path><path fill="rgb(227,177,146)" stroke="rgb(227,177,146)" stroke-width="1" opacity="0.996078431372549" d="M 51.5 31 L 52 32.5 L 50 33.5 L 51.5 31 Z "></path><path fill="rgb(227,177,146)" stroke="rgb(227,177,146)" stroke-width="1" opacity="0.996078431372549" d="M 36.5 32 L 37.5 35 L 38.5 33 L 39 34.5 L 38.5 37 L 36 36.5 L 35.5 35 L 32 37 L 32.5 34 L 34.5 34 Q 37 34.7 36.5 32 Z "></path><path fill="rgb(227,177,146)" stroke="rgb(227,177,146)" stroke-width="1" opacity="0.996078431372549" d="M 61.5 32 L 63.5 32 L 65 32.5 L 62.5 36 L 61.5 32 Z "></path><path fill="rgb(227,177,146)" stroke="rgb(227,177,146)" stroke-width="1" opacity="0.996078431372549" d="M 71.5 32 L 73 35.5 L 72 35.5 L 71.5 33 L 70.5 35 L 70 33.5 L 71.5 32 Z "></path><path fill="rgb(227,177,146)" stroke="rgb(227,177,146)" stroke-width="1" opacity="0.996078431372549" d="M 3.5 34 Q 6.5 35.5 3.5 37 L 3.5 34 Z "></path><path fill="rgb(227,177,146)" stroke="rgb(227,177,146)" stroke-width="1" opacity="0.996078431372549" d="M 7.5 34 L 9.5 34 L 13 34.5 L 9.5 37 L 7 36.5 L 7.5 34 Z "></path><path fill="rgb(227,177,146)" stroke="rgb(227,177,146)" stroke-width="1" opacity="0.996078431372549" d="M 14.5 34 L 16.5 34 Q 18.8 33.3 18 35.5 L 16.5 37 L 14 36.5 L 14.5 34 Z "></path><path fill="rgb(227,177,146)" stroke="rgb(227,177,146)" stroke-width="1" opacity="0.996078431372549" d="M 19 34 Q 22 33 21 36 Q 18 37 19 34 Z "></path><path fill="rgb(227,177,146)" stroke="rgb(227,177,146)" stroke-width="1" opacity="0.996078431372549" d="M 22.5 34 L 23 36.5 L 22 36.5 L 22.5 34 Z "></path><path fill="rgb(227,177,146)" stroke="rgb(227,177,146)" stroke-width="1" opacity="0.996078431372549" d="M 25.5 34 L 25.5 37 Q 22.5 35.5 25.5 34 Z "></path><path fill="rgb(227,177,146)" stroke="rgb(227,177,146)" stroke-width="1" opacity="0.996078431372549" d="M 27.5 34 L 31 34.5 L 29 35 L 28.5 37 L 27.5 34 Z "></path><path fill="rgb(227,177,146)" stroke="rgb(227,177,146)" stroke-width="1" opacity="0.996078431372549" d="M 40.5 34 L 42 36.5 L 41 36.5 L 40.5 34 Z "></path><path fill="rgb(227,177,146)" stroke="rgb(227,177,146)" stroke-width="1" opacity="0.996078431372549" d="M 60.5 37 L 61.5 39 Q 58.7 39.7 60.5 37 Z "></path><path fill="rgb(227,177,146)" stroke="rgb(227,177,146)" stroke-width="1" opacity="0.996078431372549" d="M 69.5 43 L 71.5 46 Q 69.3 46.8 70 44.5 L 69.5 43 Z "></path><path fill="rgb(17,9,22)" stroke="rgb(17,9,22)" stroke-width="1" opacity="0.996078431372549" d="M 4.5 0 Q 9.8 -1.3 11 1.5 L 8.5 3 L 7.5 2 Q 5.8 5.1 4 3.5 L 3.5 6 L 3 2 L 7 1.5 Q 3.7 1.6 4.5 0 Z "></path><path fill="rgb(17,9,22)" stroke="rgb(17,9,22)" stroke-width="1" opacity="0.996078431372549" d="M 27.5 4 Q 30.8 2.9 30 5.5 L 28.5 5 L 27.5 4 Z "></path><path fill="rgb(17,9,22)" stroke="rgb(17,9,22)" stroke-width="1" opacity="0.996078431372549" d="M 34.5 4 L 37 4.5 Q 34.9 7.8 34.5 4 Z "></path><path fill="rgb(17,9,22)" stroke="rgb(17,9,22)" stroke-width="1" opacity="0.996078431372549" d="M 43.5 4 Q 45.8 3.3 45 5.5 L 43.5 4 Z "></path><path fill="rgb(17,9,22)" stroke="rgb(17,9,22)" stroke-width="1" opacity="0.996078431372549" d="M 68 6 L 74 7 L 73.5 10 L 73 8 L 69 7 L 68.5 10 L 68 6 Z "></path><path fill="rgb(17,9,22)" stroke="rgb(17,9,22)" stroke-width="1" opacity="0.996078431372549" d="M 53.5 7 L 54.5 9 L 53.5 7 Z "></path><path fill="rgb(17,9,22)" stroke="rgb(17,9,22)" stroke-width="1" opacity="0.996078431372549" d="M 29.5 10 L 30 14.5 L 29 14.5 L 29.5 10 Z "></path><path fill="rgb(17,9,22)" stroke="rgb(17,9,22)" stroke-width="1" opacity="0.996078431372549" d="M 79.5 15 L 80.5 17 L 79.5 15 Z "></path><path fill="rgb(17,9,22)" stroke="rgb(17,9,22)" stroke-width="1" opacity="0.996078431372549" d="M 28.5 20 L 29 26.5 L 27 27.5 L 28.5 20 Z "></path><path fill="rgb(17,9,22)" stroke="rgb(17,9,22)" stroke-width="1" opacity="0.996078431372549" d="M 33.5 21 L 34 25.5 L 33 25.5 L 33.5 21 Z "></path><path fill="rgb(17,9,22)" stroke="rgb(17,9,22)" stroke-width="1" opacity="0.996078431372549" d="M 36.5 21 L 37 24.5 L 35 25.5 L 36.5 21 Z "></path><path fill="rgb(17,9,22)" stroke="rgb(17,9,22)" stroke-width="1" opacity="0.996078431372549" d="M 46.5 24 L 45.5 26 L 46.5 24 Z "></path><path fill="rgb(17,9,22)" stroke="rgb(17,9,22)" stroke-width="1" opacity="0.996078431372549" d="M 38.5 25 L 39 26.5 L 37 27.5 L 38.5 25 Z "></path><path fill="rgb(17,9,22)" stroke="rgb(17,9,22)" stroke-width="1" opacity="0.996078431372549" d="M 26.5 31 L 27 33 L 25 32.5 L 26.5 31 Z "></path><path fill="rgb(17,9,22)" stroke="rgb(17,9,22)" stroke-width="1" opacity="0.996078431372549" d="M 39.5 31 L 40.5 33 L 39.5 32 L 37 33.5 L 39.5 31 Z "></path><path fill="rgb(17,9,22)" stroke="rgb(17,9,22)" stroke-width="1" opacity="0.996078431372549" d="M 23.5 34 L 28 36.5 L 26.5 37 L 24 36.5 L 24.5 35 L 23.5 34 Z "></path><path fill="rgb(17,9,22)" stroke="rgb(17,9,22)" stroke-width="1" opacity="0.996078431372549" d="M 21.5 39 Q 24.5 40.5 21.5 42 L 21.5 39 Z "></path><path fill="rgb(17,9,22)" stroke="rgb(17,9,22)" stroke-width="1" opacity="0.996078431372549" d="M 36.5 39 L 37 41 L 39.5 40 L 38.5 42 L 36.5 41 L 35 41.5 L 36.5 39 Z "></path><path fill="rgb(17,9,22)" stroke="rgb(17,9,22)" stroke-width="1" opacity="0.996078431372549" d="M 0 40 Q 3.8 38.5 3 41.5 L 4.5 41 L 6 41.5 L 6 43.5 L 6 46 L 0 46 L 0 40 Z M 3 43 L 3 44 L 5 44 L 3 43 Z "></path><path fill="rgb(17,9,22)" stroke="rgb(17,9,22)" stroke-width="1" opacity="0.996078431372549" d="M 46.5 40 Q 48.8 39.3 48 41.5 L 46.5 40 Z "></path><path fill="rgb(17,9,22)" stroke="rgb(17,9,22)" stroke-width="1" opacity="0.996078431372549" d="M 27.5 41 L 33 41.5 L 27.5 42 L 27.5 41 Z "></path></svg>